<svg id="svg" version="1.1" xmlns="http://www.w3.org/2000/svg" xmlns:xlink="http://www.w3.org/1999/xlink" width="400" height="160" viewBox="0, 0, 400,160"><g id="svgg"><path id="path0" d="M71.083 95.517 C 70.081 95.829,58.649 96.038,48.667 95.926 C 43.212 95.865,38.563 95.819,38.333 95.823 C 37.632 95.836,37.312 96.409,37.368 97.552 C 37.450 99.221,38.291 99.497,43.323 99.499 L 46.228 99.500 47.406 98.876 C 49.026 98.016,51.081 97.958,52.417 98.734 C 54.534 99.964,54.073 99.875,57.750 99.755 C 59.583 99.695,63.146 99.580,65.667 99.499 C 73.605 99.247,74.073 99.123,73.970 97.298 C 73.870 95.526,72.927 94.944,71.083 95.517 M36.846 100.605 C 36.420 101.147,35.821 103.016,35.091 106.081 C 34.785 107.366,34.336 109.167,34.094 110.083 C 33.702 111.568,33.518 112.626,32.804 117.531 C 32.507 119.571,32.834 120.036,34.932 120.561 C 35.473 120.697,36.592 121.044,37.417 121.334 C 39.580 122.093,49.821 124.332,51.133 124.333 C 52.012 124.333,52.667 123.775,52.667 123.025 C 52.667 122.755,52.825 121.722,53.020 120.728 C 53.690 117.297,53.380 116.440,51.167 115.606 C 47.152 114.093,46.889 113.069,50.750 113.985 C 51.483 114.159,52.833 114.424,53.750 114.574 C 56.021 114.946,55.928 114.891,55.492 115.596 C 55.045 116.320,55.191 117.016,56.543 120.583 C 58.005 124.440,58.363 124.878,60.031 124.855 C 60.575 124.847,61.072 124.809,61.135 124.770 C 61.198 124.731,62.413 124.538,63.833 124.341 C 71.190 123.321,79.193 120.058,79.595 117.914 C 79.702 117.340,79.533 116.771,77.506 110.917 C 77.125 109.817,76.327 107.192,75.731 105.083 C 75.097 102.839,74.525 101.124,74.349 100.946 C 74.062 100.655,73.683 100.649,65.333 100.824 C 54.695 101.046,55.072 100.951,56.356 103.080 C 58.239 106.203,57.192 108.809,54.517 107.658 C 53.114 107.055,52.884 107.467,53.445 109.571 C 53.802 110.913,53.697 111.203,52.879 111.135 C 52.107 111.071,52.319 111.769,50.840 104.434 C 50.488 102.690,50.193 102.167,49.561 102.167 C 48.613 102.167,47.401 106.680,47.581 109.539 L 47.694 111.328 47.271 111.521 C 46.923 111.679,46.767 111.662,46.404 111.424 C 45.930 111.113,45.923 110.977,46.263 108.877 C 46.434 107.815,46.186 107.608,44.904 107.745 C 41.679 108.091,41.156 105.982,43.647 102.671 C 44.897 101.009,44.798 100.924,41.320 100.675 C 40.075 100.586,38.851 100.435,38.601 100.340 C 37.810 100.039,37.221 100.129,36.846 100.605 M45.682 102.263 C 44.232 103.483,43.129 105.729,43.700 106.300 C 44.345 106.945,45.411 106.269,46.085 104.789 C 47.184 102.377,46.990 101.162,45.682 102.263 M52.724 102.591 C 52.263 103.793,54.043 106.667,55.249 106.667 C 56.475 106.667,56.430 105.494,55.149 104.019 C 53.749 102.409,52.970 101.950,52.724 102.591 " stroke="none" fill="#57ae12" fill-rule="evenodd"></path><path id="path1" d="M120.167 60.833 C 120.167 60.925,119.759 61.000,119.260 61.000 C 118.761 61.000,118.307 61.075,118.250 61.167 C 118.193 61.258,117.936 61.333,117.677 61.333 C 117.419 61.333,117.114 61.446,117.000 61.583 C 116.886 61.721,116.544 61.833,116.239 61.833 C 115.935 61.833,115.640 61.908,115.583 62.000 C 115.527 62.092,115.297 62.167,115.073 62.167 C 114.823 62.167,114.667 62.263,114.667 62.417 C 114.667 62.572,114.509 62.667,114.250 62.667 C 114.021 62.667,113.833 62.742,113.833 62.833 C 113.833 62.925,113.646 63.000,113.417 63.000 C 113.188 63.000,113.000 63.075,113.000 63.167 C 113.000 63.258,112.848 63.333,112.661 63.333 C 112.475 63.333,112.281 63.444,112.229 63.578 C 112.177 63.713,111.880 63.916,111.567 64.028 C 111.255 64.141,111.000 64.299,111.000 64.379 C 111.000 64.607,110.548 65.000,110.285 65.000 C 110.154 65.000,109.906 65.188,109.734 65.417 C 109.562 65.646,109.358 65.833,109.282 65.833 C 109.083 65.833,108.667 66.277,108.667 66.488 C 108.667 66.586,108.586 66.667,108.488 66.667 C 108.294 66.667,107.833 67.077,107.833 67.250 C 107.833 67.309,107.720 67.470,107.582 67.609 C 107.443 67.747,107.373 67.929,107.425 68.013 C 107.477 68.098,107.403 68.167,107.260 68.167 C 107.117 68.167,107.000 68.261,107.000 68.377 C 107.000 68.493,106.813 68.728,106.583 68.900 C 106.354 69.073,106.167 69.353,106.167 69.523 C 106.167 69.694,106.092 69.833,106.000 69.833 C 105.908 69.833,105.833 69.914,105.833 70.012 C 105.833 70.110,105.740 70.295,105.625 70.423 C 105.093 71.016,105.000 71.175,105.000 71.493 C 105.000 71.680,104.925 71.833,104.833 71.833 C 104.742 71.833,104.667 72.061,104.667 72.339 C 104.667 72.634,104.563 72.884,104.417 72.940 C 104.279 72.992,104.167 73.211,104.167 73.425 C 104.167 73.639,104.092 73.860,104.000 73.917 C 103.908 73.973,103.833 74.307,103.833 74.659 C 103.833 75.073,103.745 75.331,103.583 75.394 C 103.413 75.459,103.333 75.726,103.333 76.235 C 103.333 76.645,103.258 77.027,103.167 77.083 C 102.958 77.213,102.937 86.775,103.146 86.904 C 103.226 86.953,103.327 87.423,103.371 87.947 C 103.414 88.471,103.536 88.929,103.641 88.964 C 103.747 88.999,103.833 89.284,103.833 89.597 C 103.833 89.910,103.908 90.167,104.000 90.167 C 104.092 90.167,104.167 90.429,104.167 90.750 C 104.167 91.157,104.242 91.333,104.417 91.333 C 104.572 91.333,104.667 91.491,104.667 91.750 C 104.667 91.979,104.742 92.167,104.833 92.167 C 104.925 92.167,105.000 92.354,105.000 92.583 C 105.000 92.813,105.075 93.000,105.167 93.000 C 105.258 93.000,105.333 93.152,105.333 93.339 C 105.333 93.525,105.446 93.720,105.583 93.773 C 105.721 93.826,105.836 93.992,105.839 94.143 C 105.845 94.488,106.226 95.000,106.477 95.000 C 106.581 95.000,106.667 95.154,106.667 95.341 C 106.667 95.689,108.174 97.333,108.492 97.333 C 108.588 97.333,108.667 97.422,108.667 97.531 C 108.667 97.724,110.239 99.333,110.428 99.333 C 110.481 99.333,110.628 99.427,110.756 99.542 C 111.308 100.036,111.496 100.167,111.660 100.167 C 111.755 100.167,111.833 100.240,111.833 100.330 C 111.833 100.420,112.021 100.541,112.250 100.598 C 112.479 100.656,112.667 100.770,112.667 100.851 C 112.667 100.933,112.812 101.000,112.990 101.000 C 113.168 101.000,113.360 101.075,113.417 101.167 C 113.473 101.258,113.656 101.333,113.823 101.333 C 113.989 101.333,114.219 101.446,114.333 101.583 C 114.447 101.721,114.715 101.833,114.927 101.833 C 115.140 101.833,115.360 101.908,115.417 102.000 C 115.473 102.092,115.770 102.167,116.075 102.167 C 116.416 102.167,116.668 102.264,116.727 102.417 C 116.782 102.561,117.032 102.667,117.318 102.667 C 117.591 102.667,117.860 102.742,117.917 102.833 C 117.973 102.925,118.423 103.000,118.917 103.000 C 119.410 103.000,119.860 103.075,119.917 103.167 C 119.982 103.272,122.030 103.333,125.510 103.333 C 129.059 103.333,131.000 103.274,131.000 103.167 C 131.000 103.071,131.500 103.000,132.167 103.000 C 132.833 103.000,133.333 102.929,133.333 102.833 C 133.333 102.742,133.703 102.667,134.155 102.667 C 134.663 102.667,135.072 102.571,135.226 102.417 C 135.365 102.278,135.773 102.167,136.145 102.167 C 136.513 102.167,136.860 102.092,136.917 102.000 C 136.973 101.908,137.278 101.833,137.593 101.833 C 137.992 101.833,138.167 101.757,138.167 101.583 C 138.167 101.399,138.360 101.333,138.907 101.333 C 139.314 101.333,139.693 101.258,139.750 101.167 C 139.807 101.075,140.069 101.000,140.333 101.000 C 140.598 101.000,140.860 100.925,140.917 100.833 C 140.973 100.742,141.157 100.667,141.324 100.667 C 142.168 100.667,142.173 100.604,142.126 89.879 L 142.083 79.917 132.375 79.874 L 122.667 79.831 122.667 83.832 L 122.667 87.833 126.667 87.833 L 130.667 87.833 130.667 91.549 L 130.667 95.265 129.613 95.424 C 129.034 95.512,128.340 95.536,128.071 95.478 C 127.803 95.420,126.815 95.364,125.875 95.353 C 124.860 95.341,124.167 95.266,124.167 95.167 C 124.167 95.075,123.871 95.000,123.510 95.000 C 123.149 95.000,122.807 94.925,122.750 94.833 C 122.693 94.742,122.472 94.667,122.258 94.667 C 122.044 94.667,121.826 94.554,121.773 94.417 C 121.720 94.279,121.529 94.167,121.348 94.167 C 121.168 94.167,120.973 94.092,120.917 94.000 C 120.860 93.908,120.668 93.833,120.490 93.833 C 120.312 93.833,120.167 93.763,120.167 93.678 C 120.167 93.592,120.000 93.469,119.796 93.405 C 119.335 93.259,116.667 90.546,116.667 90.225 C 116.667 90.095,116.554 89.946,116.417 89.894 C 116.279 89.841,116.167 89.618,116.167 89.399 C 116.167 89.179,116.092 89.000,116.000 89.000 C 115.908 89.000,115.833 88.813,115.833 88.583 C 115.833 88.324,115.739 88.167,115.583 88.167 C 115.409 88.167,115.333 87.991,115.333 87.583 C 115.333 87.263,115.258 87.000,115.167 87.000 C 115.075 87.000,115.000 86.592,115.000 86.093 C 115.000 85.594,114.925 85.140,114.833 85.083 C 114.732 85.021,114.667 83.807,114.667 82.000 C 114.667 80.193,114.732 78.979,114.833 78.917 C 114.925 78.860,115.000 78.481,115.000 78.073 C 115.000 77.666,115.075 77.333,115.167 77.333 C 115.258 77.333,115.333 77.071,115.333 76.750 C 115.333 76.343,115.409 76.167,115.583 76.167 C 115.728 76.167,115.838 76.008,115.846 75.792 C 115.852 75.585,116.003 75.192,116.181 74.917 C 116.358 74.642,116.549 74.285,116.605 74.125 C 116.660 73.965,116.772 73.833,116.853 73.833 C 116.934 73.833,117.000 73.727,117.000 73.597 C 117.000 73.467,117.057 73.336,117.126 73.306 C 117.196 73.275,117.502 72.931,117.807 72.542 C 118.112 72.152,118.457 71.833,118.574 71.833 C 118.691 71.833,118.927 71.646,119.100 71.417 C 119.272 71.188,119.507 71.000,119.623 71.000 C 119.739 71.000,119.833 70.925,119.833 70.833 C 119.833 70.742,119.986 70.667,120.172 70.667 C 120.358 70.667,120.554 70.554,120.606 70.417 C 120.659 70.279,120.844 70.167,121.018 70.167 C 121.191 70.167,121.333 70.092,121.333 70.000 C 121.333 69.908,121.521 69.833,121.750 69.833 C 122.009 69.833,122.167 69.739,122.167 69.583 C 122.167 69.399,122.360 69.333,122.907 69.333 C 123.314 69.333,123.693 69.258,123.750 69.167 C 123.813 69.065,125.085 69.000,127.010 69.000 C 129.003 69.000,130.167 69.061,130.167 69.167 C 130.167 69.258,130.542 69.333,131.000 69.333 C 131.630 69.333,131.833 69.394,131.833 69.583 C 131.833 69.749,131.999 69.833,132.323 69.833 C 132.593 69.833,132.860 69.908,132.917 70.000 C 132.973 70.092,133.195 70.167,133.409 70.167 C 133.623 70.167,133.841 70.279,133.894 70.417 C 133.946 70.554,134.142 70.667,134.328 70.667 C 134.514 70.667,134.667 70.742,134.667 70.833 C 134.667 70.925,134.817 71.000,135.000 71.000 C 135.183 71.000,135.333 71.075,135.333 71.167 C 135.333 71.258,135.446 71.333,135.583 71.333 C 135.721 71.333,135.833 71.407,135.833 71.497 C 135.833 71.587,136.021 71.707,136.250 71.765 C 136.479 71.822,136.667 71.920,136.667 71.982 C 136.667 72.044,136.910 72.237,137.208 72.411 C 137.506 72.584,137.871 72.863,138.020 73.030 C 138.168 73.197,138.449 73.333,138.645 73.333 C 138.840 73.333,139.000 73.419,139.000 73.523 C 139.000 73.930,139.606 74.156,140.708 74.161 L 141.833 74.167 141.833 69.078 C 141.833 64.378,141.811 63.983,141.542 63.898 C 141.381 63.848,141.051 63.701,140.808 63.570 C 140.564 63.440,140.246 63.333,140.099 63.333 C 139.953 63.333,139.833 63.258,139.833 63.167 C 139.833 63.075,139.646 63.000,139.417 63.000 C 139.188 63.000,139.000 62.925,139.000 62.833 C 139.000 62.742,138.773 62.667,138.495 62.667 C 138.199 62.667,137.950 62.563,137.894 62.417 C 137.840 62.276,137.591 62.167,137.325 62.167 C 137.066 62.167,136.807 62.092,136.750 62.000 C 136.693 61.908,136.387 61.833,136.068 61.833 C 135.708 61.833,135.453 61.739,135.394 61.583 C 135.328 61.414,135.063 61.333,134.566 61.333 C 134.163 61.333,133.833 61.258,133.833 61.167 C 133.833 61.073,133.361 61.000,132.750 61.000 C 132.139 61.000,131.667 60.927,131.667 60.833 C 131.667 60.725,129.639 60.667,125.917 60.667 C 122.194 60.667,120.167 60.725,120.167 60.833 M145.944 61.444 C 145.772 61.617,145.814 62.167,146.000 62.167 C 146.092 62.167,146.167 62.306,146.167 62.477 C 146.167 62.647,146.354 62.927,146.583 63.100 C 146.813 63.272,147.000 63.582,147.000 63.790 C 147.000 63.997,147.070 64.167,147.155 64.167 C 147.241 64.167,147.364 64.335,147.429 64.542 C 147.494 64.748,147.687 65.038,147.857 65.186 C 148.027 65.334,148.167 65.616,148.167 65.811 C 148.167 66.016,148.273 66.167,148.417 66.167 C 148.566 66.167,148.667 66.320,148.667 66.547 C 148.667 66.755,148.817 67.035,149.000 67.167 C 149.183 67.299,149.333 67.543,149.333 67.709 C 149.333 67.875,149.446 68.054,149.583 68.106 C 149.721 68.159,149.833 68.350,149.833 68.530 C 149.833 68.884,150.200 69.333,150.488 69.333 C 150.586 69.333,150.667 69.521,150.667 69.750 C 150.667 69.979,150.742 70.167,150.833 70.167 C 150.925 70.167,151.002 70.298,151.005 70.458 C 151.012 70.819,151.387 71.333,151.643 71.333 C 151.748 71.333,151.833 71.521,151.833 71.750 C 151.833 71.979,151.908 72.167,152.000 72.167 C 152.092 72.167,152.167 72.306,152.167 72.477 C 152.167 72.647,152.354 72.927,152.583 73.100 C 152.813 73.272,153.000 73.582,153.000 73.790 C 153.000 73.997,153.075 74.167,153.167 74.167 C 153.258 74.167,153.333 74.276,153.333 74.409 C 153.333 74.542,153.521 74.839,153.750 75.068 C 153.979 75.297,154.167 75.638,154.167 75.826 C 154.167 76.018,154.276 76.167,154.417 76.167 C 154.566 76.167,154.667 76.320,154.667 76.547 C 154.667 76.755,154.817 77.035,155.000 77.167 C 155.183 77.299,155.333 77.543,155.333 77.709 C 155.333 77.875,155.446 78.054,155.583 78.106 C 155.721 78.159,155.833 78.364,155.833 78.562 C 155.833 78.759,156.021 79.062,156.250 79.234 C 156.479 79.406,156.667 79.686,156.667 79.857 C 156.667 80.027,156.742 80.167,156.833 80.167 C 156.925 80.167,157.000 80.336,157.000 80.544 C 157.000 80.751,157.187 81.061,157.417 81.234 C 157.646 81.406,157.833 81.686,157.833 81.857 C 157.833 82.027,157.908 82.167,158.000 82.167 C 158.092 82.167,158.168 82.298,158.170 82.458 C 158.171 82.619,158.359 82.927,158.586 83.142 C 158.814 83.358,159.000 83.677,159.000 83.851 C 159.000 84.025,159.075 84.167,159.167 84.167 C 159.258 84.167,159.333 84.274,159.333 84.405 C 159.333 84.536,159.432 84.742,159.552 84.863 C 159.672 84.984,159.878 85.327,160.009 85.625 C 160.141 85.923,160.342 86.167,160.457 86.167 C 160.572 86.167,160.667 86.354,160.667 86.583 C 160.667 86.813,160.741 87.000,160.832 87.000 C 160.938 87.000,161.012 89.789,161.040 94.792 L 161.083 102.583 166.417 102.630 C 169.350 102.656,171.916 102.636,172.119 102.587 L 172.488 102.497 172.536 94.387 C 172.573 88.082,172.630 86.262,172.792 86.208 C 172.906 86.170,173.000 86.033,173.000 85.903 C 173.000 85.773,173.075 85.667,173.167 85.667 C 173.258 85.667,173.333 85.517,173.333 85.333 C 173.333 85.148,173.444 85.000,173.583 85.000 C 173.739 85.000,173.833 84.843,173.833 84.583 C 173.833 84.354,173.908 84.167,174.000 84.167 C 174.092 84.167,174.167 84.086,174.167 83.988 C 174.167 83.890,174.260 83.705,174.375 83.577 C 174.907 82.984,175.000 82.825,175.000 82.507 C 175.000 82.320,175.075 82.167,175.167 82.167 C 175.258 82.167,175.333 82.086,175.333 81.988 C 175.333 81.890,175.427 81.705,175.542 81.577 C 176.074 80.984,176.167 80.825,176.167 80.507 C 176.167 80.320,176.265 80.167,176.386 80.167 C 176.506 80.167,176.707 79.904,176.833 79.583 C 176.959 79.262,177.123 79.000,177.198 79.000 C 177.272 79.000,177.333 78.813,177.333 78.583 C 177.333 78.324,177.428 78.167,177.583 78.167 C 177.721 78.167,177.833 78.054,177.833 77.917 C 177.833 77.779,177.908 77.667,178.000 77.667 C 178.092 77.667,178.167 77.525,178.167 77.351 C 178.167 77.178,178.279 76.992,178.417 76.940 C 178.554 76.887,178.667 76.691,178.667 76.505 C 178.667 76.319,178.742 76.167,178.833 76.167 C 178.925 76.167,179.000 76.054,179.000 75.917 C 179.000 75.779,179.075 75.667,179.167 75.667 C 179.258 75.667,179.333 75.517,179.333 75.333 C 179.333 75.148,179.444 75.000,179.583 75.000 C 179.739 75.000,179.833 74.843,179.833 74.583 C 179.833 74.354,179.908 74.167,180.000 74.167 C 180.092 74.167,180.167 74.086,180.167 73.988 C 180.167 73.890,180.260 73.705,180.375 73.577 C 180.907 72.984,181.000 72.825,181.000 72.507 C 181.000 72.320,181.075 72.167,181.167 72.167 C 181.258 72.167,181.333 72.086,181.333 71.988 C 181.333 71.890,181.427 71.705,181.542 71.577 C 182.074 70.984,182.167 70.825,182.167 70.507 C 182.167 70.320,182.265 70.167,182.386 70.167 C 182.506 70.167,182.707 69.904,182.833 69.583 C 182.959 69.262,183.123 69.000,183.198 69.000 C 183.272 69.000,183.333 68.813,183.333 68.583 C 183.333 68.324,183.428 68.167,183.583 68.167 C 183.721 68.167,183.833 68.054,183.833 67.917 C 183.833 67.779,183.908 67.667,184.000 67.667 C 184.092 67.667,184.167 67.525,184.167 67.351 C 184.167 67.178,184.288 66.989,184.436 66.932 C 184.606 66.867,184.673 66.708,184.618 66.498 C 184.562 66.283,184.614 66.167,184.766 66.167 C 184.895 66.167,185.000 66.054,185.000 65.917 C 185.000 65.779,185.075 65.667,185.167 65.667 C 185.258 65.667,185.333 65.517,185.333 65.333 C 185.333 65.148,185.444 65.000,185.583 65.000 C 185.739 65.000,185.833 64.843,185.833 64.583 C 185.833 64.354,185.908 64.167,186.000 64.167 C 186.092 64.167,186.167 64.086,186.167 63.988 C 186.167 63.890,186.260 63.705,186.375 63.577 C 186.907 62.984,187.000 62.825,187.000 62.507 C 187.000 62.320,187.075 62.167,187.167 62.167 C 187.258 62.167,187.333 61.979,187.333 61.750 L 187.333 61.333 181.167 61.333 C 175.796 61.333,175.000 61.366,175.000 61.583 C 175.000 61.721,174.925 61.833,174.833 61.833 C 174.742 61.833,174.667 62.021,174.667 62.250 C 174.667 62.509,174.572 62.667,174.417 62.667 C 174.278 62.667,174.167 62.815,174.167 63.000 C 174.167 63.183,174.092 63.333,174.000 63.333 C 173.908 63.333,173.833 63.451,173.833 63.594 C 173.833 63.738,173.646 64.101,173.417 64.402 C 173.188 64.702,173.000 65.072,173.000 65.224 C 173.000 65.376,172.925 65.500,172.833 65.500 C 172.742 65.500,172.667 65.642,172.667 65.816 C 172.667 65.989,172.554 66.174,172.417 66.227 C 172.279 66.280,172.167 66.475,172.167 66.661 C 172.167 66.848,172.092 67.000,172.000 67.000 C 171.908 67.000,171.833 67.188,171.833 67.417 C 171.833 67.676,171.739 67.833,171.583 67.833 C 171.428 67.833,171.333 67.991,171.333 68.250 C 171.333 68.479,171.258 68.667,171.167 68.667 C 171.075 68.667,171.000 68.817,171.000 69.000 C 171.000 69.183,170.925 69.333,170.833 69.333 C 170.742 69.333,170.667 69.446,170.667 69.583 C 170.667 69.721,170.593 69.833,170.503 69.833 C 170.413 69.833,170.293 70.021,170.235 70.250 C 170.178 70.479,170.064 70.667,169.982 70.667 C 169.900 70.667,169.833 70.807,169.833 70.980 C 169.833 71.152,169.721 71.386,169.583 71.500 C 169.446 71.614,169.333 71.811,169.333 71.937 C 169.333 72.063,169.258 72.167,169.167 72.167 C 169.075 72.167,169.000 72.354,169.000 72.583 C 169.000 72.813,168.925 73.000,168.833 73.000 C 168.742 73.000,168.667 73.188,168.667 73.417 C 168.667 73.676,168.572 73.833,168.417 73.833 C 168.279 73.833,168.167 73.969,168.167 74.135 C 168.167 74.301,168.017 74.598,167.833 74.795 C 167.650 74.992,167.500 75.219,167.500 75.301 C 167.500 75.479,166.922 76.167,166.772 76.167 C 166.714 76.167,166.667 76.014,166.667 75.828 C 166.667 75.642,166.554 75.446,166.417 75.394 C 166.279 75.341,166.167 75.156,166.167 74.982 C 166.167 74.809,166.092 74.667,166.000 74.667 C 165.908 74.667,165.833 74.479,165.833 74.250 C 165.833 73.991,165.739 73.833,165.583 73.833 C 165.446 73.833,165.333 73.697,165.333 73.531 C 165.333 73.365,165.183 73.069,165.000 72.872 C 164.817 72.675,164.667 72.361,164.667 72.174 C 164.667 71.982,164.557 71.833,164.417 71.833 C 164.261 71.833,164.167 71.676,164.167 71.417 C 164.167 71.188,164.092 71.000,164.000 71.000 C 163.908 71.000,163.833 70.848,163.833 70.661 C 163.833 70.475,163.721 70.280,163.583 70.227 C 163.446 70.174,163.333 69.989,163.333 69.816 C 163.333 69.642,163.258 69.500,163.167 69.500 C 163.075 69.500,163.000 69.387,163.000 69.250 C 163.000 69.112,162.925 69.000,162.833 69.000 C 162.742 69.000,162.667 68.848,162.667 68.661 C 162.667 68.475,162.554 68.280,162.417 68.227 C 162.279 68.174,162.167 67.993,162.167 67.825 C 162.167 67.657,162.092 67.473,162.000 67.417 C 161.908 67.360,161.833 67.168,161.833 66.990 C 161.833 66.812,161.721 66.667,161.583 66.667 C 161.446 66.667,161.332 66.535,161.330 66.375 C 161.328 66.215,161.179 65.896,161.000 65.667 C 160.821 65.438,160.672 65.119,160.670 64.958 C 160.668 64.798,160.554 64.667,160.417 64.667 C 160.261 64.667,160.167 64.509,160.167 64.250 C 160.167 64.021,160.092 63.833,160.000 63.833 C 159.908 63.833,159.833 63.687,159.833 63.508 C 159.833 63.330,159.739 63.123,159.625 63.050 C 159.510 62.977,159.304 62.693,159.166 62.419 C 158.583 61.256,159.079 61.333,152.241 61.333 C 148.839 61.333,146.006 61.383,145.944 61.444 M192.033 61.533 C 191.718 61.849,191.746 102.220,192.062 102.482 C 192.224 102.617,193.778 102.659,197.437 102.627 L 202.583 102.583 202.626 89.958 C 202.654 81.735,202.727 77.333,202.834 77.333 C 202.925 77.333,203.000 77.596,203.000 77.917 C 203.000 78.237,203.075 78.500,203.167 78.500 C 203.258 78.500,203.333 78.652,203.333 78.839 C 203.333 79.025,203.446 79.220,203.583 79.273 C 203.721 79.326,203.833 79.548,203.833 79.768 C 203.833 79.987,203.908 80.167,204.000 80.167 C 204.092 80.167,204.167 80.394,204.167 80.672 C 204.167 80.967,204.271 81.217,204.417 81.273 C 204.554 81.326,204.667 81.548,204.667 81.768 C 204.667 81.987,204.742 82.167,204.833 82.167 C 204.925 82.167,205.000 82.354,205.000 82.583 C 205.000 82.813,205.075 83.000,205.167 83.000 C 205.258 83.000,205.333 83.182,205.333 83.405 C 205.333 83.627,205.446 83.922,205.583 84.060 C 205.721 84.197,205.833 84.465,205.833 84.655 C 205.833 84.845,205.908 85.000,206.000 85.000 C 206.092 85.000,206.167 85.179,206.167 85.399 C 206.167 85.618,206.279 85.841,206.417 85.894 C 206.563 85.950,206.667 86.199,206.667 86.495 C 206.667 86.773,206.742 87.000,206.833 87.000 C 206.925 87.000,207.000 87.188,207.000 87.417 C 207.000 87.646,207.075 87.833,207.167 87.833 C 207.258 87.833,207.333 87.978,207.333 88.155 C 207.333 88.332,207.446 88.589,207.583 88.726 C 207.721 88.864,207.833 89.169,207.833 89.405 C 207.833 89.640,207.908 89.833,208.000 89.833 C 208.092 89.833,208.167 89.986,208.167 90.172 C 208.167 90.358,208.279 90.554,208.417 90.606 C 208.559 90.661,208.667 90.910,208.667 91.184 C 208.667 91.450,208.742 91.667,208.833 91.667 C 208.925 91.667,209.000 91.854,209.000 92.083 C 209.000 92.313,209.075 92.500,209.167 92.500 C 209.258 92.500,209.333 92.612,209.333 92.750 C 209.333 92.966,209.905 93.000,213.482 93.000 C 217.935 93.000,217.833 93.020,217.833 92.153 C 217.833 91.977,217.908 91.833,218.000 91.833 C 218.092 91.833,218.167 91.654,218.167 91.434 C 218.167 91.215,218.279 90.992,218.417 90.940 C 218.554 90.887,218.667 90.696,218.667 90.515 C 218.667 90.334,218.742 90.140,218.833 90.083 C 218.925 90.027,219.000 89.760,219.000 89.490 C 219.000 89.221,219.075 89.000,219.167 89.000 C 219.258 89.000,219.333 88.813,219.333 88.583 C 219.333 88.324,219.428 88.167,219.583 88.167 C 219.737 88.167,219.833 88.010,219.833 87.760 C 219.833 87.536,219.908 87.307,220.000 87.250 C 220.092 87.193,220.167 86.934,220.167 86.675 C 220.167 86.409,220.276 86.160,220.417 86.106 C 220.554 86.054,220.667 85.858,220.667 85.672 C 220.667 85.486,220.742 85.333,220.833 85.333 C 220.925 85.333,221.000 85.113,221.000 84.843 C 221.000 84.574,221.075 84.307,221.167 84.250 C 221.258 84.193,221.333 83.964,221.333 83.740 C 221.333 83.490,221.429 83.333,221.583 83.333 C 221.739 83.333,221.833 83.176,221.833 82.917 C 221.833 82.688,221.908 82.500,222.000 82.500 C 222.092 82.500,222.167 82.273,222.167 81.995 C 222.167 81.699,222.271 81.450,222.417 81.394 C 222.554 81.341,222.667 81.192,222.667 81.063 C 222.667 80.934,222.742 80.680,222.833 80.498 C 222.925 80.316,223.075 80.018,223.167 79.836 C 223.258 79.654,223.333 79.324,223.333 79.103 C 223.333 78.883,223.446 78.659,223.583 78.606 C 223.721 78.554,223.833 78.358,223.833 78.172 C 223.833 77.986,223.908 77.833,223.999 77.833 C 224.107 77.833,224.179 82.151,224.207 90.208 L 224.250 102.583 229.792 102.627 L 235.333 102.671 235.333 82.002 L 235.333 61.333 229.014 61.333 C 222.210 61.333,222.167 61.337,222.167 61.934 C 222.167 62.154,222.092 62.333,222.000 62.333 C 221.908 62.333,221.833 62.550,221.833 62.816 C 221.833 63.090,221.726 63.339,221.583 63.394 C 221.446 63.446,221.333 63.642,221.333 63.828 C 221.333 64.014,221.258 64.167,221.167 64.167 C 221.075 64.167,221.000 64.354,221.000 64.583 C 221.000 64.813,220.925 65.000,220.833 65.000 C 220.742 65.000,220.667 65.155,220.667 65.345 C 220.667 65.535,220.554 65.803,220.417 65.940 C 220.279 66.078,220.167 66.373,220.167 66.595 C 220.167 66.818,220.092 67.000,220.000 67.000 C 219.908 67.000,219.833 67.179,219.833 67.399 C 219.833 67.618,219.721 67.841,219.583 67.894 C 219.446 67.946,219.333 68.142,219.333 68.328 C 219.333 68.514,219.258 68.667,219.167 68.667 C 219.075 68.667,219.000 68.854,219.000 69.083 C 219.000 69.313,218.925 69.500,218.833 69.500 C 218.742 69.500,218.667 69.727,218.667 70.005 C 218.667 70.301,218.563 70.550,218.417 70.606 C 218.279 70.659,218.167 70.840,218.167 71.008 C 218.167 71.176,218.092 71.360,218.000 71.417 C 217.908 71.473,217.833 71.657,217.833 71.825 C 217.833 71.993,217.721 72.174,217.583 72.227 C 217.446 72.280,217.333 72.471,217.333 72.652 C 217.333 72.832,217.258 73.027,217.167 73.083 C 217.075 73.140,217.000 73.365,217.000 73.583 C 217.000 73.802,216.925 74.027,216.833 74.083 C 216.742 74.140,216.667 74.369,216.667 74.593 C 216.667 74.844,216.571 75.000,216.417 75.000 C 216.261 75.000,216.167 75.157,216.167 75.417 C 216.167 75.646,216.092 75.833,216.000 75.833 C 215.908 75.833,215.833 76.021,215.833 76.250 C 215.833 76.479,215.769 76.667,215.689 76.667 C 215.521 76.667,215.000 77.962,215.000 78.381 C 215.000 78.538,214.925 78.667,214.833 78.667 C 214.742 78.667,214.667 78.809,214.667 78.982 C 214.667 79.156,214.554 79.341,214.417 79.394 C 214.279 79.446,214.164 79.623,214.161 79.786 C 214.148 80.516,213.333 80.982,213.333 80.260 C 213.333 80.036,213.258 79.807,213.167 79.750 C 213.075 79.693,213.000 79.426,213.000 79.157 C 213.000 78.887,212.925 78.667,212.833 78.667 C 212.742 78.667,212.667 78.514,212.667 78.328 C 212.667 78.142,212.554 77.946,212.417 77.894 C 212.279 77.841,212.167 77.618,212.167 77.399 C 212.167 77.179,212.092 77.000,212.000 77.000 C 211.908 77.000,211.833 76.813,211.833 76.583 C 211.833 76.324,211.739 76.167,211.583 76.167 C 211.427 76.167,211.333 76.009,211.333 75.748 C 211.333 75.517,211.258 75.180,211.167 74.998 C 211.075 74.816,210.925 74.518,210.833 74.336 C 210.742 74.154,210.667 73.889,210.667 73.747 C 210.667 73.605,210.554 73.446,210.417 73.394 C 210.279 73.341,210.167 73.156,210.167 72.982 C 210.167 72.809,210.092 72.667,210.000 72.667 C 209.908 72.667,209.833 72.485,209.833 72.262 C 209.833 72.039,209.721 71.745,209.583 71.607 C 209.446 71.470,209.333 71.202,209.333 71.012 C 209.333 70.822,209.258 70.667,209.167 70.667 C 209.075 70.667,209.000 70.479,209.000 70.250 C 209.000 70.021,208.925 69.833,208.833 69.833 C 208.742 69.833,208.667 69.681,208.667 69.495 C 208.667 69.309,208.554 69.113,208.417 69.060 C 208.279 69.008,208.167 68.789,208.167 68.575 C 208.167 68.361,208.092 68.140,208.000 68.083 C 207.908 68.027,207.833 67.795,207.833 67.568 C 207.833 67.342,207.721 67.113,207.583 67.060 C 207.446 67.008,207.333 66.785,207.333 66.566 C 207.333 66.346,207.258 66.167,207.167 66.167 C 207.075 66.167,207.000 66.021,207.000 65.843 C 207.000 65.665,206.925 65.473,206.833 65.417 C 206.742 65.360,206.667 65.176,206.667 65.008 C 206.667 64.840,206.554 64.659,206.417 64.606 C 206.271 64.550,206.167 64.301,206.167 64.005 C 206.167 63.727,206.092 63.500,206.000 63.500 C 205.908 63.500,205.833 63.313,205.833 63.083 C 205.833 62.824,205.739 62.667,205.583 62.667 C 205.428 62.667,205.333 62.509,205.333 62.250 C 205.333 62.021,205.258 61.833,205.167 61.833 C 205.075 61.833,205.000 61.721,205.000 61.583 C 205.000 61.250,192.365 61.201,192.033 61.533 M245.292 61.509 C 244.812 61.795,244.842 102.237,245.322 102.494 C 245.896 102.801,268.743 102.726,269.000 102.417 C 269.137 102.251,269.510 102.167,270.104 102.167 C 270.597 102.167,271.000 102.092,271.000 102.000 C 271.000 101.908,271.262 101.833,271.583 101.833 C 271.991 101.833,272.167 101.758,272.167 101.583 C 272.167 101.409,272.343 101.333,272.750 101.333 C 273.071 101.333,273.333 101.258,273.333 101.167 C 273.333 101.075,273.521 101.000,273.750 101.000 C 273.979 101.000,274.167 100.930,274.167 100.845 C 274.167 100.759,274.335 100.636,274.542 100.571 C 274.748 100.506,275.038 100.313,275.186 100.143 C 275.334 99.973,275.581 99.833,275.733 99.833 C 275.886 99.833,276.054 99.721,276.106 99.583 C 276.159 99.446,276.273 99.333,276.359 99.333 C 276.571 99.333,277.333 98.558,277.333 98.341 C 277.333 98.245,277.414 98.167,277.512 98.167 C 277.743 98.167,278.167 97.743,278.167 97.512 C 278.167 97.414,278.252 97.333,278.357 97.333 C 278.613 97.333,278.988 96.819,278.995 96.458 C 278.998 96.298,279.075 96.167,279.167 96.167 C 279.258 96.167,279.333 95.979,279.333 95.750 C 279.333 95.491,279.428 95.333,279.583 95.333 C 279.721 95.333,279.833 95.188,279.833 95.010 C 279.833 94.832,279.908 94.640,280.000 94.583 C 280.092 94.527,280.167 94.230,280.167 93.925 C 280.167 93.584,280.264 93.332,280.417 93.273 C 280.610 93.199,280.667 92.875,280.667 91.839 C 280.667 91.057,280.736 90.500,280.833 90.500 C 280.925 90.500,281.000 90.204,281.000 89.843 C 281.000 89.482,280.925 89.140,280.833 89.083 C 280.742 89.027,280.667 88.469,280.667 87.844 C 280.667 87.037,280.594 86.647,280.417 86.500 C 280.279 86.386,280.167 86.077,280.167 85.813 C 280.167 85.549,280.092 85.333,280.000 85.333 C 279.908 85.333,279.833 85.183,279.833 85.000 C 279.833 84.815,279.722 84.667,279.583 84.667 C 279.428 84.667,279.333 84.509,279.333 84.250 C 279.333 84.021,279.258 83.833,279.167 83.833 C 279.075 83.833,279.000 83.753,279.000 83.655 C 279.000 83.461,278.590 83.000,278.417 83.000 C 278.244 83.000,277.833 82.539,277.833 82.345 C 277.833 82.247,277.739 82.167,277.623 82.167 C 277.507 82.167,277.272 81.979,277.100 81.750 C 276.927 81.521,276.682 81.333,276.553 81.333 C 276.425 81.333,276.158 81.183,275.962 81.000 C 275.765 80.817,275.440 80.667,275.239 80.667 C 275.038 80.667,274.781 80.554,274.667 80.417 C 274.553 80.279,274.281 80.167,274.063 80.167 C 273.845 80.167,273.667 80.092,273.667 80.000 C 273.667 79.908,273.517 79.833,273.333 79.833 C 273.148 79.833,273.000 79.722,273.000 79.583 C 273.000 79.428,273.157 79.333,273.417 79.333 C 273.646 79.333,273.833 79.263,273.833 79.178 C 273.833 79.092,273.975 78.978,274.147 78.923 C 274.556 78.793,276.167 77.272,276.167 77.015 C 276.167 76.907,276.354 76.644,276.583 76.431 C 276.813 76.219,277.000 75.885,277.000 75.689 C 277.000 75.493,277.075 75.333,277.167 75.333 C 277.258 75.333,277.333 75.154,277.333 74.934 C 277.333 74.715,277.446 74.492,277.583 74.440 C 277.747 74.377,277.833 74.116,277.833 73.682 C 277.833 73.318,277.908 72.973,278.000 72.917 C 278.093 72.859,278.167 72.085,278.167 71.167 C 278.167 70.248,278.093 69.474,278.000 69.417 C 277.908 69.360,277.833 68.990,277.833 68.594 C 277.833 68.157,277.735 67.792,277.583 67.667 C 277.446 67.553,277.333 67.281,277.333 67.063 C 277.333 66.845,277.258 66.667,277.167 66.667 C 277.075 66.667,277.000 66.511,277.000 66.320 C 277.000 65.969,275.824 64.667,275.507 64.667 C 275.411 64.667,275.333 64.583,275.333 64.480 C 275.333 64.241,274.316 63.339,274.042 63.336 C 273.927 63.335,273.833 63.258,273.833 63.167 C 273.833 63.075,273.646 63.000,273.417 63.000 C 273.188 63.000,273.000 62.925,273.000 62.833 C 273.000 62.742,272.821 62.667,272.601 62.667 C 272.382 62.667,272.159 62.554,272.106 62.417 C 272.050 62.271,271.801 62.167,271.505 62.167 C 271.227 62.167,271.000 62.092,271.000 62.000 C 271.000 61.908,270.631 61.833,270.181 61.833 C 269.673 61.833,269.335 61.754,269.292 61.625 C 269.200 61.350,245.748 61.237,245.292 61.509 M287.447 61.442 C 287.185 61.704,287.319 90.128,287.583 90.393 C 287.751 90.560,287.833 90.978,287.833 91.655 C 287.833 92.218,287.907 92.667,288.000 92.667 C 288.092 92.667,288.167 92.969,288.167 93.339 C 288.167 93.782,288.252 94.043,288.417 94.106 C 288.554 94.159,288.667 94.382,288.667 94.601 C 288.667 94.821,288.742 95.000,288.833 95.000 C 288.925 95.000,289.000 95.188,289.000 95.417 C 289.000 95.646,289.075 95.833,289.167 95.833 C 289.258 95.833,289.333 95.986,289.333 96.172 C 289.333 96.358,289.446 96.554,289.583 96.606 C 289.721 96.659,289.833 96.844,289.833 97.018 C 289.833 97.191,289.908 97.333,290.000 97.333 C 290.092 97.333,290.167 97.446,290.167 97.583 C 290.167 97.721,290.247 97.833,290.345 97.833 C 290.539 97.833,291.000 98.244,291.000 98.417 C 291.000 98.556,291.444 99.000,291.583 99.000 C 291.756 99.000,292.167 99.461,292.167 99.655 C 292.167 99.753,292.245 99.833,292.341 99.833 C 292.437 99.833,292.703 100.021,292.932 100.250 C 293.161 100.479,293.458 100.667,293.591 100.667 C 293.724 100.667,293.834 100.723,293.835 100.792 C 293.836 100.937,294.639 101.333,294.932 101.333 C 295.041 101.333,295.174 101.446,295.227 101.583 C 295.280 101.721,295.513 101.833,295.745 101.833 C 295.977 101.833,296.167 101.908,296.167 102.000 C 296.167 102.092,296.360 102.167,296.595 102.167 C 296.831 102.167,297.136 102.279,297.274 102.417 C 297.411 102.554,297.781 102.667,298.095 102.667 C 298.410 102.667,298.667 102.742,298.667 102.833 C 298.667 102.926,299.111 103.000,299.667 103.000 C 300.222 103.000,300.667 103.074,300.667 103.167 C 300.667 103.274,302.556 103.333,306.000 103.333 C 309.444 103.333,311.333 103.274,311.333 103.167 C 311.333 103.075,311.741 103.000,312.240 103.000 C 312.739 103.000,313.193 102.925,313.250 102.833 C 313.307 102.742,313.613 102.667,313.932 102.667 C 314.292 102.667,314.547 102.572,314.606 102.417 C 314.666 102.262,314.919 102.167,315.268 102.167 C 315.579 102.167,315.833 102.092,315.833 102.000 C 315.833 101.908,315.986 101.833,316.172 101.833 C 316.358 101.833,316.554 101.721,316.606 101.583 C 316.659 101.446,316.844 101.333,317.018 101.333 C 317.191 101.333,317.333 101.258,317.333 101.167 C 317.333 101.075,317.493 101.000,317.689 101.000 C 317.885 101.000,318.219 100.813,318.431 100.583 C 318.644 100.354,318.901 100.167,319.002 100.167 C 319.202 100.167,321.333 98.117,321.333 97.925 C 321.333 97.862,321.427 97.705,321.542 97.577 C 322.036 97.026,322.167 96.837,322.167 96.674 C 322.167 96.578,322.223 96.500,322.292 96.499 C 322.483 96.497,323.000 95.514,323.000 95.153 C 323.000 94.977,323.075 94.833,323.167 94.833 C 323.258 94.833,323.333 94.618,323.333 94.354 C 323.333 94.090,323.446 93.781,323.583 93.667 C 323.727 93.548,323.833 93.184,323.833 92.813 C 323.833 92.457,323.908 92.167,324.000 92.167 C 324.099 92.167,324.167 91.532,324.167 90.597 C 324.167 89.490,324.228 89.007,324.375 88.958 C 324.539 88.904,324.583 85.994,324.583 75.153 L 324.583 61.417 318.833 61.417 L 313.083 61.417 313.041 75.659 C 313.013 84.820,312.939 89.961,312.832 90.068 C 312.741 90.159,312.667 90.473,312.667 90.766 C 312.667 91.085,312.567 91.336,312.417 91.394 C 312.279 91.446,312.167 91.642,312.167 91.828 C 312.167 92.014,312.092 92.167,312.000 92.167 C 311.908 92.167,311.833 92.354,311.833 92.583 C 311.833 92.813,311.753 93.000,311.655 93.000 C 311.439 93.000,311.000 93.418,311.000 93.624 C 311.000 93.705,310.737 93.874,310.417 94.000 C 310.096 94.126,309.833 94.327,309.833 94.448 C 309.833 94.587,309.621 94.667,309.250 94.667 C 308.929 94.667,308.667 94.742,308.667 94.833 C 308.667 94.938,307.642 95.000,305.927 95.000 C 304.280 95.000,303.145 94.934,303.083 94.833 C 303.027 94.742,302.797 94.667,302.573 94.667 C 302.323 94.667,302.167 94.571,302.167 94.417 C 302.167 94.278,302.018 94.167,301.833 94.167 C 301.457 94.167,300.371 93.119,299.997 92.395 C 299.862 92.132,299.657 91.857,299.542 91.783 C 299.427 91.710,299.333 91.429,299.333 91.158 C 299.333 90.888,299.258 90.667,299.167 90.667 C 299.071 90.667,299.000 90.150,299.000 89.450 C 299.000 88.781,298.925 88.159,298.834 88.068 C 298.728 87.961,298.653 83.154,298.626 74.659 L 298.583 61.417 293.072 61.373 C 290.040 61.349,287.509 61.380,287.447 61.442 M333.708 61.443 C 333.543 61.510,333.500 65.781,333.500 82.011 L 333.500 102.494 333.875 102.584 C 334.081 102.634,340.887 102.654,349.000 102.629 L 363.750 102.583 363.795 98.375 L 363.839 94.167 354.420 94.167 L 345.002 94.167 344.959 77.792 L 344.917 61.417 339.417 61.387 C 336.392 61.371,333.823 61.396,333.708 61.443 M369.292 61.512 C 368.812 61.794,368.842 102.237,369.322 102.494 C 369.538 102.609,374.575 102.667,384.489 102.667 L 399.333 102.667 399.333 98.417 L 399.333 94.167 390.001 94.167 L 380.668 94.167 380.626 77.792 L 380.583 61.417 375.083 61.379 C 371.552 61.355,369.479 61.402,369.292 61.512 M260.699 69.283 C 263.119 69.342,263.858 69.412,264.011 69.596 C 264.119 69.727,264.348 69.833,264.520 69.833 C 264.926 69.833,266.167 71.074,266.167 71.480 C 266.167 71.652,266.279 71.886,266.417 72.000 C 266.586 72.141,266.667 72.518,266.667 73.169 C 266.667 73.870,266.599 74.157,266.417 74.227 C 266.271 74.283,266.167 74.533,266.167 74.828 C 266.167 75.106,266.092 75.333,266.000 75.333 C 265.908 75.333,265.833 75.446,265.833 75.583 C 265.833 75.721,265.721 75.833,265.583 75.833 C 265.446 75.833,265.333 75.908,265.333 76.000 C 265.333 76.092,265.183 76.167,265.000 76.167 C 264.815 76.167,264.667 76.278,264.667 76.417 C 264.667 76.572,264.509 76.667,264.250 76.667 C 264.021 76.667,263.833 76.736,263.833 76.822 C 263.833 76.907,262.690 77.016,261.292 77.065 C 259.894 77.114,258.281 77.201,257.708 77.259 L 256.667 77.363 256.667 73.162 L 256.667 68.961 257.125 69.085 C 257.377 69.152,258.985 69.242,260.699 69.283 M262.247 85.269 C 265.082 85.332,265.770 85.393,265.880 85.590 C 265.955 85.724,266.238 85.833,266.508 85.833 C 266.779 85.833,267.000 85.908,267.000 86.000 C 267.000 86.092,267.080 86.167,267.179 86.167 C 267.277 86.167,267.456 86.260,267.577 86.375 C 267.698 86.490,267.992 86.725,268.232 86.898 C 268.471 87.072,268.667 87.353,268.667 87.523 C 268.667 87.694,268.742 87.833,268.833 87.833 C 268.935 87.833,269.000 88.611,269.000 89.833 C 269.000 91.056,268.935 91.833,268.833 91.833 C 268.742 91.833,268.667 92.021,268.667 92.250 C 268.667 92.479,268.588 92.667,268.492 92.667 C 268.397 92.667,268.138 92.835,267.917 93.042 C 267.249 93.667,267.022 93.833,266.840 93.833 C 266.745 93.833,266.667 93.908,266.667 94.000 C 266.667 94.092,266.412 94.167,266.101 94.167 C 265.767 94.167,265.499 94.263,265.445 94.403 C 265.374 94.588,264.738 94.660,262.469 94.737 C 260.882 94.790,258.927 94.877,258.125 94.929 L 256.667 95.024 256.667 89.997 L 256.667 84.970 257.708 85.081 C 258.281 85.142,260.324 85.226,262.247 85.269 " stroke="none" fill="#fcfcfc" fill-rule="evenodd"></path><path id="path2" d="M69.336 2.131 C 68.812 2.556,68.982 3.192,69.747 3.665 C 70.716 4.264,72.474 6.326,73.113 7.616 C 74.589 10.590,73.501 12.017,69.000 13.009 C 66.668 13.523,66.418 14.224,67.453 17.333 C 68.601 20.780,69.612 21.609,72.483 21.458 C 79.995 21.063,84.509 14.848,81.589 8.920 C 80.096 5.887,75.505 2.802,71.530 2.159 C 71.009 2.075,70.389 1.964,70.152 1.912 C 69.868 1.851,69.590 1.925,69.336 2.131 M40.417 2.821 C 36.424 4.227,34.376 5.671,32.654 8.293 C 28.837 14.104,33.472 21.869,40.519 21.471 C 42.030 21.385,42.056 21.353,43.504 17.833 C 45.012 14.167,44.970 13.333,43.279 13.333 C 38.245 13.333,37.548 9.414,41.792 4.969 C 44.185 2.462,43.679 1.672,40.417 2.821 M72.667 2.945 C 80.795 5.162,84.661 13.048,79.927 17.754 C 78.049 19.620,74.902 20.873,72.045 20.892 C 69.708 20.908,69.253 20.518,68.089 17.500 C 66.945 14.530,67.113 14.024,69.423 13.490 C 73.006 12.662,74.083 11.759,74.083 9.583 C 74.083 7.642,73.109 5.947,70.767 3.814 C 69.405 2.574,70.114 2.249,72.667 2.945 M42.500 3.242 C 42.500 3.375,41.967 4.031,41.317 4.700 C 38.610 7.483,37.798 9.694,38.768 11.640 C 39.452 13.012,40.002 13.283,43.500 13.969 C 44.257 14.117,44.341 14.666,43.777 15.779 C 43.553 16.223,43.130 17.223,42.838 18.001 C 42.546 18.780,42.232 19.617,42.139 19.863 C 41.363 21.910,36.994 21.084,34.180 18.357 C 30.222 14.523,31.022 9.267,36.143 5.460 C 38.166 3.956,42.500 2.444,42.500 3.242 M52.278 10.778 C 52.217 10.839,52.167 11.140,52.167 11.448 C 52.167 12.104,52.056 12.167,50.031 12.669 C 46.898 13.446,45.167 14.717,44.679 16.601 C 44.563 17.049,44.328 17.760,44.158 18.179 C 43.099 20.792,41.900 26.348,42.179 27.357 C 42.281 27.730,42.198 27.897,41.636 28.441 C 39.837 30.181,38.996 36.195,40.206 38.671 C 41.068 40.436,43.914 43.112,45.750 43.885 C 47.999 44.831,48.540 44.912,52.417 44.892 C 58.407 44.861,60.793 43.914,62.135 41.033 C 62.942 39.300,62.755 34.643,61.791 32.466 C 61.678 32.210,61.529 32.000,61.459 32.000 C 61.390 32.000,61.333 31.920,61.333 31.821 C 61.333 31.723,61.240 31.544,61.125 31.423 C 61.010 31.302,60.767 30.989,60.583 30.728 C 60.101 30.039,59.042 29.065,58.083 28.427 C 57.342 27.934,56.826 27.673,55.333 27.034 L 54.917 26.856 55.333 26.846 C 59.787 26.745,64.282 33.976,63.218 39.528 C 62.893 41.221,62.975 41.438,63.879 41.268 C 64.619 41.129,66.292 40.113,67.429 39.110 C 70.914 36.037,70.869 27.377,67.325 19.245 C 66.847 18.148,66.209 16.587,65.909 15.776 C 65.608 14.966,65.207 14.137,65.016 13.934 C 64.149 13.010,61.239 12.025,59.325 12.006 C 58.642 11.999,58.333 11.756,58.333 11.227 C 58.333 10.444,57.709 10.581,56.420 11.647 C 55.403 12.488,55.061 12.502,54.324 11.736 C 53.495 10.873,52.601 10.454,52.278 10.778 M50.091 16.076 C 51.365 17.350,49.158 19.319,46.678 19.120 C 44.752 18.965,44.343 18.002,45.891 17.269 C 46.364 17.045,47.310 16.593,47.995 16.264 C 49.474 15.555,49.562 15.547,50.091 16.076 M58.388 16.912 C 59.064 17.139,60.359 17.413,61.267 17.521 C 63.016 17.729,63.333 17.856,63.333 18.348 C 63.333 19.513,58.433 19.480,56.710 18.302 C 54.766 16.974,55.863 16.065,58.388 16.912 M113.185 19.927 C 112.160 20.789,108.194 22.263,105.833 22.659 C 104.156 22.941,104.045 22.977,103.922 23.290 C 103.859 23.451,103.545 24.446,103.225 25.500 C 102.906 26.554,102.391 27.979,102.082 28.667 C 100.488 32.212,100.072 35.981,100.922 39.155 C 101.336 40.700,101.675 41.424,103.230 44.083 C 104.068 45.515,104.258 46.022,104.107 46.416 C 103.615 47.697,100.100 43.718,99.244 40.911 C 98.585 38.751,97.964 38.429,95.356 38.897 C 92.149 39.471,90.064 41.314,87.984 45.412 C 87.395 46.574,86.941 47.272,86.752 47.308 C 86.223 47.412,86.488 45.301,87.174 43.952 C 88.065 42.198,87.734 42.029,85.001 42.841 C 82.088 43.706,80.817 44.580,79.163 46.854 C 78.696 47.496,78.238 47.996,78.145 47.965 C 77.936 47.895,77.940 47.977,78.083 46.648 C 78.198 45.572,78.179 45.496,77.279 43.373 C 76.421 41.349,73.667 33.696,73.667 33.336 C 73.667 33.013,72.632 30.582,72.444 30.462 C 72.038 30.205,71.833 30.888,71.833 32.497 C 71.833 37.612,69.299 40.995,62.750 44.622 C 58.649 46.893,58.304 47.039,56.175 47.406 C 51.929 48.139,48.382 47.304,44.935 44.760 C 43.012 43.341,42.979 43.344,42.193 45.048 C 41.452 46.650,40.148 48.061,38.250 49.314 C 36.882 50.216,36.179 50.279,33.250 49.763 C 28.833 48.984,24.233 50.401,21.308 53.443 C 19.646 55.172,19.162 56.121,18.134 59.667 L 17.917 60.417 16.835 60.536 C 12.507 61.013,9.248 65.237,6.071 74.486 C 5.650 75.714,5.436 76.056,4.359 77.230 C 2.097 79.694,2.205 81.094,4.809 83.047 C 6.106 84.020,7.446 85.388,8.326 86.639 C 10.503 89.735,14.143 92.192,18.710 93.648 C 21.229 94.451,21.833 94.300,21.833 92.867 C 21.834 91.917,24.312 87.527,26.097 85.316 C 27.363 83.749,27.373 83.659,26.487 81.825 C 23.988 76.652,20.071 73.714,15.587 73.650 C 12.647 73.608,12.858 72.374,15.833 72.207 C 18.972 72.030,22.617 73.680,25.115 76.408 C 26.161 77.550,26.337 77.552,27.676 76.446 C 28.986 75.363,29.309 74.833,29.047 74.199 C 28.945 73.952,28.660 73.271,28.414 72.685 C 26.976 69.255,27.428 62.925,29.327 59.917 C 30.647 57.824,32.438 56.021,34.039 55.172 C 35.256 54.527,35.172 54.895,33.783 56.295 C 29.684 60.427,28.696 63.875,30.023 69.416 C 30.941 73.250,34.126 75.799,39.612 77.092 C 42.017 77.659,41.881 77.599,41.668 77.998 C 41.405 78.489,38.990 78.471,37.057 77.964 C 34.533 77.302,34.435 78.029,36.255 83.917 C 36.864 85.889,37.272 87.558,37.897 90.634 C 38.391 93.065,38.682 93.784,39.262 94.005 C 41.305 94.781,60.805 94.871,69.079 94.142 C 71.651 93.915,71.868 93.774,72.489 91.917 C 73.619 88.536,74.381 87.248,75.551 86.737 C 81.298 84.223,88.992 77.204,91.576 72.118 C 92.489 70.320,92.320 70.212,89.483 70.770 C 88.093 71.043,86.463 71.217,84.500 71.301 C 81.041 71.449,80.493 71.637,79.241 73.102 C 77.012 75.711,72.561 78.015,68.755 78.530 C 67.171 78.744,60.617 78.624,59.984 78.369 C 58.957 77.955,58.938 76.556,59.961 76.729 C 71.362 78.662,79.311 73.776,79.924 64.459 C 80.052 62.516,80.093 62.476,81.081 63.331 C 82.504 64.563,83.133 63.887,84.946 59.175 C 86.039 56.332,86.802 55.326,87.405 55.929 C 88.333 56.857,86.601 61.207,83.827 64.916 C 80.727 69.058,80.902 69.590,85.319 69.459 C 94.170 69.195,103.039 65.156,110.863 57.825 C 113.257 55.582,113.894 55.077,114.973 54.566 C 117.988 53.138,118.666 52.764,120.160 51.703 C 123.805 49.114,123.841 48.972,121.702 45.704 L 120.750 44.250 120.653 40.500 C 120.503 34.745,119.244 29.762,116.312 23.317 C 114.537 19.416,114.212 19.063,113.185 19.927 M48.130 20.093 C 48.857 20.602,48.447 22.000,47.569 22.000 C 46.715 22.000,46.348 20.819,47.000 20.167 C 47.401 19.766,47.640 19.750,48.130 20.093 M49.775 22.548 C 49.599 24.043,48.742 25.098,47.371 25.508 C 45.205 26.157,43.814 23.231,45.407 21.379 L 45.788 20.936 45.998 21.343 C 46.831 22.955,48.596 22.892,49.197 21.228 L 49.412 20.633 49.641 21.191 C 49.784 21.542,49.834 22.047,49.775 22.548 M59.405 20.929 C 60.140 21.664,59.277 22.829,58.415 22.265 C 57.973 21.975,57.833 21.540,58.020 21.035 C 58.185 20.589,59.002 20.526,59.405 20.929 M60.886 20.967 C 62.682 22.951,60.918 26.802,58.707 25.722 C 57.526 25.145,56.706 22.473,57.792 22.741 C 58.898 23.013,59.217 23.029,59.586 22.832 C 60.031 22.594,60.377 21.885,60.329 21.307 C 60.267 20.560,60.429 20.461,60.886 20.967 M69.924 22.224 C 68.957 22.931,70.193 23.788,72.833 24.243 C 73.704 24.393,75.129 24.638,76.000 24.788 C 79.670 25.418,79.840 25.510,77.167 25.418 C 75.837 25.372,74.262 25.224,73.667 25.090 C 71.077 24.505,70.710 24.953,71.883 27.267 C 72.873 29.220,74.510 30.041,77.417 30.041 C 82.039 30.041,85.884 27.533,83.753 25.908 C 83.265 25.535,83.201 25.414,83.347 25.140 C 83.825 24.247,81.752 23.586,75.833 22.745 C 74.779 22.595,73.365 22.366,72.691 22.236 C 71.154 21.940,70.317 21.937,69.924 22.224 M37.833 22.785 C 32.277 23.760,29.757 24.741,29.741 25.937 C 29.736 26.293,29.676 26.748,29.608 26.950 C 28.943 28.902,35.484 30.945,38.304 29.666 C 39.955 28.916,41.000 27.446,41.000 25.871 C 41.000 24.650,41.037 24.650,35.370 25.867 C 34.704 26.010,34.442 26.008,34.295 25.861 C 34.146 25.713,34.177 25.666,34.425 25.665 C 34.887 25.664,38.033 24.574,39.020 24.073 C 40.754 23.195,40.023 22.401,37.833 22.785 M73.417 22.924 C 74.425 23.064,75.850 23.242,76.583 23.320 C 78.393 23.512,80.152 23.941,80.753 24.337 L 81.250 24.664 80.000 24.665 C 79.313 24.666,78.112 24.548,77.333 24.405 C 76.554 24.261,75.429 24.080,74.833 24.004 C 74.237 23.927,73.337 23.775,72.833 23.667 C 72.329 23.558,71.767 23.439,71.583 23.403 C 71.077 23.302,70.777 23.059,70.905 22.852 C 71.052 22.614,71.217 22.619,73.417 22.924 M38.235 23.562 C 38.033 24.089,32.466 25.833,30.989 25.833 C 30.351 25.833,30.687 25.385,31.682 24.910 C 33.731 23.930,38.468 22.956,38.235 23.562 M40.433 25.757 C 40.720 26.898,39.282 28.834,37.746 29.376 C 35.667 30.109,31.312 29.139,30.394 27.739 C 29.923 27.021,30.287 26.860,32.838 26.658 C 35.116 26.477,37.824 26.003,38.959 25.586 C 39.939 25.226,40.311 25.269,40.433 25.757 M73.501 25.505 C 74.712 25.862,77.820 26.167,80.256 26.167 C 84.475 26.167,85.045 27.060,81.842 28.656 C 77.971 30.585,73.743 29.806,72.313 26.900 C 71.594 25.441,71.933 25.043,73.501 25.505 M47.958 26.619 C 47.706 26.658,47.294 26.658,47.042 26.619 C 46.790 26.581,46.996 26.550,47.500 26.550 C 48.004 26.550,48.210 26.581,47.958 26.619 M54.854 27.684 C 59.499 28.971,62.360 33.001,62.119 37.917 C 61.877 42.866,59.621 44.373,52.417 44.402 C 48.308 44.418,47.666 44.298,45.328 43.069 C 43.704 42.215,41.043 39.472,40.489 38.079 C 39.537 35.684,40.464 29.927,41.974 28.852 C 44.006 27.405,51.422 26.732,54.854 27.684 M52.628 29.676 C 51.421 30.314,51.166 31.533,52.054 32.420 C 53.751 34.118,56.504 32.270,55.415 30.163 C 54.952 29.268,53.787 29.064,52.628 29.676 M43.000 30.167 C 42.345 30.821,42.660 32.626,43.536 33.240 C 44.755 34.094,46.337 32.611,45.834 31.086 C 45.446 29.909,43.794 29.373,43.000 30.167 M54.821 30.272 C 55.808 31.528,54.352 33.111,52.875 32.388 C 52.038 31.979,51.809 31.337,52.275 30.708 C 52.992 29.743,54.237 29.530,54.821 30.272 M44.655 30.411 C 45.424 30.808,45.614 32.052,45.000 32.667 C 44.545 33.122,44.227 33.086,43.654 32.513 C 42.555 31.414,43.354 29.738,44.655 30.411 M123.375 39.750 C 123.377 40.117,123.411 40.247,123.451 40.040 C 123.491 39.832,123.490 39.532,123.448 39.373 C 123.406 39.214,123.374 39.383,123.375 39.750 M47.548 40.017 C 47.749 40.134,47.994 40.136,48.298 40.025 C 48.715 39.872,48.692 39.859,48.000 39.852 C 47.403 39.845,47.311 39.879,47.548 40.017 M72.000 52.142 C 72.000 52.303,69.914 52.616,67.417 52.831 C 66.500 52.910,65.563 53.012,65.333 53.059 C 63.106 53.513,61.672 53.686,61.398 53.533 C 61.140 53.388,61.194 53.347,61.755 53.261 C 62.119 53.206,62.754 53.090,63.167 53.003 C 63.579 52.917,64.704 52.724,65.667 52.576 C 66.629 52.427,67.754 52.245,68.167 52.171 C 69.194 51.988,72.000 51.967,72.000 52.142 M50.333 54.907 C 51.228 55.756,51.586 55.886,52.691 55.761 C 53.854 55.629,53.875 55.692,52.965 56.619 C 51.995 57.607,51.634 57.545,50.999 56.278 C 50.869 56.018,50.250 55.445,49.623 55.003 C 48.978 54.549,48.577 54.167,48.700 54.124 C 49.053 54.000,49.710 54.315,50.333 54.907 M53.548 59.054 C 54.197 59.794,55.096 61.743,55.828 64.000 C 56.515 66.115,56.704 66.325,57.917 66.332 C 58.943 66.338,62.404 66.798,63.421 67.063 C 66.886 67.968,66.260 69.762,61.213 73.384 C 58.415 75.393,58.082 76.165,59.071 78.355 C 59.529 79.370,60.145 82.797,60.288 85.126 C 60.485 88.345,59.279 88.170,52.731 84.031 C 49.518 81.999,49.961 82.031,47.743 83.679 C 44.239 86.285,42.074 87.061,41.585 85.888 C 41.046 84.596,41.358 81.394,42.332 78.223 C 42.505 77.658,42.698 76.743,42.761 76.189 L 42.875 75.182 41.717 74.049 C 38.802 71.196,37.609 68.689,38.715 67.738 C 39.414 67.136,41.620 66.611,44.985 66.244 C 46.275 66.104,46.492 65.916,47.491 64.083 C 48.438 62.346,49.577 60.811,50.781 59.646 C 52.319 58.158,52.691 58.078,53.548 59.054 M76.167 122.270 C 75.662 122.508,74.500 122.988,73.583 123.337 C 72.667 123.685,71.271 124.232,70.481 124.551 C 69.075 125.119,67.233 125.545,65.261 125.758 C 63.032 125.999,63.015 126.239,65.083 128.229 C 66.767 129.848,66.938 130.206,66.397 130.978 C 65.685 131.994,66.273 135.815,67.404 137.526 C 69.297 140.389,70.122 141.165,71.045 140.951 C 74.039 140.257,77.819 139.204,78.695 138.820 C 79.306 138.552,79.964 138.333,80.158 138.333 C 80.352 138.333,80.782 138.220,81.113 138.082 L 81.716 137.830 81.618 136.373 C 81.393 133.018,79.723 129.243,77.912 127.997 C 77.095 127.434,76.975 126.946,77.336 125.647 C 77.633 124.577,77.815 122.641,77.658 122.227 C 77.469 121.731,77.297 121.735,76.167 122.270 M37.005 124.296 C 35.838 125.240,35.814 128.939,36.962 130.922 C 37.969 132.662,37.983 132.742,37.387 133.364 C 36.979 133.791,36.927 133.999,36.781 135.826 C 36.583 138.283,36.654 138.435,38.280 139.051 L 39.417 139.482 37.893 139.491 C 36.072 139.502,35.720 139.705,35.397 140.932 C 34.711 143.534,35.612 144.667,38.366 144.667 C 38.507 144.667,39.400 144.930,40.352 145.253 C 44.180 146.549,46.705 146.928,47.283 146.292 C 47.622 145.918,48.333 143.891,48.333 143.297 C 48.333 142.441,47.230 141.500,46.225 141.500 C 46.078 141.500,45.385 141.319,44.687 141.097 C 43.988 140.875,43.079 140.604,42.667 140.493 C 42.254 140.383,41.729 140.227,41.500 140.146 C 40.715 139.868,43.871 140.215,46.167 140.659 C 48.699 141.149,48.622 141.192,49.449 138.833 C 50.765 135.079,50.076 130.765,48.082 130.264 C 47.302 130.069,47.610 129.453,49.695 127.036 C 51.149 125.349,50.281 125.022,43.417 124.672 C 41.583 124.579,39.783 124.435,39.417 124.353 C 37.858 124.004,37.380 123.992,37.005 124.296 M79.000 139.518 C 78.404 139.691,77.026 140.066,75.936 140.350 C 74.054 140.842,71.009 141.986,70.524 142.384 C 69.995 142.819,69.973 143.351,70.432 144.611 C 71.267 146.899,71.803 147.075,74.903 146.078 C 75.903 145.756,77.891 145.150,79.319 144.732 C 82.979 143.660,83.081 143.550,82.654 141.161 C 82.283 139.086,81.577 138.768,79.000 139.518 M40.627 139.781 C 40.468 139.823,40.168 139.824,39.960 139.785 C 39.753 139.745,39.883 139.711,40.250 139.709 C 40.617 139.707,40.786 139.739,40.627 139.781 M81.743 139.992 C 82.662 141.008,82.416 143.328,81.363 143.574 C 80.595 143.754,74.794 145.514,73.869 145.848 C 72.202 146.450,71.741 146.274,71.089 144.787 C 70.201 142.763,70.402 142.598,75.644 141.057 C 80.633 139.589,81.277 139.477,81.743 139.992 M39.500 140.349 C 40.188 140.536,41.950 140.986,43.417 141.349 C 47.322 142.315,47.311 142.311,47.603 142.756 C 47.850 143.134,47.848 143.250,47.574 144.263 C 47.090 146.051,46.581 146.433,45.233 146.018 C 44.967 145.936,44.300 145.776,43.750 145.661 C 43.200 145.547,41.925 145.189,40.917 144.867 C 39.908 144.544,38.454 144.161,37.684 144.015 C 35.778 143.654,35.517 143.333,35.816 141.712 C 36.156 139.866,36.823 139.619,39.500 140.349 " stroke="none" fill="#7c4c24" fill-rule="evenodd"></path><path id="path3" d="M42.462 0.093 C 42.411 0.144,41.817 0.327,41.143 0.499 C 39.248 0.981,38.597 1.185,38.425 1.349 C 38.338 1.432,38.133 1.500,37.970 1.500 C 37.807 1.500,37.278 1.749,36.795 2.053 C 36.312 2.357,35.579 2.762,35.167 2.952 C 34.432 3.291,31.167 6.304,31.167 6.642 C 31.167 6.734,31.073 6.910,30.958 7.033 C 30.759 7.246,30.261 8.091,29.971 8.708 C 29.895 8.869,29.758 9.149,29.667 9.331 C 29.575 9.513,29.500 9.798,29.500 9.964 C 29.500 10.131,29.435 10.338,29.356 10.425 C 29.066 10.743,28.629 12.803,28.717 13.439 C 28.886 14.673,29.151 15.629,29.491 16.234 C 29.679 16.569,29.833 16.944,29.833 17.067 C 29.833 17.987,32.530 21.333,33.271 21.333 C 33.397 21.333,33.449 21.440,33.394 21.583 C 33.341 21.721,33.155 21.833,32.981 21.833 C 32.807 21.833,32.276 22.021,31.801 22.250 C 31.326 22.479,30.842 22.667,30.725 22.667 C 30.281 22.667,27.548 24.184,27.031 24.718 C 26.447 25.321,26.092 26.831,26.479 27.071 C 26.582 27.134,26.667 27.314,26.667 27.470 C 26.667 27.626,26.854 27.956,27.083 28.203 C 27.313 28.450,27.500 28.722,27.500 28.807 C 27.500 29.038,28.799 30.167,29.066 30.167 C 29.193 30.167,29.335 30.260,29.381 30.375 C 29.592 30.900,32.130 31.867,34.167 32.198 C 36.159 32.521,36.399 32.532,37.022 32.326 C 37.947 32.021,38.027 32.535,37.298 34.104 C 37.207 34.298,37.177 34.860,37.229 35.354 C 37.485 37.734,37.541 38.094,37.682 38.242 C 37.765 38.329,37.833 38.574,37.833 38.787 C 37.833 38.999,38.021 39.470,38.250 39.833 C 38.479 40.196,38.667 40.570,38.667 40.663 C 38.667 40.757,38.742 40.833,38.833 40.833 C 38.925 40.833,39.000 40.919,39.000 41.025 C 39.000 41.130,39.262 41.536,39.583 41.928 C 40.175 42.649,40.290 43.104,40.014 43.627 C 39.930 43.786,39.746 44.182,39.606 44.507 C 38.767 46.446,35.816 48.152,34.743 47.318 C 34.647 47.244,33.769 47.064,32.792 46.919 C 30.707 46.610,28.684 46.759,27.250 47.329 C 27.067 47.402,26.579 47.559,26.167 47.677 C 25.754 47.795,25.345 47.953,25.258 48.029 C 25.171 48.105,24.942 48.167,24.749 48.167 C 24.555 48.167,24.251 48.277,24.074 48.411 C 23.896 48.546,23.615 48.658,23.449 48.661 C 23.147 48.667,20.465 50.296,20.361 50.537 C 20.331 50.609,20.204 50.667,20.081 50.667 C 19.957 50.667,19.569 51.023,19.219 51.458 C 18.870 51.893,18.477 52.361,18.348 52.497 C 18.059 52.801,17.141 54.267,16.885 54.833 C 16.782 55.063,16.503 55.658,16.265 56.158 C 16.028 56.657,15.833 57.226,15.833 57.421 C 15.833 57.771,15.473 58.037,14.708 58.251 C 14.502 58.309,14.333 58.426,14.333 58.511 C 14.333 58.597,14.199 58.667,14.035 58.667 C 12.923 58.667,7.833 62.893,7.833 63.817 C 7.833 63.917,7.772 64.000,7.697 64.000 C 7.623 64.000,7.379 64.313,7.156 64.696 C 6.933 65.078,6.582 65.660,6.376 65.987 C 6.171 66.315,5.958 66.696,5.904 66.833 C 5.850 66.971,5.559 67.571,5.257 68.167 C 4.956 68.762,4.615 69.550,4.500 69.917 C 4.384 70.283,4.235 70.658,4.168 70.750 C 4.101 70.842,3.916 71.367,3.758 71.917 C 3.600 72.467,3.365 73.116,3.235 73.359 C 3.106 73.602,3.000 73.928,3.000 74.083 C 3.000 74.481,2.438 75.233,1.132 76.583 L 0.004 77.750 0.002 79.897 C 0.000 81.733,0.042 82.083,0.293 82.314 C 0.454 82.462,0.698 82.806,0.834 83.077 C 0.971 83.349,1.946 84.463,3.000 85.553 C 4.054 86.643,5.142 87.850,5.417 88.235 C 5.903 88.916,8.200 91.333,8.361 91.333 C 8.405 91.333,8.829 91.695,9.302 92.138 C 9.776 92.580,10.370 93.049,10.623 93.179 C 10.876 93.310,11.189 93.517,11.318 93.639 C 11.447 93.762,11.934 94.049,12.401 94.277 C 12.868 94.505,13.512 94.833,13.833 95.005 C 14.154 95.177,14.585 95.321,14.792 95.325 C 14.998 95.330,15.167 95.408,15.167 95.500 C 15.167 95.592,15.298 95.667,15.458 95.668 C 15.619 95.668,15.965 95.781,16.227 95.918 C 16.490 96.055,16.806 96.167,16.931 96.167 C 17.055 96.167,17.422 96.316,17.747 96.498 C 18.072 96.681,18.638 96.878,19.006 96.937 C 19.373 96.996,19.714 97.109,19.764 97.189 C 19.813 97.268,20.086 97.333,20.370 97.333 C 21.412 97.333,22.034 97.786,23.140 99.348 C 23.719 100.165,24.243 100.834,24.304 100.835 C 24.366 100.836,24.792 101.175,25.250 101.589 C 26.095 102.353,27.899 103.333,28.460 103.333 C 28.629 103.333,28.861 103.427,28.975 103.542 C 29.118 103.684,29.788 103.750,31.092 103.750 C 32.301 103.750,32.974 103.811,32.928 103.917 C 32.590 104.692,31.833 108.122,31.833 108.875 C 31.833 109.219,31.758 109.500,31.667 109.500 C 31.575 109.500,31.500 109.797,31.500 110.161 C 31.500 110.525,31.396 111.068,31.270 111.369 C 30.892 112.270,30.667 113.080,30.667 113.544 C 30.667 113.784,30.592 114.027,30.500 114.083 C 30.408 114.140,30.333 114.412,30.333 114.687 C 30.333 114.963,30.254 115.337,30.156 115.519 C 30.002 115.808,29.890 116.687,29.554 120.250 C 29.435 121.508,29.747 121.958,31.287 122.750 C 32.318 123.280,32.595 123.502,32.639 123.833 C 32.670 124.063,32.764 124.321,32.847 124.408 C 32.931 124.495,33.000 124.969,33.000 125.461 C 33.000 125.953,33.093 126.519,33.206 126.719 C 33.319 126.920,33.461 127.683,33.522 128.417 C 33.582 129.150,33.717 130.125,33.822 130.583 C 34.036 131.522,33.885 137.282,33.642 137.432 C 33.564 137.480,33.500 138.069,33.500 138.739 C 33.500 139.447,33.395 140.211,33.250 140.558 C 33.112 140.887,33.000 141.529,33.000 141.985 C 33.000 142.441,32.938 142.852,32.862 142.899 C 32.786 142.946,32.625 143.419,32.504 143.951 C 32.383 144.482,32.183 145.083,32.059 145.286 C 31.935 145.489,31.833 145.766,31.833 145.903 C 31.833 146.039,31.724 146.211,31.590 146.286 C 31.456 146.361,30.987 146.766,30.548 147.185 C 30.109 147.604,29.192 148.315,28.511 148.765 C 27.220 149.617,25.833 150.924,25.833 151.289 C 25.833 151.405,25.777 151.500,25.708 151.501 C 25.517 151.503,25.000 152.486,25.000 152.847 C 25.000 153.023,24.937 153.167,24.860 153.167 C 24.362 153.167,24.086 158.400,24.542 159.207 C 24.998 160.016,24.581 159.989,36.534 159.995 C 48.235 160.000,48.295 159.997,49.046 159.319 C 49.418 158.981,49.464 158.407,49.668 151.428 C 49.763 148.155,49.896 145.870,49.997 145.769 C 50.090 145.676,50.167 145.240,50.167 144.800 C 50.167 144.360,50.242 144.000,50.333 144.000 C 50.425 144.000,50.500 143.830,50.500 143.622 C 50.500 143.414,50.687 142.968,50.917 142.631 C 51.146 142.294,51.333 141.907,51.333 141.772 C 51.333 141.637,51.459 141.277,51.612 140.972 C 52.125 139.946,52.167 139.839,52.167 139.528 C 52.167 139.358,52.308 139.091,52.480 138.935 C 53.301 138.192,53.210 133.923,52.327 131.750 C 52.252 131.567,52.147 131.079,52.094 130.667 C 52.040 130.254,51.951 129.629,51.895 129.276 C 51.798 128.666,51.998 128.014,52.417 127.575 C 52.508 127.479,53.033 127.263,53.583 127.095 C 54.793 126.726,55.333 126.276,55.333 125.638 C 55.333 125.330,55.420 125.167,55.583 125.167 C 55.735 125.167,55.833 125.321,55.833 125.558 C 55.833 125.774,56.059 126.261,56.334 126.642 L 56.835 127.333 58.266 127.333 C 59.660 127.333,59.714 127.348,60.379 127.917 C 60.753 128.238,61.132 128.500,61.219 128.500 C 61.385 128.500,61.877 129.017,62.637 129.987 C 63.072 130.542,63.084 130.621,63.109 133.015 C 63.125 134.466,63.221 135.735,63.345 136.112 C 63.691 137.168,63.909 137.667,64.023 137.667 C 64.082 137.667,64.178 137.854,64.235 138.083 C 64.293 138.312,64.413 138.500,64.503 138.500 C 64.593 138.500,64.667 138.635,64.667 138.800 C 64.667 138.965,65.047 139.572,65.513 140.150 C 67.290 142.355,68.969 145.608,69.119 147.133 C 69.170 147.656,69.295 148.189,69.398 148.317 C 69.746 148.756,70.028 150.414,70.164 152.833 C 70.239 154.162,70.381 155.775,70.480 156.417 C 70.579 157.058,70.662 157.923,70.663 158.338 C 70.667 159.141,70.862 159.410,71.716 159.792 C 72.345 160.073,90.300 160.094,91.072 159.815 C 92.497 159.298,92.861 156.340,91.767 154.172 C 91.557 153.757,91.186 153.023,90.942 152.543 C 90.699 152.062,90.500 151.556,90.500 151.418 C 90.500 151.280,90.425 151.167,90.333 151.167 C 90.242 151.167,90.167 151.071,90.167 150.955 C 90.167 150.838,89.490 150.070,88.662 149.247 C 87.185 147.777,86.500 146.803,86.500 146.171 C 86.500 145.996,86.425 145.807,86.333 145.750 C 86.242 145.693,86.167 145.514,86.167 145.352 C 86.167 145.189,85.979 144.688,85.751 144.237 C 85.522 143.786,85.333 143.192,85.330 142.917 C 85.328 142.642,85.167 141.442,84.974 140.250 C 84.781 139.058,84.589 137.596,84.548 137.000 C 84.507 136.404,84.404 135.845,84.320 135.758 C 84.236 135.671,84.167 135.099,84.167 134.487 C 84.167 133.395,83.878 132.398,83.147 130.961 C 83.066 130.801,83.000 130.564,83.000 130.432 C 83.000 130.182,82.861 129.881,81.806 127.853 C 81.645 127.543,81.304 127.051,81.048 126.760 C 80.361 125.977,80.123 125.506,80.301 125.279 C 80.385 125.171,80.503 124.308,80.562 123.361 C 80.681 121.463,81.039 120.500,81.626 120.500 C 81.708 120.500,81.938 120.326,82.138 120.114 C 82.527 119.700,82.691 117.500,82.333 117.500 C 82.242 117.500,82.167 117.204,82.167 116.843 C 82.167 116.482,82.097 116.143,82.011 116.090 C 81.925 116.037,81.736 115.564,81.591 115.039 C 81.446 114.513,81.253 113.953,81.163 113.794 C 81.074 113.635,80.997 113.297,80.994 113.044 C 80.991 112.791,80.881 112.396,80.750 112.167 C 80.619 111.938,80.509 111.511,80.506 111.218 C 80.503 110.926,80.425 110.640,80.333 110.583 C 80.242 110.527,80.166 110.241,80.166 109.948 C 80.165 109.656,80.067 109.229,79.947 109.000 C 79.828 108.771,79.636 108.096,79.521 107.500 C 79.277 106.228,78.821 104.650,78.632 104.425 C 78.560 104.338,78.500 104.099,78.500 103.893 C 78.500 103.688,78.425 103.473,78.333 103.417 C 78.242 103.360,78.167 103.091,78.167 102.818 C 78.167 102.546,78.054 102.053,77.917 101.724 C 77.779 101.395,77.667 100.915,77.667 100.656 C 77.667 100.398,77.600 100.145,77.519 100.095 C 77.438 100.045,77.322 99.671,77.261 99.264 C 77.200 98.857,77.004 98.338,76.825 98.110 C 76.646 97.883,76.500 97.470,76.500 97.192 C 76.500 96.914,76.425 96.640,76.333 96.583 C 76.242 96.527,76.167 95.923,76.167 95.243 C 76.167 94.118,76.123 93.957,75.693 93.475 L 75.219 92.945 75.534 91.931 C 75.708 91.373,75.921 90.845,76.008 90.758 C 76.095 90.671,76.167 90.503,76.167 90.385 C 76.167 89.973,76.758 89.479,77.948 88.897 C 78.607 88.575,79.450 88.092,79.822 87.823 C 80.193 87.553,80.573 87.333,80.665 87.333 C 80.758 87.333,80.833 87.267,80.833 87.186 C 80.833 87.105,80.965 86.991,81.125 86.933 C 81.554 86.779,82.015 86.484,82.782 85.875 C 83.158 85.577,83.530 85.333,83.609 85.333 C 83.688 85.333,83.956 85.146,84.203 84.917 C 84.450 84.687,84.716 84.500,84.794 84.500 C 84.990 84.500,90.147 79.402,90.757 78.606 C 91.346 77.837,91.715 77.393,92.229 76.833 C 92.440 76.604,92.707 76.239,92.823 76.022 C 92.938 75.805,93.345 75.205,93.726 74.689 C 94.107 74.172,94.634 73.300,94.896 72.750 C 95.735 70.992,95.873 70.756,96.232 70.462 C 96.425 70.304,96.770 70.172,96.998 70.170 C 97.415 70.167,99.202 69.357,99.306 69.125 C 99.336 69.056,99.510 69.000,99.692 69.000 C 99.875 69.000,100.136 68.887,100.274 68.750 C 100.411 68.612,100.664 68.500,100.835 68.500 C 101.007 68.500,101.193 68.425,101.250 68.333 C 101.307 68.242,101.481 68.167,101.638 68.167 C 101.794 68.167,102.199 67.979,102.536 67.750 C 102.873 67.521,103.265 67.333,103.408 67.333 C 103.550 67.333,103.667 67.266,103.667 67.185 C 103.667 67.103,103.854 66.989,104.083 66.932 C 104.313 66.874,104.500 66.753,104.500 66.663 C 104.500 66.574,104.622 66.500,104.772 66.500 C 104.921 66.500,105.409 66.238,105.855 65.917 C 106.302 65.596,106.724 65.333,106.794 65.333 C 106.863 65.333,107.122 65.146,107.369 64.917 C 107.617 64.687,107.868 64.500,107.929 64.500 C 108.200 64.500,109.868 63.151,111.113 61.925 C 114.402 58.687,115.474 57.728,116.172 57.397 C 119.694 55.729,121.473 54.723,121.639 54.306 C 121.669 54.229,121.798 54.167,121.924 54.167 C 122.201 54.167,125.002 51.865,125.871 50.923 C 126.494 50.247,126.850 48.000,126.333 48.000 C 126.242 48.000,126.167 47.921,126.167 47.825 C 126.167 47.729,125.904 47.240,125.583 46.739 C 125.262 46.237,125.000 45.779,125.000 45.720 C 125.000 45.661,124.762 45.241,124.471 44.788 C 124.024 44.092,123.934 43.777,123.891 42.773 C 123.815 40.963,123.561 39.109,123.489 39.833 C 123.457 40.154,123.380 38.954,123.318 37.167 C 123.200 33.773,123.037 32.332,122.700 31.719 C 122.590 31.519,122.498 31.219,122.496 31.053 C 122.494 30.886,122.346 30.563,122.167 30.333 C 121.987 30.104,121.839 29.716,121.837 29.470 C 121.835 29.225,121.721 28.911,121.583 28.774 C 121.446 28.636,121.333 28.260,121.333 27.938 C 121.333 27.616,121.258 27.307,121.167 27.250 C 121.075 27.193,121.000 26.978,121.000 26.772 C 121.000 26.566,120.890 26.251,120.755 26.074 C 120.621 25.896,120.508 25.629,120.505 25.481 C 120.502 25.333,120.350 25.021,120.167 24.788 C 119.983 24.555,119.833 24.275,119.833 24.166 C 119.833 24.056,119.713 23.693,119.566 23.359 C 119.419 23.024,119.239 22.600,119.165 22.417 C 118.740 21.366,117.597 19.167,117.476 19.167 C 117.398 19.167,117.333 19.050,117.333 18.908 C 117.333 18.765,117.146 18.373,116.917 18.036 C 116.688 17.699,116.500 17.356,116.500 17.275 C 116.500 17.194,116.238 16.770,115.917 16.333 C 115.596 15.896,115.333 15.455,115.333 15.353 C 115.333 15.250,115.263 15.167,115.178 15.167 C 115.092 15.167,114.979 15.030,114.926 14.863 C 114.873 14.696,114.689 14.408,114.518 14.225 C 114.347 14.041,113.999 13.561,113.745 13.159 C 113.260 12.390,109.931 9.000,109.661 9.000 C 109.505 9.000,109.290 8.838,108.276 7.961 C 107.987 7.710,107.662 7.504,107.556 7.503 C 107.449 7.501,107.336 7.443,107.306 7.374 C 107.275 7.305,106.725 6.912,106.083 6.500 C 105.442 6.088,104.892 5.695,104.861 5.626 C 104.831 5.557,104.698 5.500,104.566 5.500 C 104.434 5.500,104.030 5.313,103.667 5.083 C 103.304 4.854,102.848 4.667,102.654 4.667 C 102.460 4.667,102.065 4.498,101.776 4.292 C 100.952 3.704,98.438 3.743,97.167 4.364 C 96.203 4.834,95.006 5.300,94.375 5.450 C 94.169 5.499,94.000 5.605,94.000 5.686 C 94.000 5.767,93.882 5.833,93.739 5.833 C 93.595 5.833,93.232 6.021,92.931 6.250 C 92.631 6.479,92.276 6.667,92.143 6.667 C 91.769 6.667,90.667 7.886,90.667 8.299 C 90.667 8.501,90.597 8.667,90.511 8.667 C 90.426 8.667,90.309 8.835,90.251 9.042 C 90.193 9.248,90.075 9.585,89.990 9.792 C 89.824 10.188,89.685 10.552,89.334 11.500 C 88.485 13.795,88.771 17.042,89.922 18.172 C 90.408 18.649,90.669 19.050,90.673 19.326 C 90.689 20.482,91.319 22.149,92.167 23.276 C 93.383 24.894,97.959 25.851,99.625 24.835 C 100.099 24.546,100.167 24.538,100.167 24.775 C 100.167 25.153,99.805 26.384,99.639 26.575 C 99.562 26.662,99.500 26.873,99.500 27.043 C 99.500 27.213,99.313 27.688,99.083 28.099 C 98.854 28.509,98.667 28.949,98.667 29.076 C 98.667 29.203,98.558 29.519,98.425 29.778 C 97.867 30.867,97.500 31.794,97.500 32.116 C 97.500 32.305,97.388 32.729,97.250 33.058 C 97.112 33.387,97.000 34.146,97.000 34.745 L 97.000 35.833 95.260 35.833 C 94.280 35.833,93.475 35.906,93.417 36.000 C 93.360 36.092,93.186 36.167,93.029 36.167 C 92.524 36.167,89.833 37.877,89.833 38.199 C 89.833 38.273,89.731 38.333,89.605 38.333 C 89.479 38.333,89.201 38.590,88.986 38.903 C 88.561 39.523,88.456 39.552,85.917 39.763 C 85.183 39.824,84.508 39.931,84.417 40.001 C 84.325 40.071,84.009 40.180,83.715 40.242 C 83.025 40.390,81.613 41.073,80.700 41.701 C 79.954 42.214,79.558 42.218,79.401 41.712 C 79.350 41.550,79.128 41.004,78.908 40.500 C 78.688 39.996,78.383 39.171,78.230 38.667 C 78.077 38.162,77.888 37.679,77.809 37.592 C 77.731 37.505,77.667 37.265,77.667 37.060 C 77.667 36.854,77.592 36.640,77.500 36.583 C 77.408 36.527,77.333 36.316,77.332 36.115 C 77.332 35.914,77.147 35.450,76.921 35.083 C 76.695 34.717,76.508 34.252,76.505 34.052 C 76.502 33.851,76.425 33.640,76.333 33.583 C 76.242 33.527,76.167 33.275,76.167 33.023 C 76.167 32.772,76.077 32.477,75.967 32.367 C 75.811 32.211,76.248 32.167,77.934 32.167 C 79.869 32.167,80.189 32.124,80.926 31.772 C 81.379 31.556,82.021 31.257,82.352 31.109 C 82.683 30.961,83.050 30.724,83.167 30.583 C 83.284 30.442,83.634 30.206,83.945 30.059 C 84.573 29.761,86.500 27.993,86.500 27.715 C 86.500 27.618,86.612 27.323,86.749 27.061 C 87.247 26.106,86.598 24.233,85.578 23.684 C 85.305 23.537,84.846 23.248,84.557 23.042 C 84.268 22.835,83.954 22.667,83.859 22.667 C 83.764 22.667,83.438 22.522,83.135 22.346 C 82.831 22.169,82.283 21.972,81.917 21.907 C 81.550 21.843,81.175 21.731,81.083 21.659 C 80.991 21.586,80.679 21.502,80.391 21.472 L 79.866 21.417 80.984 20.583 C 81.919 19.887,83.333 18.283,83.333 17.919 C 83.333 17.864,83.521 17.617,83.750 17.369 C 83.985 17.116,84.167 16.720,84.167 16.460 C 84.167 16.207,84.233 16.000,84.315 16.000 C 84.922 16.000,84.932 11.226,84.329 9.750 C 84.254 9.567,84.151 9.225,84.101 8.990 C 84.051 8.755,83.822 8.305,83.592 7.990 C 83.363 7.675,83.100 7.248,83.008 7.042 C 82.917 6.835,82.765 6.667,82.671 6.667 C 82.577 6.667,82.500 6.484,82.500 6.261 C 82.500 5.978,82.262 5.664,81.708 5.219 C 81.273 4.870,80.675 4.340,80.379 4.042 C 80.083 3.745,79.464 3.270,79.004 2.986 C 78.543 2.703,78.167 2.419,78.167 2.354 C 78.167 2.027,74.862 0.667,74.069 0.667 C 73.787 0.667,73.504 0.615,73.441 0.552 C 73.039 0.150,71.886 0.005,69.080 0.003 L 66.076 0.000 65.746 0.613 C 65.044 1.918,66.067 4.500,67.285 4.500 C 67.403 4.500,67.500 4.574,67.500 4.663 C 67.500 4.753,67.688 4.874,67.917 4.932 C 68.146 4.989,68.333 5.103,68.333 5.185 C 68.333 5.266,68.412 5.333,68.508 5.333 C 68.797 5.333,70.326 6.984,70.792 7.798 C 71.557 9.137,71.208 10.667,70.136 10.667 C 70.006 10.667,69.829 10.734,69.742 10.816 C 69.588 10.961,68.959 11.078,67.272 11.274 C 66.519 11.361,66.245 11.298,65.294 10.814 C 65.135 10.733,64.893 10.667,64.757 10.667 C 64.621 10.667,64.259 10.526,63.952 10.353 C 63.645 10.181,63.080 9.986,62.697 9.922 C 62.119 9.824,62.000 9.740,62.000 9.428 C 62.000 7.401,59.293 7.175,55.983 8.927 C 55.594 9.133,55.462 9.116,54.733 8.766 C 53.225 8.044,51.501 7.805,50.550 8.187 C 49.473 8.620,49.236 8.753,48.962 9.076 C 48.803 9.264,48.672 9.697,48.670 10.042 C 48.667 10.621,48.631 10.667,48.177 10.667 C 47.907 10.667,47.640 10.742,47.583 10.833 C 47.527 10.925,47.279 11.002,47.032 11.005 C 46.785 11.008,46.438 11.121,46.260 11.255 C 45.582 11.768,43.275 11.535,41.725 10.799 C 40.206 10.076,42.213 6.674,45.690 4.078 C 47.279 2.892,47.293 0.998,45.719 0.187 C 45.352 -0.001,42.636 -0.080,42.462 0.093 M71.530 2.159 C 74.495 2.638,78.615 4.930,80.351 7.066 C 85.337 13.202,81.071 21.006,72.483 21.458 C 69.612 21.609,68.601 20.780,67.453 17.333 C 66.418 14.224,66.668 13.523,69.000 13.009 C 73.501 12.017,74.589 10.590,73.113 7.616 C 72.474 6.326,70.716 4.264,69.747 3.665 C 68.660 2.993,68.969 1.656,70.152 1.912 C 70.389 1.964,71.009 2.075,71.530 2.159 M43.133 2.533 C 43.543 2.943,43.295 3.395,41.792 4.969 C 37.548 9.414,38.245 13.333,43.279 13.333 C 43.955 13.333,44.709 13.955,44.706 14.509 C 44.703 15.065,42.382 20.670,41.986 21.078 C 40.745 22.358,36.342 21.116,33.900 18.796 C 29.483 14.600,30.492 8.620,36.278 4.702 C 38.459 3.225,42.536 1.936,43.133 2.533 M53.300 10.902 C 53.547 11.032,54.008 11.407,54.324 11.736 C 55.061 12.502,55.403 12.488,56.420 11.647 C 57.709 10.581,58.333 10.444,58.333 11.227 C 58.333 11.756,58.642 11.999,59.325 12.006 C 61.239 12.025,64.149 13.010,65.016 13.934 C 65.207 14.137,65.608 14.966,65.909 15.776 C 66.209 16.587,66.847 18.148,67.325 19.245 C 70.869 27.377,70.914 36.037,67.429 39.110 C 66.292 40.113,64.619 41.129,63.879 41.268 C 62.975 41.438,62.893 41.221,63.218 39.528 C 63.818 36.394,63.210 34.031,60.872 30.413 C 59.582 28.417,57.081 26.807,55.333 26.846 L 54.917 26.856 55.333 27.034 C 56.826 27.673,57.342 27.934,58.083 28.427 C 59.042 29.065,60.101 30.039,60.583 30.728 C 60.767 30.989,61.010 31.302,61.125 31.423 C 61.240 31.544,61.333 31.723,61.333 31.821 C 61.333 31.920,61.390 32.000,61.459 32.000 C 61.529 32.000,61.678 32.210,61.791 32.466 C 63.274 35.815,62.873 40.803,60.967 42.708 C 58.470 45.205,50.376 45.831,45.750 43.885 C 43.914 43.112,41.068 40.436,40.206 38.671 C 38.996 36.195,39.837 30.181,41.636 28.441 C 42.198 27.897,42.281 27.730,42.179 27.357 C 41.900 26.348,43.099 20.792,44.158 18.179 C 44.328 17.760,44.563 17.049,44.679 16.601 C 45.167 14.717,46.898 13.446,50.031 12.669 C 52.056 12.167,52.167 12.104,52.167 11.448 C 52.167 10.603,52.459 10.462,53.300 10.902 M47.995 16.264 C 47.310 16.593,46.364 17.045,45.891 17.269 C 44.343 18.002,44.752 18.965,46.678 19.120 C 49.158 19.319,51.365 17.350,50.091 16.076 C 49.562 15.547,49.474 15.555,47.995 16.264 M55.893 16.750 C 55.363 18.134,57.609 19.256,60.657 19.130 C 62.689 19.047,63.333 18.858,63.333 18.348 C 63.333 17.856,63.016 17.729,61.267 17.521 C 60.359 17.413,59.064 17.139,58.388 16.912 C 56.978 16.439,56.036 16.378,55.893 16.750 M114.569 19.916 C 115.161 20.555,117.570 26.001,118.502 28.805 C 120.044 33.450,120.540 36.144,120.653 40.500 L 120.750 44.250 121.702 45.704 C 123.841 48.972,123.805 49.114,120.160 51.703 C 118.666 52.764,117.988 53.138,114.973 54.566 C 113.894 55.077,113.257 55.582,110.863 57.825 C 103.039 65.156,94.170 69.195,85.319 69.459 C 80.902 69.590,80.727 69.058,83.827 64.916 C 86.601 61.207,88.333 56.857,87.405 55.929 C 86.802 55.326,86.039 56.332,84.946 59.175 C 83.133 63.887,82.504 64.563,81.081 63.331 C 80.093 62.476,80.052 62.516,79.924 64.459 C 79.311 73.776,71.362 78.662,59.961 76.729 C 58.938 76.556,58.957 77.955,59.984 78.369 C 60.617 78.624,67.171 78.744,68.755 78.530 C 72.561 78.015,77.012 75.711,79.241 73.102 C 80.493 71.637,81.041 71.449,84.500 71.301 C 86.463 71.217,88.093 71.043,89.483 70.770 C 92.320 70.212,92.489 70.320,91.576 72.118 C 88.992 77.204,81.298 84.223,75.551 86.737 C 74.381 87.248,73.619 88.536,72.489 91.917 C 71.868 93.774,71.651 93.915,69.079 94.142 C 60.805 94.871,41.305 94.781,39.262 94.005 C 38.682 93.784,38.391 93.065,37.897 90.634 C 37.272 87.558,36.864 85.889,36.255 83.917 C 34.435 78.029,34.533 77.302,37.057 77.964 C 38.990 78.471,41.405 78.489,41.668 77.998 C 41.881 77.599,42.017 77.659,39.612 77.092 C 34.126 75.799,30.941 73.250,30.023 69.416 C 28.696 63.875,29.684 60.427,33.783 56.295 C 35.172 54.895,35.256 54.527,34.039 55.172 C 32.438 56.021,30.647 57.824,29.327 59.917 C 27.428 62.925,26.976 69.255,28.414 72.685 C 28.660 73.271,28.945 73.952,29.047 74.199 C 29.309 74.833,28.986 75.363,27.676 76.446 C 26.337 77.552,26.161 77.550,25.115 76.408 C 22.617 73.680,18.972 72.030,15.833 72.207 C 12.858 72.374,12.647 73.608,15.587 73.650 C 20.071 73.714,23.988 76.652,26.487 81.825 C 27.373 83.659,27.363 83.749,26.097 85.316 C 24.312 87.527,21.834 91.917,21.833 92.867 C 21.833 94.300,21.229 94.451,18.710 93.648 C 14.143 92.192,10.503 89.735,8.326 86.639 C 7.446 85.388,6.106 84.020,4.809 83.047 C 2.205 81.094,2.097 79.694,4.359 77.230 C 5.436 76.056,5.650 75.714,6.071 74.486 C 9.248 65.237,12.507 61.013,16.835 60.536 L 17.917 60.417 18.134 59.667 C 19.162 56.121,19.646 55.172,21.308 53.443 C 24.233 50.401,28.833 48.984,33.250 49.763 C 36.179 50.279,36.882 50.216,38.250 49.314 C 40.148 48.061,41.452 46.650,42.193 45.048 C 42.979 43.344,43.012 43.341,44.935 44.760 C 48.382 47.304,51.929 48.139,56.175 47.406 C 58.304 47.039,58.649 46.893,62.750 44.622 C 69.299 40.995,71.833 37.612,71.833 32.497 C 71.833 30.888,72.038 30.205,72.444 30.462 C 72.632 30.582,73.667 33.013,73.667 33.336 C 73.667 33.696,76.421 41.349,77.279 43.373 C 78.179 45.496,78.198 45.572,78.083 46.648 C 77.940 47.977,77.936 47.895,78.145 47.965 C 78.238 47.996,78.696 47.496,79.163 46.854 C 80.817 44.580,82.088 43.706,85.001 42.841 C 87.734 42.029,88.065 42.198,87.174 43.952 C 86.488 45.301,86.223 47.412,86.752 47.308 C 86.941 47.272,87.395 46.574,87.984 45.412 C 90.064 41.314,92.149 39.471,95.356 38.897 C 97.964 38.429,98.585 38.751,99.244 40.911 C 100.100 43.718,103.615 47.697,104.107 46.416 C 104.258 46.022,104.068 45.515,103.230 44.083 C 101.675 41.424,101.336 40.700,100.922 39.155 C 100.072 35.981,100.488 32.212,102.082 28.667 C 102.391 27.979,102.906 26.554,103.225 25.500 C 103.545 24.446,103.859 23.451,103.922 23.290 C 104.045 22.977,104.156 22.941,105.833 22.659 C 108.194 22.263,112.160 20.789,113.185 19.927 C 113.819 19.393,114.082 19.391,114.569 19.916 M49.197 21.228 C 48.596 22.892,46.831 22.955,45.998 21.343 L 45.788 20.936 45.407 21.379 C 43.814 23.231,45.205 26.157,47.371 25.508 C 49.180 24.966,50.307 22.822,49.641 21.191 L 49.412 20.633 49.197 21.228 M60.315 20.792 C 60.305 20.860,60.311 21.092,60.329 21.307 C 60.377 21.885,60.031 22.594,59.586 22.832 C 59.217 23.029,58.898 23.013,57.792 22.741 C 56.706 22.473,57.526 25.145,58.707 25.722 C 60.508 26.601,62.211 24.250,61.412 21.988 C 61.080 21.046,60.389 20.292,60.315 20.792 M72.691 22.236 C 73.365 22.366,74.779 22.595,75.833 22.745 C 81.752 23.586,83.825 24.247,83.347 25.140 C 83.201 25.414,83.265 25.535,83.753 25.908 C 85.884 27.533,82.039 30.041,77.417 30.041 C 74.510 30.041,72.873 29.220,71.883 27.267 C 70.710 24.953,71.077 24.505,73.667 25.090 C 74.262 25.224,75.837 25.372,77.167 25.418 C 79.840 25.510,79.670 25.418,76.000 24.788 C 75.129 24.638,73.704 24.393,72.833 24.243 C 70.778 23.889,69.882 23.502,69.732 22.903 C 69.506 22.002,70.414 21.798,72.691 22.236 M39.832 22.915 C 40.148 23.296,39.925 23.614,39.020 24.073 C 38.033 24.574,34.887 25.664,34.425 25.665 C 34.177 25.666,34.146 25.713,34.295 25.861 C 34.442 26.008,34.704 26.010,35.370 25.867 C 41.037 24.650,41.000 24.650,41.000 25.871 C 41.000 27.446,39.955 28.916,38.304 29.666 C 35.484 30.945,28.943 28.902,29.608 26.950 C 29.676 26.748,29.736 26.293,29.741 25.937 C 29.757 24.741,32.277 23.760,37.833 22.785 C 38.783 22.619,39.632 22.674,39.832 22.915 M47.042 26.619 C 47.294 26.658,47.706 26.658,47.958 26.619 C 48.210 26.581,48.004 26.550,47.500 26.550 C 46.996 26.550,46.790 26.581,47.042 26.619 M53.016 30.044 C 51.805 30.666,51.735 31.831,52.875 32.388 C 54.352 33.111,55.808 31.528,54.821 30.272 C 54.436 29.783,53.705 29.690,53.016 30.044 M43.500 30.500 C 42.801 31.199,43.452 33.000,44.404 33.000 C 45.494 33.000,45.693 30.947,44.655 30.411 C 44.037 30.091,43.898 30.102,43.500 30.500 M68.167 52.171 C 67.754 52.245,66.629 52.427,65.667 52.576 C 64.704 52.724,63.579 52.917,63.167 53.003 C 62.754 53.090,62.119 53.206,61.755 53.261 C 61.194 53.347,61.140 53.388,61.398 53.533 C 61.672 53.686,63.106 53.513,65.333 53.059 C 65.563 53.012,66.500 52.910,67.417 52.831 C 69.914 52.616,72.000 52.303,72.000 52.142 C 72.000 51.967,69.194 51.988,68.167 52.171 M48.700 54.124 C 48.577 54.167,48.978 54.549,49.623 55.003 C 50.250 55.445,50.869 56.018,50.999 56.278 C 51.634 57.545,51.995 57.607,52.965 56.619 C 53.875 55.692,53.854 55.629,52.691 55.761 C 51.586 55.886,51.228 55.756,50.333 54.907 C 49.710 54.315,49.053 54.000,48.700 54.124 M30.387 78.715 C 30.495 78.834,30.658 79.048,30.750 79.190 C 30.842 79.333,31.123 79.760,31.375 80.138 C 31.627 80.517,31.833 80.888,31.833 80.963 C 31.833 81.038,32.096 81.612,32.417 82.238 C 33.193 83.755,33.193 83.755,31.801 83.083 C 31.326 82.854,30.708 82.665,30.427 82.662 C 29.894 82.658,29.804 82.526,29.178 80.833 C 28.743 79.657,28.773 79.453,29.453 78.965 C 30.198 78.430,30.140 78.445,30.387 78.715 M73.442 95.730 C 74.116 96.309,74.251 98.331,73.643 98.721 C 73.036 99.109,70.675 99.340,65.667 99.499 C 63.146 99.580,59.583 99.695,57.750 99.755 C 54.073 99.875,54.534 99.964,52.417 98.734 C 51.081 97.958,49.026 98.016,47.406 98.876 L 46.228 99.500 43.323 99.499 C 38.291 99.497,37.450 99.221,37.368 97.552 C 37.312 96.409,37.632 95.836,38.333 95.823 C 38.563 95.819,43.212 95.865,48.667 95.926 C 58.649 96.038,70.081 95.829,71.083 95.517 C 72.037 95.221,72.946 95.303,73.442 95.730 M38.601 100.340 C 38.851 100.435,40.075 100.586,41.320 100.675 C 44.798 100.924,44.897 101.009,43.647 102.671 C 41.156 105.982,41.679 108.091,44.904 107.745 C 46.186 107.608,46.434 107.815,46.263 108.877 C 45.923 110.977,45.930 111.113,46.404 111.424 C 46.767 111.662,46.923 111.679,47.271 111.521 L 47.694 111.328 47.581 109.539 C 47.401 106.680,48.613 102.167,49.561 102.167 C 50.193 102.167,50.488 102.690,50.840 104.434 C 52.319 111.769,52.107 111.071,52.879 111.135 C 53.697 111.203,53.802 110.913,53.445 109.571 C 52.884 107.467,53.114 107.055,54.517 107.658 C 57.192 108.809,58.239 106.203,56.356 103.080 C 55.072 100.951,54.695 101.046,65.333 100.824 C 73.683 100.649,74.062 100.655,74.349 100.946 C 74.525 101.124,75.097 102.839,75.731 105.083 C 76.327 107.192,77.125 109.817,77.506 110.917 C 79.533 116.771,79.702 117.340,79.595 117.914 C 79.193 120.058,71.190 123.321,63.833 124.341 C 62.413 124.538,61.198 124.731,61.135 124.770 C 61.072 124.809,60.575 124.847,60.031 124.855 C 58.363 124.878,58.005 124.440,56.543 120.583 C 55.191 117.016,55.045 116.320,55.492 115.596 C 55.928 114.891,56.021 114.946,53.750 114.574 C 52.833 114.424,51.483 114.159,50.750 113.985 C 46.889 113.069,47.152 114.093,51.167 115.606 C 53.380 116.440,53.690 117.297,53.020 120.728 C 52.825 121.722,52.667 122.755,52.667 123.025 C 52.667 123.775,52.012 124.333,51.133 124.333 C 49.821 124.332,39.580 122.093,37.417 121.334 C 36.592 121.044,35.473 120.697,34.932 120.561 C 32.834 120.036,32.507 119.571,32.804 117.531 C 33.518 112.626,33.702 111.568,34.094 110.083 C 34.336 109.167,34.785 107.366,35.091 106.081 C 36.421 100.497,36.910 99.697,38.601 100.340 M46.783 102.109 C 47.204 103.206,45.397 106.500,44.374 106.500 C 43.206 106.500,43.191 105.503,44.336 103.879 C 45.589 102.099,46.521 101.426,46.783 102.109 M53.738 102.591 C 54.503 103.092,56.167 105.170,56.167 105.624 C 56.167 107.284,54.212 106.832,53.284 104.956 C 52.307 102.984,52.534 101.802,53.738 102.591 M77.658 122.227 C 77.815 122.641,77.633 124.577,77.336 125.647 C 76.975 126.946,77.095 127.434,77.912 127.997 C 79.723 129.243,81.393 133.018,81.618 136.373 L 81.716 137.830 81.113 138.082 C 80.782 138.220,80.352 138.333,80.158 138.333 C 79.964 138.333,79.306 138.552,78.695 138.820 C 77.819 139.204,74.039 140.257,71.045 140.951 C 70.122 141.165,69.297 140.389,67.404 137.526 C 66.273 135.815,65.685 131.994,66.397 130.978 C 66.938 130.206,66.767 129.848,65.083 128.229 C 63.015 126.239,63.032 125.999,65.261 125.758 C 67.233 125.545,69.075 125.119,70.481 124.551 C 71.271 124.232,72.667 123.685,73.583 123.337 C 74.500 122.988,75.662 122.508,76.167 122.270 C 77.297 121.735,77.469 121.731,77.658 122.227 M39.417 124.353 C 39.783 124.435,41.583 124.579,43.417 124.672 C 50.281 125.022,51.149 125.349,49.695 127.036 C 47.610 129.453,47.302 130.069,48.082 130.264 C 50.076 130.765,50.765 135.079,49.449 138.833 C 48.622 141.192,48.699 141.149,46.167 140.659 C 43.871 140.215,40.715 139.868,41.500 140.146 C 41.729 140.227,42.254 140.383,42.667 140.493 C 43.079 140.604,43.988 140.875,44.687 141.097 C 45.385 141.319,46.078 141.500,46.225 141.500 C 47.230 141.500,48.333 142.441,48.333 143.297 C 48.333 143.891,47.622 145.918,47.283 146.292 C 46.705 146.928,44.180 146.549,40.352 145.253 C 39.400 144.930,38.507 144.667,38.366 144.667 C 35.612 144.667,34.711 143.534,35.397 140.932 C 35.720 139.705,36.072 139.502,37.893 139.491 L 39.417 139.482 38.280 139.051 C 36.654 138.435,36.583 138.283,36.781 135.826 C 36.927 133.999,36.979 133.791,37.387 133.364 C 37.983 132.742,37.969 132.662,36.962 130.922 C 35.973 129.213,35.861 128.202,36.390 125.753 C 36.775 123.976,37.088 123.831,39.417 124.353 M82.125 139.569 C 82.513 140.062,82.906 142.144,82.759 142.927 C 82.614 143.703,82.338 143.847,79.319 144.732 C 77.891 145.150,75.903 145.756,74.903 146.078 C 71.803 147.075,71.267 146.899,70.432 144.611 C 69.973 143.351,69.995 142.819,70.524 142.384 C 71.009 141.986,74.054 140.842,75.936 140.350 C 77.026 140.066,78.404 139.691,79.000 139.518 C 80.619 139.047,81.729 139.065,82.125 139.569 M39.960 139.785 C 40.168 139.824,40.468 139.823,40.627 139.781 C 40.786 139.739,40.617 139.707,40.250 139.709 C 39.883 139.711,39.753 139.745,39.960 139.785 " stroke="none" fill="#2c170c" fill-rule="evenodd"></path><path id="path4" d="M70.134 2.789 C 69.954 3.006,70.051 3.162,70.767 3.814 C 73.109 5.947,74.083 7.642,74.083 9.583 C 74.083 11.759,73.006 12.662,69.423 13.490 C 67.113 14.024,66.945 14.530,68.089 17.500 C 69.481 21.109,71.139 21.762,75.325 20.349 C 84.473 17.260,84.273 8.183,74.961 3.838 C 72.692 2.779,70.532 2.310,70.134 2.789 M40.333 3.400 C 31.983 6.389,29.089 13.425,34.180 18.357 C 36.994 21.084,41.363 21.910,42.139 19.863 C 42.232 19.617,42.546 18.780,42.838 18.001 C 43.130 17.223,43.553 16.223,43.777 15.779 C 44.341 14.666,44.257 14.117,43.500 13.969 C 40.002 13.283,39.452 13.012,38.768 11.640 C 37.798 9.694,38.610 7.483,41.317 4.700 C 43.035 2.933,42.738 2.540,40.333 3.400 M47.000 20.167 C 46.348 20.819,46.715 22.000,47.569 22.000 C 48.447 22.000,48.857 20.602,48.130 20.093 C 47.640 19.750,47.401 19.766,47.000 20.167 M58.020 21.035 C 57.833 21.540,57.973 21.975,58.415 22.265 C 59.014 22.657,59.659 22.290,59.664 21.554 C 59.670 20.712,58.299 20.280,58.020 21.035 M70.905 22.852 C 70.777 23.059,71.077 23.302,71.583 23.403 C 71.767 23.439,72.329 23.558,72.833 23.667 C 73.337 23.775,74.237 23.927,74.833 24.004 C 75.429 24.080,76.554 24.261,77.333 24.405 C 78.112 24.548,79.313 24.666,80.000 24.665 L 81.250 24.664 80.753 24.337 C 80.152 23.941,78.393 23.512,76.583 23.320 C 75.850 23.242,74.425 23.064,73.417 22.924 C 71.217 22.619,71.052 22.614,70.905 22.852 M34.723 23.900 C 32.548 24.463,30.667 25.258,30.667 25.614 C 30.667 26.016,32.315 25.738,35.250 24.842 C 39.639 23.501,39.212 22.738,34.723 23.900 M38.959 25.586 C 37.824 26.003,35.116 26.477,32.838 26.658 C 29.755 26.902,29.361 27.497,31.545 28.608 C 35.259 30.498,39.201 29.754,40.246 26.966 C 40.792 25.507,40.379 25.065,38.959 25.586 M71.998 25.585 C 71.709 25.933,72.637 27.811,73.376 28.374 C 75.962 30.342,80.824 30.011,83.301 27.697 C 84.551 26.530,83.829 26.167,80.256 26.167 C 77.820 26.167,74.712 25.862,73.501 25.505 C 72.692 25.266,72.243 25.290,71.998 25.585 M48.000 27.276 C 45.824 27.485,42.774 28.283,41.974 28.852 C 40.464 29.927,39.537 35.684,40.489 38.079 C 41.380 40.319,44.675 43.079,47.608 44.042 C 50.194 44.891,56.820 44.503,59.141 43.367 C 64.077 40.950,62.733 31.393,57.055 28.527 C 55.017 27.499,51.187 26.970,48.000 27.276 M54.843 29.505 C 55.641 29.932,55.881 31.230,55.329 32.135 C 54.079 34.186,50.656 32.615,51.753 30.494 C 52.221 29.589,53.960 29.032,54.843 29.505 M45.215 30.169 C 46.865 31.467,45.242 34.435,43.536 33.240 C 42.660 32.626,42.345 30.821,43.000 30.167 C 43.455 29.712,44.636 29.713,45.215 30.169 M48.298 40.025 C 47.994 40.136,47.749 40.134,47.548 40.017 C 47.311 39.879,47.403 39.845,48.000 39.852 C 48.692 39.859,48.715 39.872,48.298 40.025 M52.083 58.527 C 50.926 59.156,48.726 61.818,47.491 64.083 C 46.492 65.916,46.275 66.104,44.985 66.244 C 41.620 66.611,39.414 67.136,38.715 67.738 C 37.609 68.689,38.802 71.196,41.717 74.049 L 42.875 75.182 42.761 76.189 C 42.698 76.743,42.505 77.658,42.332 78.223 C 41.358 81.394,41.046 84.596,41.585 85.888 C 42.074 87.061,44.239 86.285,47.743 83.679 C 49.961 82.031,49.518 81.999,52.731 84.031 C 59.279 88.170,60.485 88.345,60.288 85.126 C 60.145 82.797,59.529 79.370,59.071 78.355 C 58.082 76.165,58.415 75.393,61.213 73.384 C 66.260 69.762,66.886 67.968,63.421 67.063 C 62.404 66.798,58.943 66.338,57.917 66.332 C 56.704 66.325,56.515 66.115,55.828 64.000 C 54.482 59.852,53.171 57.936,52.083 58.527 M79.417 139.996 C 77.510 140.477,73.106 141.796,72.144 142.175 C 70.525 142.812,70.380 143.170,71.089 144.787 C 71.741 146.274,72.202 146.450,73.869 145.848 C 74.794 145.514,80.595 143.754,81.363 143.574 C 82.251 143.367,82.420 142.971,82.217 141.568 C 81.934 139.600,81.640 139.435,79.417 139.996 M36.288 140.292 C 36.142 140.452,35.930 141.092,35.816 141.712 C 35.517 143.333,35.778 143.654,37.684 144.015 C 38.454 144.161,39.908 144.544,40.917 144.867 C 41.925 145.189,43.200 145.547,43.750 145.661 C 44.300 145.776,44.967 145.936,45.233 146.018 C 46.581 146.433,47.090 146.051,47.574 144.263 C 47.848 143.250,47.850 143.134,47.603 142.756 C 47.311 142.311,47.322 142.315,43.417 141.349 C 41.950 140.986,40.188 140.536,39.500 140.349 C 37.912 139.916,36.648 139.893,36.288 140.292 " stroke="none" fill="#f1d5ad" fill-rule="evenodd"></path></g></svg>