<svg id="svg" version="1.1" xmlns="http://www.w3.org/2000/svg" xmlns:xlink="http://www.w3.org/1999/xlink" width="400" height="133.33333333333334" viewBox="0, 0, 400,133.33333333333334"><g id="svgg"><path id="path0" d="M26.333 13.612 C 25.646 13.846,24.971 14.129,24.833 14.241 C 24.696 14.353,24.321 14.575,24.000 14.736 C 23.679 14.896,23.229 15.129,23.000 15.254 C 21.955 15.823,19.812 18.633,19.478 19.872 C 19.201 20.899,19.101 23.001,19.319 23.219 C 19.419 23.319,19.500 23.600,19.500 23.845 C 19.500 24.417,20.961 26.664,21.652 27.156 L 22.177 27.530 21.554 27.849 C 21.210 28.024,20.794 28.167,20.629 28.167 C 20.464 28.167,20.199 28.234,20.039 28.315 C 19.880 28.397,19.563 28.548,19.333 28.651 C 15.402 30.409,18.699 34.833,23.940 34.833 C 24.714 34.833,24.986 34.888,24.901 35.026 C 24.622 35.478,24.830 38.567,25.171 39.035 C 25.352 39.283,25.500 39.605,25.500 39.749 C 25.500 40.043,25.896 40.729,26.384 41.282 C 26.785 41.736,26.679 42.263,25.986 43.271 C 24.954 44.770,24.175 45.074,22.714 44.544 C 21.732 44.188,19.023 44.135,18.626 44.464 C 18.484 44.582,17.943 44.748,17.423 44.832 C 14.765 45.265,10.930 48.750,10.552 51.077 C 10.494 51.433,10.338 51.731,10.184 51.780 C 9.857 51.882,9.273 52.126,8.501 52.482 C 7.851 52.781,5.188 55.342,4.820 56.021 C 4.690 56.261,4.424 56.749,4.229 57.104 C 3.321 58.762,2.651 60.244,2.495 60.937 C 2.218 62.176,1.861 62.873,1.095 63.667 C -0.660 65.487,-0.484 68.050,1.526 69.921 C 2.016 70.377,2.747 71.162,3.151 71.666 C 5.011 73.989,6.751 75.486,8.595 76.346 C 10.667 77.313,12.999 78.168,13.885 78.286 C 14.395 78.354,14.597 78.494,14.918 79.003 C 16.207 81.044,18.591 82.500,20.646 82.500 C 21.840 82.500,21.869 82.510,21.760 82.875 C 21.698 83.081,21.581 83.662,21.500 84.167 C 21.282 85.513,20.505 89.030,20.340 89.417 C 20.134 89.898,19.708 91.931,19.588 93.006 C 19.454 94.204,19.902 94.946,21.005 95.351 C 21.628 95.581,21.757 95.704,21.794 96.104 C 21.935 97.622,22.394 100.172,22.624 100.717 C 22.850 101.252,22.861 101.473,22.691 102.134 C 22.581 102.565,22.417 103.630,22.327 104.500 C 22.182 105.913,21.875 108.002,21.570 109.667 C 21.434 110.405,20.571 111.332,19.154 112.260 C 18.009 113.011,16.833 114.175,16.833 114.558 C 16.833 114.681,16.717 115.016,16.574 115.301 C 15.893 116.666,15.868 118.908,16.524 119.742 L 16.864 120.174 24.590 120.160 L 32.317 120.146 32.799 119.597 L 33.280 119.049 33.379 114.763 C 33.434 112.405,33.550 110.388,33.638 110.280 C 33.726 110.172,33.917 109.613,34.063 109.038 C 34.209 108.463,34.491 107.638,34.689 107.205 C 35.554 105.315,35.820 103.692,35.446 102.595 C 35.307 102.186,35.232 101.702,35.280 101.519 C 35.328 101.336,35.247 100.945,35.100 100.651 C 34.490 99.428,34.894 98.167,35.896 98.167 C 36.157 98.167,36.525 97.990,36.767 97.748 L 37.185 97.330 37.619 97.845 C 38.034 98.339,38.091 98.356,38.984 98.254 L 39.917 98.148 41.060 99.305 L 42.203 100.461 42.020 101.313 C 41.667 102.957,42.547 105.655,43.897 107.071 C 44.630 107.840,45.165 108.643,45.166 108.974 C 45.166 109.098,45.316 109.408,45.498 109.663 C 45.680 109.919,45.912 110.531,46.014 111.022 C 46.116 111.514,46.305 112.083,46.433 112.286 C 46.571 112.503,46.667 113.094,46.667 113.725 C 46.667 114.350,46.770 114.994,46.916 115.273 C 47.093 115.613,47.165 116.288,47.166 117.629 L 47.167 119.507 47.625 119.688 C 47.877 119.788,48.214 119.936,48.373 120.018 C 48.782 120.228,60.453 120.211,60.583 120.000 C 60.640 119.908,60.820 119.833,60.984 119.833 C 61.730 119.833,62.220 117.398,61.681 116.373 C 61.597 116.214,61.285 115.569,60.986 114.940 C 60.615 114.158,60.099 113.457,59.354 112.719 C 58.303 111.678,58.015 111.182,57.630 109.750 C 57.532 109.383,57.395 109.008,57.326 108.917 C 57.257 108.825,57.148 108.000,57.084 107.083 C 57.017 106.141,56.865 105.256,56.733 105.048 C 56.592 104.824,56.500 104.228,56.500 103.537 C 56.500 101.748,55.533 99.099,54.392 97.762 C 53.843 97.119,53.671 96.453,54.000 96.250 C 54.092 96.193,54.167 95.696,54.167 95.146 C 54.167 94.210,54.206 94.107,54.773 93.573 C 55.405 92.976,55.553 91.250,55.026 90.615 C 54.928 90.497,54.798 90.087,54.737 89.703 C 54.675 89.320,54.522 88.921,54.396 88.816 C 54.270 88.711,54.167 88.407,54.167 88.140 C 54.167 87.873,54.061 87.489,53.932 87.286 C 53.803 87.083,53.611 86.467,53.506 85.917 C 53.401 85.367,53.201 84.504,53.062 84.000 C 52.532 82.074,52.282 81.230,52.074 80.667 C 51.955 80.346,51.818 79.793,51.770 79.438 C 51.721 79.083,51.565 78.664,51.424 78.508 C 51.263 78.330,51.167 77.906,51.167 77.372 C 51.167 76.903,51.092 76.473,51.000 76.417 C 50.908 76.360,50.833 76.146,50.833 75.940 C 50.833 75.735,50.749 75.482,50.645 75.378 C 50.166 74.900,51.515 72.500,52.262 72.500 C 52.379 72.500,53.036 72.144,53.722 71.708 C 58.622 68.602,61.846 65.223,64.106 60.826 C 64.322 60.405,64.737 60.180,66.500 59.529 C 68.181 58.909,71.294 57.196,72.309 56.333 C 72.687 56.012,74.129 54.719,75.514 53.458 C 77.264 51.867,78.154 51.167,78.428 51.167 C 78.645 51.167,79.107 51.006,79.453 50.810 C 79.800 50.613,80.414 50.267,80.818 50.040 C 82.722 48.969,84.833 46.900,84.833 46.105 C 84.833 45.699,84.116 44.229,83.456 43.282 C 83.182 42.888,83.108 42.374,82.988 40.032 C 82.832 36.999,82.622 35.389,82.345 35.111 C 82.247 35.013,82.167 34.690,82.167 34.393 C 82.167 34.096,82.102 33.813,82.022 33.764 C 81.942 33.714,81.830 33.391,81.773 33.045 C 81.716 32.700,81.557 32.202,81.418 31.939 C 81.280 31.677,81.167 31.325,81.167 31.157 C 81.167 30.990,81.100 30.812,81.018 30.761 C 80.937 30.711,80.822 30.478,80.763 30.244 C 80.666 29.854,79.502 27.253,79.162 26.667 C 79.083 26.529,78.816 26.042,78.569 25.583 C 78.323 25.125,77.831 24.323,77.477 23.801 C 77.123 23.279,76.833 22.811,76.833 22.761 C 76.833 22.311,74.440 19.763,72.911 18.583 C 71.704 17.653,68.422 15.833,67.951 15.833 C 67.817 15.833,67.609 15.714,67.488 15.569 C 67.157 15.170,64.298 15.912,63.487 16.608 C 63.342 16.732,63.065 16.833,62.872 16.833 C 62.678 16.833,62.473 16.908,62.417 17.000 C 62.360 17.092,62.201 17.167,62.062 17.167 C 61.333 17.167,59.833 19.165,59.833 20.137 C 59.833 20.316,59.721 20.677,59.584 20.939 C 59.416 21.263,59.335 21.918,59.334 22.970 L 59.333 24.524 59.980 25.303 C 60.468 25.892,60.647 26.274,60.708 26.858 C 60.919 28.886,62.404 29.908,65.119 29.896 C 66.062 29.891,66.833 29.935,66.833 29.992 C 66.833 30.049,66.565 30.731,66.238 31.506 C 65.911 32.282,65.603 33.029,65.553 33.167 C 65.504 33.304,65.346 33.679,65.201 34.000 C 65.056 34.321,64.905 35.015,64.865 35.542 C 64.794 36.491,64.788 36.500,64.266 36.500 C 63.056 36.500,60.663 37.687,59.594 38.816 C 59.172 39.262,58.987 39.333,58.260 39.334 C 57.796 39.335,57.202 39.447,56.939 39.584 C 56.677 39.721,56.342 39.833,56.195 39.833 C 55.787 39.833,54.466 40.358,54.019 40.698 C 53.476 41.111,53.280 41.078,53.062 40.542 C 52.388 38.882,51.833 37.354,51.830 37.152 C 51.828 37.023,51.679 36.729,51.500 36.500 C 51.321 36.271,51.172 35.892,51.170 35.658 C 51.168 35.425,51.087 35.154,50.990 35.057 C 50.866 34.933,51.250 34.852,52.282 34.783 C 53.666 34.692,54.672 34.447,55.189 34.076 C 55.314 33.987,55.679 33.770,56.000 33.595 C 58.411 32.278,58.927 29.913,57.082 28.638 C 56.716 28.385,56.252 28.175,56.052 28.172 C 55.851 28.169,55.645 28.100,55.595 28.018 C 55.544 27.937,55.318 27.824,55.092 27.767 C 54.866 27.710,54.481 27.588,54.237 27.495 L 53.793 27.326 54.458 26.845 C 55.119 26.366,55.833 25.513,55.833 25.203 C 55.833 25.114,55.940 24.952,56.070 24.844 C 56.773 24.261,57.371 19.982,56.691 20.401 C 56.632 20.438,56.563 20.156,56.538 19.776 C 56.512 19.395,56.361 18.896,56.202 18.667 C 56.042 18.438,55.800 18.031,55.664 17.764 C 54.243 14.977,50.658 13.165,46.572 13.169 C 43.832 13.172,43.694 13.208,43.642 13.923 C 43.552 15.155,43.627 15.306,44.685 16.042 C 47.327 17.879,48.385 19.625,47.042 19.932 C 46.790 19.989,46.262 20.141,45.869 20.268 C 44.906 20.581,43.181 20.237,42.552 19.607 C 42.493 19.548,42.232 19.500,41.972 19.500 C 41.594 19.500,41.499 19.425,41.497 19.125 C 41.490 18.101,39.764 17.807,38.134 18.553 L 37.212 18.975 36.098 18.571 C 34.338 17.932,32.500 18.403,32.500 19.492 C 32.500 19.893,32.428 20.000,32.158 20.000 C 31.971 20.000,31.579 20.123,31.289 20.273 C 30.263 20.804,28.002 20.466,27.723 19.741 C 27.472 19.087,27.695 18.800,30.782 15.812 C 31.609 15.010,31.794 14.396,31.423 13.679 L 31.158 13.167 29.371 13.177 C 27.911 13.185,27.354 13.265,26.333 13.612 M48.833 14.593 C 54.575 16.545,57.023 21.359,54.141 25.028 C 53.258 26.151,52.107 26.743,49.292 27.521 C 48.131 27.841,48.252 27.895,51.042 28.292 C 54.904 28.842,55.833 29.120,55.833 29.721 C 55.833 29.938,55.983 30.251,56.167 30.417 C 57.849 31.939,52.354 34.279,49.950 33.064 C 48.317 32.238,47.001 30.078,47.917 29.727 C 48.347 29.562,48.193 29.354,47.482 29.142 C 46.696 28.906,46.314 28.335,46.618 27.850 C 46.768 27.608,46.708 27.483,46.274 27.137 C 44.947 26.078,44.129 22.265,45.167 21.972 C 45.396 21.908,46.141 21.700,46.822 21.510 C 49.902 20.653,50.007 18.996,47.158 16.192 C 46.521 15.565,46.000 14.981,46.000 14.893 C 46.000 14.301,47.505 14.142,48.833 14.593 M28.967 14.700 C 29.348 15.081,29.180 15.600,28.499 16.148 C 27.561 16.901,26.578 18.285,26.369 19.145 C 26.194 19.864,26.206 19.991,26.531 20.863 C 26.735 21.411,27.702 21.833,28.753 21.833 C 29.668 21.833,30.167 22.257,30.167 23.034 L 30.167 23.568 30.792 22.970 C 31.582 22.215,31.781 22.117,33.464 21.665 C 34.644 21.348,34.882 21.223,35.096 20.808 C 35.370 20.279,35.402 20.285,36.378 21.061 L 37.006 21.561 37.461 21.195 C 38.124 20.662,38.713 20.390,38.781 20.585 C 38.965 21.111,39.208 21.225,40.359 21.325 C 42.562 21.517,43.436 22.114,44.068 23.859 C 44.281 24.446,44.607 25.224,44.793 25.588 C 45.692 27.350,46.677 31.054,46.791 33.100 C 46.997 36.784,45.983 38.992,43.509 40.246 C 42.421 40.797,42.254 40.697,42.428 39.602 C 42.645 38.244,42.591 36.960,42.296 36.414 C 42.147 36.141,41.981 35.775,41.926 35.601 C 41.871 35.428,41.788 35.323,41.741 35.370 C 41.695 35.416,41.734 35.657,41.829 35.904 C 42.255 37.025,42.041 39.862,41.458 40.835 C 39.481 44.131,31.931 44.257,28.583 41.049 C 26.537 39.088,26.009 37.712,26.501 35.627 C 26.594 35.236,26.751 34.476,26.851 33.937 C 26.996 33.157,27.172 32.806,27.717 32.214 C 28.294 31.589,28.395 31.375,28.358 30.861 C 28.285 29.845,29.350 25.500,29.672 25.500 C 29.746 25.500,30.021 25.623,30.283 25.774 C 31.261 26.335,33.476 25.690,33.838 24.739 C 34.256 23.638,33.325 23.273,31.901 23.980 C 30.263 24.792,30.000 24.815,29.999 24.143 L 29.998 23.583 29.735 24.083 C 29.455 24.617,29.082 25.579,28.817 26.451 C 28.483 27.551,27.219 27.965,25.678 27.479 C 19.211 25.441,19.047 18.573,25.392 15.502 C 27.265 14.596,28.570 14.303,28.967 14.700 M37.356 24.291 C 36.742 25.438,40.177 26.558,42.085 25.833 C 42.740 25.584,42.563 25.116,41.748 24.939 C 41.383 24.860,40.483 24.645,39.750 24.462 C 37.634 23.933,37.551 23.927,37.356 24.291 M77.228 27.750 C 79.584 32.621,80.755 37.245,80.629 41.177 C 80.585 42.540,80.608 42.642,81.121 43.427 C 82.257 45.167,82.420 45.594,82.121 46.049 C 81.678 46.726,78.836 48.637,77.419 49.211 C 76.243 49.688,75.876 49.954,74.253 51.511 C 69.231 56.326,63.219 59.145,57.306 59.458 C 54.194 59.623,54.071 59.231,56.312 56.276 C 58.279 53.682,59.370 50.333,58.248 50.333 C 57.725 50.333,57.380 50.874,56.577 52.946 C 55.592 55.487,55.028 56.064,54.247 55.331 C 53.698 54.814,53.564 54.988,53.447 56.369 C 52.950 62.241,47.985 65.347,40.625 64.393 C 39.866 64.294,39.833 64.307,39.833 64.702 C 39.833 65.614,40.209 65.716,43.471 65.692 C 47.762 65.661,50.117 64.818,52.667 62.400 C 54.266 60.884,54.375 60.833,56.031 60.835 C 56.793 60.836,58.300 60.713,59.379 60.561 C 61.601 60.248,61.671 60.270,61.264 61.127 C 59.876 64.046,55.201 68.513,51.449 70.505 C 49.596 71.489,49.537 71.558,48.661 73.786 C 48.299 74.707,47.872 75.516,47.679 75.644 C 46.978 76.111,33.397 76.436,28.613 76.100 C 25.871 75.907,25.949 75.975,25.408 73.343 C 25.174 72.203,24.645 70.106,24.233 68.684 C 23.822 67.262,23.507 65.907,23.534 65.674 C 23.589 65.203,23.475 65.215,26.083 65.415 C 26.838 65.473,27.518 65.448,27.649 65.359 C 28.004 65.117,27.737 64.667,27.239 64.667 C 25.931 64.667,22.506 63.180,21.700 62.263 C 18.840 59.005,19.219 54.400,22.643 50.790 C 24.347 48.994,22.875 49.483,21.009 51.333 C 18.339 53.981,17.516 59.101,19.230 62.404 C 19.564 63.049,19.402 63.421,18.500 64.083 C 17.533 64.793,17.449 64.798,16.998 64.164 C 16.046 62.827,13.032 61.305,11.284 61.279 C 8.876 61.242,8.070 62.167,10.349 62.353 C 13.629 62.620,15.868 64.220,17.468 67.443 C 18.020 68.554,18.197 69.070,18.081 69.227 C 17.990 69.348,17.527 69.964,17.050 70.596 C 15.899 72.122,14.734 74.274,14.586 75.149 C 14.430 76.076,14.269 76.112,12.643 75.586 C 9.388 74.532,7.322 73.151,5.678 70.932 C 5.097 70.148,4.225 69.206,3.738 68.839 C 1.681 67.286,1.500 66.393,2.926 64.852 C 3.725 63.989,3.940 63.604,4.490 62.051 C 6.399 56.654,8.818 53.667,11.279 53.667 C 11.897 53.667,12.224 53.286,12.422 52.333 C 13.305 48.081,18.307 45.411,23.221 46.567 C 24.987 46.983,27.403 45.419,28.328 43.263 C 28.717 42.355,28.837 42.282,29.361 42.634 C 29.592 42.789,30.212 43.204,30.737 43.555 C 34.001 45.736,37.344 45.563,42.045 42.972 C 46.459 40.539,48.158 38.240,48.165 34.694 C 48.168 32.741,48.420 33.174,50.081 38.000 C 50.602 39.512,51.294 41.375,51.619 42.140 C 52.141 43.369,52.197 43.635,52.101 44.446 C 51.966 45.597,52.097 45.565,53.224 44.167 C 54.262 42.881,55.146 42.310,56.875 41.808 C 58.468 41.346,58.753 41.483,58.220 42.457 C 57.850 43.132,57.628 44.204,57.777 44.593 C 57.967 45.090,58.270 44.790,58.917 43.462 C 60.909 39.370,65.392 37.489,66.235 40.391 C 66.731 42.097,68.701 44.457,69.491 44.291 C 69.919 44.201,69.719 43.513,68.850 42.083 C 66.888 38.855,66.730 36.000,68.314 32.371 C 68.583 31.754,68.962 30.725,69.156 30.083 C 69.627 28.528,69.639 28.515,70.679 28.341 C 72.389 28.055,75.494 26.914,75.769 26.469 C 76.065 25.990,76.607 26.465,77.228 27.750 M40.474 27.828 C 40.158 28.580,39.572 28.830,38.804 28.540 C 38.270 28.338,38.124 28.961,38.527 29.719 C 39.577 31.691,41.991 29.751,41.171 27.594 C 40.948 27.008,40.797 27.059,40.474 27.828 M30.167 27.583 C 29.454 28.442,30.023 30.136,31.116 30.410 C 31.474 30.500,31.517 30.556,31.325 30.684 C 31.147 30.803,31.214 30.833,31.579 30.798 C 31.900 30.767,32.143 30.615,32.265 30.369 C 32.369 30.159,32.605 29.822,32.790 29.619 C 33.232 29.133,33.554 28.099,33.407 27.636 L 33.290 27.267 33.013 27.609 C 32.334 28.447,31.662 28.521,30.974 27.833 C 30.391 27.250,30.433 27.263,30.167 27.583 M26.775 28.423 C 26.920 28.798,26.377 29.308,25.598 29.530 C 23.993 29.985,24.515 30.084,26.676 29.734 C 27.538 29.594,27.719 29.886,27.409 30.916 C 26.749 33.108,24.830 33.843,21.983 32.995 C 18.479 31.951,18.945 29.631,22.833 28.759 C 23.521 28.605,24.308 28.416,24.583 28.340 C 25.471 28.093,26.666 28.138,26.775 28.423 M49.500 29.833 C 49.637 29.922,50.163 29.995,50.667 29.995 C 51.319 29.995,51.511 29.948,51.333 29.833 C 51.196 29.744,50.671 29.672,50.167 29.672 C 49.514 29.672,49.322 29.718,49.500 29.833 M37.350 31.145 C 37.932 31.341,39.456 32.345,40.125 32.973 C 40.831 33.636,40.820 33.405,40.105 32.570 C 39.489 31.851,38.369 31.216,37.483 31.084 C 36.994 31.011,36.976 31.020,37.350 31.145 M35.567 33.243 C 34.769 33.583,34.655 34.304,35.342 34.671 C 36.401 35.238,37.415 33.886,36.417 33.239 C 36.143 33.061,35.991 33.062,35.567 33.243 M29.095 33.595 C 28.786 33.904,28.791 33.867,28.992 34.396 C 29.345 35.324,30.333 35.215,30.333 34.248 C 30.333 33.572,29.538 33.153,29.095 33.595 M46.417 47.758 C 46.325 47.793,45.237 47.974,44.000 48.159 C 41.285 48.565,40.359 48.750,40.202 48.918 C 40.055 49.074,41.710 48.931,43.917 48.597 C 44.833 48.458,45.973 48.342,46.450 48.339 C 47.508 48.332,49.000 48.028,49.000 47.820 C 49.000 47.674,46.769 47.621,46.417 47.758 M29.833 48.500 C 30.162 48.712,30.548 48.712,30.417 48.500 C 30.360 48.408,30.149 48.334,29.948 48.336 C 29.652 48.338,29.630 48.369,29.833 48.500 M30.895 48.798 C 30.955 48.895,31.247 49.025,31.544 49.087 C 32.340 49.253,33.964 50.348,34.178 50.863 C 34.444 51.502,34.726 51.541,35.395 51.031 C 36.330 50.321,36.302 50.148,35.273 50.269 C 34.455 50.365,34.347 50.335,33.809 49.863 C 33.033 49.182,30.577 48.284,30.895 48.798 M20.516 66.125 C 21.369 67.188,22.194 69.212,21.529 68.609 C 21.361 68.457,21.060 68.333,20.860 68.333 C 20.089 68.333,19.214 66.503,19.780 66.074 C 20.176 65.774,20.237 65.778,20.516 66.125 M49.241 77.204 C 49.555 77.653,49.578 78.496,49.286 78.896 C 48.972 79.324,47.517 79.454,41.493 79.590 L 36.236 79.708 35.313 79.188 C 34.119 78.514,33.022 78.481,31.833 79.083 C 31.074 79.468,30.834 79.500,28.713 79.500 C 25.543 79.500,25.005 79.319,25.005 78.250 C 25.005 77.185,24.286 77.252,35.952 77.233 C 42.832 77.223,46.789 77.155,47.167 77.042 C 48.201 76.732,48.951 76.791,49.241 77.204 M27.583 80.308 C 29.899 80.473,30.064 80.628,29.144 81.769 C 27.554 83.741,27.929 85.390,29.902 85.094 C 30.818 84.957,30.908 85.081,30.913 86.500 C 30.917 87.557,30.928 87.585,31.376 87.636 C 31.974 87.705,32.102 87.362,31.865 86.333 C 31.701 85.624,31.737 85.323,32.185 83.643 C 33.104 80.194,33.652 80.508,34.412 84.917 C 34.788 87.101,34.886 87.333,35.435 87.333 C 35.890 87.333,35.939 86.787,35.592 85.583 C 35.424 85.001,35.675 84.837,36.429 85.039 C 38.337 85.548,39.054 84.035,37.823 82.094 C 36.883 80.612,36.949 80.597,45.360 80.436 C 50.192 80.344,49.779 80.172,50.408 82.536 C 50.803 84.019,51.648 86.664,52.738 89.827 C 53.504 92.049,53.267 92.603,51.102 93.658 C 49.571 94.404,45.156 95.821,43.773 96.010 C 39.480 96.598,39.540 96.596,39.086 96.169 C 38.368 95.495,36.901 91.330,37.068 90.440 L 37.170 89.897 35.124 89.448 C 31.588 88.674,31.034 88.928,33.675 90.113 C 35.645 90.997,35.722 91.096,35.601 92.583 C 35.283 96.491,35.290 96.485,31.417 95.633 C 29.741 95.265,27.958 94.882,26.843 94.651 C 26.436 94.567,25.574 94.317,24.927 94.096 C 24.279 93.875,23.431 93.610,23.041 93.507 C 21.987 93.229,21.748 92.767,21.982 91.459 C 22.084 90.886,22.245 89.892,22.340 89.250 C 22.570 87.693,24.146 81.381,24.462 80.750 C 24.788 80.100,24.992 79.971,25.500 80.091 C 25.729 80.145,26.667 80.243,27.583 80.308 M31.274 81.420 C 31.567 82.183,30.332 84.237,29.639 84.138 C 28.985 84.046,29.056 83.375,29.828 82.340 C 30.723 81.141,31.080 80.914,31.274 81.420 M36.660 82.375 C 37.589 83.343,37.778 84.056,37.159 84.253 C 36.430 84.484,35.333 83.135,35.333 82.007 C 35.333 81.265,35.691 81.364,36.660 82.375 M51.946 94.934 C 52.003 95.081,51.921 95.797,51.765 96.523 C 51.442 98.026,51.494 98.351,52.109 98.680 C 53.224 99.277,54.356 101.937,54.395 104.055 L 54.417 105.194 53.083 105.613 C 51.501 106.110,51.063 106.419,52.167 106.259 C 55.082 105.836,55.116 105.847,55.408 107.400 C 55.645 108.664,55.497 109.168,54.830 109.369 C 54.603 109.438,53.742 109.692,52.917 109.933 C 51.285 110.411,49.875 110.870,49.071 111.184 C 48.356 111.463,47.757 111.265,47.385 110.626 C 46.958 109.891,46.641 108.762,46.768 108.430 C 46.917 108.040,49.389 106.942,50.536 106.755 C 50.876 106.699,51.205 106.572,51.267 106.473 C 51.398 106.261,50.794 106.338,49.167 106.741 C 46.860 107.313,47.002 107.342,46.027 106.102 C 44.451 104.097,43.919 102.382,44.423 100.934 C 44.778 99.916,44.753 99.846,43.632 98.715 C 42.405 97.477,42.414 97.460,44.500 97.093 C 45.920 96.843,48.730 95.877,50.583 95.002 C 51.415 94.610,51.814 94.590,51.946 94.934 M26.001 96.174 C 26.321 96.270,27.976 96.410,29.678 96.485 C 33.896 96.673,34.081 96.800,32.667 98.549 C 31.700 99.743,31.666 99.905,32.309 100.238 C 33.515 100.861,33.841 103.360,33.029 105.750 L 32.576 107.083 31.913 107.065 C 31.548 107.055,30.837 106.993,30.333 106.928 C 29.483 106.819,29.440 106.829,29.740 107.072 C 29.918 107.216,30.283 107.333,30.551 107.333 C 32.023 107.333,32.712 108.343,32.239 109.807 C 31.669 111.569,31.181 111.632,27.583 110.407 C 26.942 110.189,25.980 109.934,25.447 109.842 C 24.913 109.749,24.281 109.578,24.041 109.462 C 22.859 108.887,23.398 106.271,24.770 105.927 C 25.170 105.826,25.183 105.798,24.918 105.605 C 24.436 105.252,24.613 102.839,25.164 102.252 L 25.578 101.813 25.258 101.281 C 24.235 99.577,24.146 99.299,24.264 98.167 C 24.479 96.112,24.751 95.800,26.001 96.174 " stroke="none" fill="#392110" fill-rule="evenodd"></path><path id="path1" d="M46.200 14.533 C 45.870 14.863,45.951 15.005,47.158 16.192 C 50.007 18.996,49.902 20.653,46.822 21.510 C 46.141 21.700,45.396 21.908,45.167 21.972 C 44.129 22.265,44.947 26.078,46.274 27.137 C 46.708 27.483,46.768 27.608,46.618 27.850 C 46.314 28.335,46.696 28.906,47.482 29.142 C 48.193 29.354,48.347 29.562,47.917 29.727 C 47.001 30.078,48.317 32.238,49.950 33.064 C 52.354 34.279,57.849 31.939,56.167 30.417 C 55.983 30.251,55.833 29.938,55.833 29.721 C 55.833 29.120,54.904 28.842,51.042 28.292 C 48.252 27.895,48.131 27.841,49.292 27.521 C 52.107 26.743,53.258 26.151,54.141 25.028 C 57.023 21.359,54.575 16.545,48.833 14.593 C 47.935 14.288,46.479 14.255,46.200 14.533 M27.417 14.689 C 23.112 15.696,19.921 19.781,20.905 23.025 C 22.070 26.862,27.923 29.396,28.817 26.451 C 29.082 25.579,29.455 24.617,29.735 24.083 L 29.998 23.583 29.999 24.143 C 30.000 24.815,30.263 24.792,31.901 23.980 C 33.325 23.273,34.256 23.638,33.838 24.739 C 33.476 25.690,31.261 26.335,30.283 25.774 C 30.021 25.623,29.746 25.500,29.672 25.500 C 29.350 25.500,28.285 29.845,28.358 30.861 C 28.395 31.375,28.294 31.589,27.717 32.214 C 27.172 32.806,26.996 33.157,26.851 33.937 C 26.751 34.476,26.594 35.236,26.501 35.627 C 26.009 37.712,26.537 39.088,28.583 41.049 C 31.931 44.257,39.481 44.131,41.458 40.835 C 42.041 39.862,42.255 37.025,41.829 35.904 C 41.734 35.657,41.695 35.416,41.741 35.370 C 41.788 35.323,41.871 35.428,41.926 35.601 C 41.981 35.775,42.147 36.141,42.296 36.414 C 42.591 36.960,42.645 38.244,42.428 39.602 C 42.254 40.697,42.421 40.797,43.509 40.246 C 45.983 38.992,46.997 36.784,46.791 33.100 C 46.677 31.054,45.692 27.350,44.793 25.588 C 44.607 25.224,44.281 24.446,44.068 23.859 C 43.436 22.114,42.562 21.517,40.359 21.325 C 39.208 21.225,38.965 21.111,38.781 20.585 C 38.713 20.390,38.124 20.662,37.461 21.195 L 37.006 21.561 36.378 21.061 C 35.402 20.285,35.370 20.279,35.096 20.808 C 34.882 21.223,34.644 21.348,33.464 21.665 C 31.781 22.117,31.582 22.215,30.792 22.970 L 30.167 23.568 30.167 23.034 C 30.167 22.257,29.668 21.833,28.753 21.833 C 27.702 21.833,26.735 21.411,26.531 20.863 C 26.206 19.991,26.194 19.864,26.369 19.145 C 26.578 18.285,27.561 16.901,28.499 16.148 C 29.840 15.070,29.241 14.263,27.417 14.689 M49.333 15.061 C 55.671 17.265,57.133 23.946,51.815 26.402 C 48.062 28.137,46.458 27.795,45.364 25.026 C 44.553 22.974,44.740 22.000,45.946 22.000 C 46.594 22.000,48.537 21.206,48.985 20.757 C 49.924 19.818,49.350 18.065,47.474 16.140 C 45.774 14.395,46.390 14.037,49.333 15.061 M28.774 15.085 C 28.836 15.247,28.471 15.760,27.750 16.524 C 25.154 19.276,25.451 21.742,28.416 22.048 C 29.941 22.205,30.101 22.514,29.442 24.022 C 29.226 24.514,28.840 25.429,28.584 26.055 C 28.009 27.460,27.715 27.617,26.185 27.342 C 21.076 26.422,19.311 21.173,22.902 17.582 C 24.730 15.754,28.427 14.182,28.774 15.085 M39.750 24.462 C 40.483 24.645,41.383 24.860,41.748 24.939 C 42.563 25.116,42.740 25.584,42.085 25.833 C 40.177 26.558,36.742 25.438,37.356 24.291 C 37.551 23.927,37.634 23.933,39.750 24.462 M32.529 26.442 C 33.114 26.972,32.810 27.887,31.982 28.086 C 31.312 28.247,30.883 27.704,30.992 26.833 C 31.070 26.206,32.005 25.969,32.529 26.442 M75.769 26.469 C 75.494 26.914,72.389 28.055,70.679 28.341 C 69.639 28.515,69.627 28.528,69.156 30.083 C 68.962 30.725,68.583 31.754,68.314 32.371 C 66.730 36.000,66.888 38.855,68.850 42.083 C 69.719 43.513,69.919 44.201,69.491 44.291 C 68.701 44.457,66.731 42.097,66.235 40.391 C 65.392 37.489,60.909 39.370,58.917 43.462 C 58.270 44.790,57.967 45.090,57.777 44.593 C 57.628 44.204,57.850 43.132,58.220 42.457 C 59.307 40.472,55.022 41.940,53.224 44.167 C 52.097 45.565,51.966 45.597,52.101 44.446 C 52.197 43.635,52.141 43.369,51.619 42.140 C 51.294 41.375,50.602 39.512,50.081 38.000 C 48.420 33.174,48.168 32.741,48.165 34.694 C 48.158 38.240,46.459 40.539,42.045 42.972 C 37.344 45.563,34.001 45.736,30.737 43.555 C 30.212 43.204,29.592 42.789,29.361 42.634 C 28.837 42.282,28.717 42.355,28.328 43.263 C 27.403 45.419,24.987 46.983,23.221 46.567 C 18.307 45.411,13.305 48.081,12.422 52.333 C 12.224 53.286,11.897 53.667,11.279 53.667 C 8.818 53.667,6.399 56.654,4.490 62.051 C 3.940 63.604,3.725 63.989,2.926 64.852 C 1.500 66.393,1.681 67.286,3.738 68.839 C 4.225 69.206,5.097 70.148,5.678 70.932 C 7.322 73.151,9.388 74.532,12.643 75.586 C 14.269 76.112,14.430 76.076,14.586 75.149 C 14.734 74.274,15.899 72.122,17.050 70.596 C 17.527 69.964,17.990 69.348,18.081 69.227 C 18.197 69.070,18.020 68.554,17.468 67.443 C 15.868 64.220,13.629 62.620,10.349 62.353 C 8.070 62.167,8.876 61.242,11.284 61.279 C 13.032 61.305,16.046 62.827,16.998 64.164 C 17.754 65.225,19.840 63.581,19.230 62.404 C 17.516 59.101,18.339 53.981,21.009 51.333 C 22.875 49.483,24.347 48.994,22.643 50.790 C 19.219 54.400,18.840 59.005,21.700 62.263 C 22.506 63.180,25.931 64.667,27.239 64.667 C 27.737 64.667,28.004 65.117,27.649 65.359 C 27.518 65.448,26.838 65.473,26.083 65.415 C 23.475 65.215,23.589 65.203,23.534 65.674 C 23.507 65.907,23.822 67.262,24.233 68.684 C 24.645 70.106,25.174 72.203,25.408 73.343 C 25.949 75.975,25.871 75.907,28.613 76.100 C 33.397 76.436,46.978 76.111,47.679 75.644 C 47.872 75.516,48.299 74.707,48.661 73.786 C 49.537 71.558,49.596 71.489,51.449 70.505 C 55.201 68.513,59.876 64.046,61.264 61.127 C 61.671 60.270,61.601 60.248,59.379 60.561 C 58.300 60.713,56.793 60.836,56.031 60.835 C 54.375 60.833,54.266 60.884,52.667 62.400 C 50.117 64.818,47.762 65.661,43.471 65.692 C 40.209 65.716,39.833 65.614,39.833 64.702 C 39.833 64.307,39.866 64.294,40.625 64.393 C 47.985 65.347,52.950 62.241,53.447 56.369 C 53.564 54.988,53.698 54.814,54.247 55.331 C 55.028 56.064,55.592 55.487,56.577 52.946 C 57.380 50.874,57.725 50.333,58.248 50.333 C 59.370 50.333,58.279 53.682,56.312 56.276 C 54.071 59.231,54.194 59.623,57.306 59.458 C 63.219 59.145,69.231 56.326,74.253 51.511 C 75.876 49.954,76.243 49.688,77.419 49.211 C 78.836 48.637,81.678 46.726,82.121 46.049 C 82.420 45.594,82.257 45.167,81.121 43.427 C 80.608 42.642,80.585 42.540,80.629 41.177 C 80.796 35.979,76.997 24.482,75.769 26.469 M40.000 26.833 C 40.840 27.674,39.840 28.920,38.870 28.241 C 38.611 28.059,38.500 27.811,38.500 27.415 C 38.500 26.530,39.362 26.195,40.000 26.833 M41.171 27.594 C 41.991 29.751,39.577 31.691,38.527 29.719 C 38.124 28.961,38.270 28.338,38.804 28.540 C 39.572 28.830,40.158 28.580,40.474 27.828 C 40.797 27.059,40.948 27.008,41.171 27.594 M30.974 27.833 C 31.662 28.521,32.334 28.447,33.013 27.609 L 33.290 27.267 33.407 27.636 C 33.554 28.099,33.232 29.133,32.790 29.619 C 32.605 29.822,32.369 30.159,32.265 30.369 C 32.143 30.615,31.900 30.767,31.579 30.798 C 31.214 30.833,31.147 30.803,31.325 30.684 C 31.517 30.556,31.474 30.500,31.116 30.410 C 30.023 30.136,29.454 28.442,30.167 27.583 C 30.433 27.263,30.391 27.250,30.974 27.833 M24.583 28.340 C 24.308 28.416,23.521 28.605,22.833 28.759 C 18.945 29.631,18.479 31.951,21.983 32.995 C 24.830 33.843,26.749 33.108,27.409 30.916 C 27.719 29.886,27.538 29.594,26.676 29.734 C 24.515 30.084,23.993 29.985,25.598 29.530 C 26.377 29.308,26.920 28.798,26.775 28.423 C 26.666 28.138,25.471 28.093,24.583 28.340 M50.667 28.661 C 53.866 29.086,55.892 29.795,53.417 29.623 C 51.131 29.463,47.500 28.770,47.500 28.494 C 47.500 28.271,47.900 28.292,50.667 28.661 M25.290 28.952 C 25.366 29.182,21.945 30.333,21.188 30.333 C 19.884 30.333,21.368 29.508,23.583 29.001 C 25.010 28.675,25.195 28.670,25.290 28.952 M51.333 29.833 C 51.511 29.948,51.319 29.995,50.667 29.995 C 50.163 29.995,49.637 29.922,49.500 29.833 C 49.322 29.718,49.514 29.672,50.167 29.672 C 50.671 29.672,51.196 29.744,51.333 29.833 M27.000 30.744 C 27.000 32.206,25.150 33.198,23.099 32.835 C 20.287 32.337,18.978 30.723,21.556 30.932 C 22.288 30.991,23.111 30.899,24.417 30.610 C 26.986 30.042,27.000 30.043,27.000 30.744 M50.091 30.345 C 50.796 30.443,52.395 30.574,53.645 30.637 L 55.917 30.750 55.917 31.165 C 55.917 32.042,53.144 33.136,51.357 32.965 C 50.127 32.846,49.069 32.261,48.581 31.428 C 47.813 30.117,47.917 30.043,50.091 30.345 M38.797 31.541 C 39.471 31.878,40.667 33.037,40.667 33.354 C 40.667 33.424,40.423 33.252,40.125 32.973 C 39.456 32.345,37.932 31.341,37.350 31.145 C 36.976 31.020,36.994 31.011,37.483 31.084 C 37.795 31.130,38.386 31.336,38.797 31.541 M36.599 31.566 C 41.909 32.974,43.635 40.231,39.140 42.249 C 37.103 43.163,32.482 43.011,30.427 41.963 C 27.587 40.514,26.470 38.158,27.084 34.917 C 27.600 32.194,27.978 31.928,32.250 31.274 C 33.050 31.151,35.707 31.330,36.599 31.566 M35.500 32.784 C 34.274 33.233,34.165 34.735,35.330 35.140 C 36.264 35.466,37.333 34.724,37.333 33.751 C 37.333 33.067,36.266 32.504,35.500 32.784 M28.870 33.259 C 27.883 33.951,29.128 36.018,30.151 35.384 C 30.639 35.081,30.850 34.431,30.648 33.851 C 30.357 33.016,29.585 32.759,28.870 33.259 M36.805 33.825 C 36.915 34.566,36.065 35.058,35.342 34.671 C 34.655 34.304,34.769 33.583,35.567 33.243 C 36.187 32.978,36.716 33.227,36.805 33.825 M29.963 33.593 C 30.395 33.895,30.447 34.529,30.072 34.904 C 29.738 35.238,29.219 34.994,28.992 34.396 C 28.675 33.561,29.245 33.090,29.963 33.593 M49.000 47.820 C 49.000 48.028,47.508 48.332,46.450 48.339 C 45.973 48.342,44.833 48.458,43.917 48.597 C 41.710 48.931,40.055 49.074,40.202 48.918 C 40.359 48.750,41.285 48.565,44.000 48.159 C 45.237 47.974,46.325 47.793,46.417 47.758 C 46.769 47.621,49.000 47.674,49.000 47.820 M30.417 48.500 C 30.548 48.712,30.162 48.712,29.833 48.500 C 29.630 48.369,29.652 48.338,29.948 48.336 C 30.149 48.334,30.360 48.408,30.417 48.500 M32.489 49.077 C 32.896 49.229,33.490 49.582,33.809 49.863 C 34.347 50.335,34.455 50.365,35.273 50.269 C 36.302 50.148,36.330 50.321,35.395 51.031 C 34.726 51.541,34.444 51.502,34.178 50.863 C 33.964 50.348,32.340 49.253,31.544 49.087 C 30.853 48.943,30.590 48.585,31.268 48.712 C 31.533 48.761,32.083 48.926,32.489 49.077 M35.953 52.208 C 36.421 52.719,37.046 54.012,37.504 55.417 C 38.021 57.001,38.020 57.000,40.190 57.266 C 45.260 57.888,45.493 59.421,40.980 62.459 C 40.281 62.930,39.662 63.437,39.605 63.588 C 39.430 64.044,39.487 64.825,39.731 65.300 C 40.317 66.443,40.886 70.952,40.502 71.414 C 39.915 72.121,38.525 71.630,35.285 69.568 C 33.251 68.275,33.374 68.279,31.833 69.442 C 28.701 71.803,27.172 71.689,27.394 69.112 C 27.556 67.243,27.773 65.925,27.983 65.532 C 28.089 65.334,28.244 64.814,28.327 64.377 L 28.478 63.583 27.684 62.750 C 24.114 59.005,24.465 57.860,29.400 57.151 C 30.776 56.954,30.904 56.902,31.150 56.448 C 33.065 52.924,35.023 51.195,35.953 52.208 M50.583 95.002 C 48.730 95.877,45.920 96.843,44.500 97.093 C 42.414 97.460,42.405 97.477,43.632 98.715 C 44.753 99.846,44.778 99.916,44.423 100.934 C 43.919 102.382,44.451 104.097,46.027 106.102 C 47.002 107.342,46.860 107.313,49.167 106.741 C 50.794 106.338,51.398 106.261,51.267 106.473 C 51.205 106.572,50.876 106.699,50.536 106.755 C 49.389 106.942,46.917 108.040,46.768 108.430 C 46.641 108.762,46.958 109.891,47.385 110.626 C 47.757 111.265,48.356 111.463,49.071 111.184 C 49.875 110.870,51.285 110.411,52.917 109.933 C 53.742 109.692,54.603 109.438,54.830 109.369 C 55.497 109.168,55.645 108.664,55.408 107.400 C 55.116 105.847,55.082 105.836,52.167 106.259 C 51.063 106.419,51.501 106.110,53.083 105.613 L 54.417 105.194 54.395 104.055 C 54.356 101.937,53.224 99.277,52.109 98.680 C 51.494 98.351,51.442 98.026,51.765 96.523 C 52.176 94.611,51.971 94.347,50.583 95.002 M24.885 96.131 C 24.587 96.321,24.390 96.966,24.264 98.167 C 24.146 99.299,24.235 99.577,25.258 101.281 L 25.578 101.813 25.164 102.252 C 24.613 102.839,24.436 105.252,24.918 105.605 C 25.183 105.798,25.170 105.826,24.770 105.927 C 23.398 106.271,22.859 108.887,24.041 109.462 C 24.281 109.578,24.913 109.749,25.447 109.842 C 25.980 109.934,26.942 110.189,27.583 110.407 C 31.181 111.632,31.669 111.569,32.239 109.807 C 32.712 108.343,32.023 107.333,30.551 107.333 C 30.283 107.333,29.918 107.216,29.740 107.072 C 29.440 106.829,29.483 106.819,30.333 106.928 C 30.837 106.993,31.548 107.055,31.913 107.065 L 32.576 107.083 33.029 105.750 C 33.841 103.360,33.515 100.861,32.309 100.238 C 31.666 99.905,31.700 99.743,32.667 98.549 C 34.081 96.800,33.896 96.673,29.678 96.485 C 27.976 96.410,26.321 96.270,26.001 96.174 C 25.315 95.969,25.150 95.963,24.885 96.131 M54.973 106.458 C 55.914 108.269,55.378 108.993,52.474 109.833 C 51.251 110.187,49.922 110.594,49.521 110.738 C 48.194 111.214,47.875 111.121,47.411 110.125 C 46.672 108.538,46.824 108.303,49.083 107.534 C 52.819 106.264,54.694 105.922,54.973 106.458 M28.382 107.082 C 32.584 108.141,32.860 108.438,31.685 110.633 C 31.403 111.160,30.251 111.020,27.366 110.105 C 26.605 109.864,25.855 109.666,25.700 109.666 C 23.933 109.660,23.116 108.321,23.998 106.875 C 24.441 106.150,24.744 106.164,28.382 107.082 " stroke="none" fill="#7d512d" fill-rule="evenodd"></path><path id="path2" d="M47.167 77.042 C 46.789 77.155,42.832 77.223,35.952 77.233 C 24.286 77.252,25.005 77.185,25.005 78.250 C 25.005 79.319,25.543 79.500,28.713 79.500 C 30.834 79.500,31.074 79.468,31.833 79.083 C 33.022 78.481,34.119 78.514,35.313 79.188 L 36.236 79.708 41.493 79.590 C 49.097 79.418,49.500 79.343,49.500 78.089 C 49.500 76.941,48.701 76.583,47.167 77.042 M24.898 80.121 C 24.409 80.462,22.778 86.283,22.340 89.250 C 22.245 89.892,22.084 90.886,21.982 91.459 C 21.748 92.767,21.987 93.229,23.041 93.507 C 23.431 93.610,24.279 93.875,24.927 94.096 C 25.574 94.317,26.436 94.567,26.843 94.651 C 27.958 94.882,29.741 95.265,31.417 95.633 C 35.290 96.485,35.283 96.491,35.601 92.583 C 35.722 91.096,35.645 90.997,33.675 90.113 C 31.034 88.928,31.588 88.674,35.124 89.448 L 37.170 89.897 37.068 90.440 C 36.901 91.330,38.368 95.495,39.086 96.169 C 39.540 96.596,39.480 96.598,43.773 96.010 C 45.156 95.821,49.571 94.404,51.102 93.658 C 53.267 92.603,53.504 92.049,52.738 89.827 C 51.648 86.664,50.803 84.019,50.408 82.536 C 49.779 80.172,50.192 80.344,45.360 80.436 C 36.949 80.597,36.883 80.612,37.823 82.094 C 39.054 84.035,38.337 85.548,36.429 85.039 C 35.675 84.837,35.424 85.001,35.592 85.583 C 35.939 86.787,35.890 87.333,35.435 87.333 C 34.886 87.333,34.788 87.101,34.412 84.917 C 33.652 80.508,33.104 80.194,32.185 83.643 C 31.737 85.323,31.701 85.624,31.865 86.333 C 32.102 87.362,31.974 87.705,31.376 87.636 C 30.928 87.585,30.917 87.557,30.913 86.500 C 30.908 85.081,30.818 84.957,29.902 85.094 C 27.929 85.390,27.554 83.741,29.144 81.769 C 30.064 80.628,29.899 80.473,27.583 80.308 C 26.667 80.243,25.729 80.145,25.500 80.091 C 25.271 80.037,25.000 80.050,24.898 80.121 M30.711 81.303 C 30.200 81.627,29.154 83.264,29.201 83.665 C 29.331 84.775,30.444 84.153,31.003 82.659 C 31.452 81.458,31.333 80.907,30.711 81.303 M35.333 82.007 C 35.333 83.135,36.430 84.484,37.159 84.253 C 37.778 84.056,37.589 83.343,36.660 82.375 C 35.691 81.364,35.333 81.265,35.333 82.007 " stroke="none" fill="#52c704" fill-rule="evenodd"></path><path id="path3" d="M47.500 15.257 C 47.500 15.307,47.887 15.813,48.359 16.381 C 50.896 19.429,50.317 21.396,46.612 22.318 L 45.417 22.615 45.444 23.401 C 45.524 25.640,46.917 27.174,48.637 26.918 C 55.402 25.911,56.789 20.059,51.122 16.434 C 49.871 15.634,47.500 14.864,47.500 15.257 M26.880 15.664 C 20.775 17.823,19.512 24.107,24.721 26.411 C 26.926 27.386,27.696 27.175,28.342 25.417 C 28.544 24.867,28.856 24.089,29.035 23.688 C 29.431 22.801,29.356 22.713,28.020 22.477 C 25.085 21.960,24.649 19.227,27.073 16.543 C 28.046 15.465,28.002 15.267,26.880 15.664 M31.398 26.905 C 31.232 27.337,31.465 27.695,31.874 27.637 C 32.150 27.598,32.250 27.472,32.250 27.167 C 32.250 26.675,31.567 26.465,31.398 26.905 M38.949 27.225 C 38.810 27.587,39.231 28.075,39.571 27.944 C 39.980 27.788,39.847 27.097,39.396 27.033 C 39.202 27.005,39.001 27.092,38.949 27.225 M125.583 43.333 C 125.527 43.425,125.077 43.500,124.583 43.500 C 124.090 43.500,123.640 43.575,123.583 43.667 C 123.527 43.758,123.185 43.833,122.823 43.833 C 122.462 43.833,122.167 43.908,122.167 44.000 C 122.167 44.092,121.942 44.167,121.667 44.167 C 121.392 44.167,121.167 44.242,121.167 44.333 C 121.167 44.425,120.942 44.500,120.667 44.500 C 120.392 44.500,120.167 44.575,120.167 44.667 C 120.167 44.758,120.021 44.833,119.843 44.833 C 119.665 44.833,119.473 44.908,119.417 45.000 C 119.360 45.092,119.131 45.167,118.907 45.167 C 118.683 45.167,118.500 45.242,118.500 45.333 C 118.500 45.425,118.350 45.500,118.167 45.500 C 117.983 45.500,117.833 45.575,117.833 45.667 C 117.833 45.758,117.683 45.833,117.500 45.833 C 117.317 45.833,117.167 45.908,117.167 46.000 C 117.167 46.092,117.033 46.167,116.870 46.167 C 116.707 46.167,116.465 46.317,116.333 46.500 C 116.201 46.683,115.976 46.833,115.833 46.833 C 115.690 46.833,115.465 46.983,115.333 47.167 C 115.201 47.350,114.991 47.500,114.867 47.500 C 114.742 47.500,114.352 47.800,114.000 48.167 C 113.648 48.533,113.282 48.833,113.188 48.833 C 113.094 48.833,112.807 49.115,112.550 49.458 C 112.293 49.802,111.821 50.346,111.500 50.667 C 111.179 50.987,110.810 51.456,110.680 51.708 C 110.550 51.960,110.381 52.167,110.305 52.167 C 110.229 52.167,110.167 52.265,110.167 52.385 C 110.167 52.505,110.017 52.765,109.833 52.962 C 109.650 53.158,109.500 53.435,109.500 53.576 C 109.500 53.718,109.425 53.833,109.333 53.833 C 109.242 53.833,109.167 53.983,109.167 54.167 C 109.167 54.350,109.092 54.500,109.000 54.500 C 108.908 54.500,108.833 54.650,108.833 54.833 C 108.833 55.017,108.758 55.167,108.667 55.167 C 108.575 55.167,108.500 55.318,108.500 55.502 C 108.500 55.687,108.425 55.987,108.333 56.169 C 108.242 56.351,108.092 56.649,108.000 56.831 C 107.908 57.013,107.833 57.346,107.833 57.571 C 107.833 57.796,107.758 58.027,107.667 58.083 C 107.575 58.140,107.500 58.482,107.500 58.843 C 107.500 59.204,107.425 59.500,107.333 59.500 C 107.242 59.500,107.167 59.871,107.167 60.323 C 107.167 60.776,107.092 61.193,107.000 61.250 C 106.896 61.314,106.833 62.860,106.833 65.333 C 106.833 67.807,106.896 69.353,107.000 69.417 C 107.092 69.473,107.167 69.886,107.167 70.333 C 107.167 70.781,107.242 71.193,107.333 71.250 C 107.425 71.307,107.500 71.607,107.500 71.917 C 107.500 72.227,107.575 72.527,107.667 72.583 C 107.758 72.640,107.833 72.944,107.833 73.260 C 107.833 73.575,107.908 73.833,108.000 73.833 C 108.092 73.833,108.167 74.016,108.167 74.240 C 108.167 74.464,108.242 74.693,108.333 74.750 C 108.425 74.807,108.500 74.999,108.500 75.177 C 108.500 75.354,108.575 75.500,108.667 75.500 C 108.758 75.500,108.833 75.650,108.833 75.833 C 108.833 76.017,108.908 76.167,109.000 76.167 C 109.092 76.167,109.167 76.317,109.167 76.500 C 109.167 76.683,109.242 76.833,109.333 76.833 C 109.425 76.833,109.500 76.983,109.500 77.167 C 109.500 77.350,109.575 77.500,109.667 77.500 C 109.758 77.500,109.834 77.594,109.834 77.708 C 109.834 77.823,110.059 78.179,110.333 78.500 C 110.608 78.821,110.833 79.145,110.833 79.221 C 110.833 79.297,111.120 79.635,111.469 79.971 C 111.819 80.308,112.240 80.790,112.405 81.042 C 112.570 81.294,112.776 81.500,112.863 81.500 C 112.950 81.500,113.387 81.875,113.833 82.333 C 114.280 82.792,114.746 83.167,114.869 83.167 C 114.992 83.167,115.201 83.317,115.333 83.500 C 115.465 83.683,115.673 83.833,115.794 83.833 C 115.915 83.833,116.175 83.983,116.372 84.167 C 116.569 84.350,116.828 84.500,116.948 84.500 C 117.068 84.500,117.167 84.575,117.167 84.667 C 117.167 84.758,117.317 84.833,117.500 84.833 C 117.683 84.833,117.833 84.908,117.833 85.000 C 117.833 85.092,117.979 85.167,118.157 85.167 C 118.335 85.167,118.527 85.242,118.583 85.333 C 118.640 85.425,118.869 85.500,119.093 85.500 C 119.317 85.500,119.500 85.575,119.500 85.667 C 119.500 85.758,119.725 85.833,120.000 85.833 C 120.275 85.833,120.500 85.908,120.500 86.000 C 120.500 86.092,120.725 86.167,121.000 86.167 C 121.275 86.167,121.500 86.242,121.500 86.333 C 121.500 86.425,121.800 86.500,122.167 86.500 C 122.533 86.500,122.833 86.575,122.833 86.667 C 122.833 86.759,123.278 86.833,123.833 86.833 C 124.389 86.833,124.833 86.907,124.833 87.000 C 124.833 87.103,125.667 87.167,127.002 87.167 C 128.440 87.167,129.283 87.236,129.502 87.373 C 129.766 87.538,129.901 87.538,130.164 87.373 C 130.387 87.234,131.261 87.167,132.831 87.167 C 134.277 87.167,135.167 87.103,135.167 87.000 C 135.167 86.906,135.636 86.833,136.240 86.833 C 136.831 86.833,137.360 86.758,137.417 86.667 C 137.473 86.575,137.848 86.500,138.250 86.500 C 138.652 86.500,139.027 86.425,139.083 86.333 C 139.140 86.242,139.482 86.167,139.843 86.167 C 140.204 86.167,140.500 86.092,140.500 86.000 C 140.500 85.908,140.725 85.833,141.000 85.833 C 141.275 85.833,141.500 85.758,141.500 85.667 C 141.500 85.575,141.758 85.500,142.073 85.500 C 142.389 85.500,142.693 85.425,142.750 85.333 C 142.807 85.242,142.999 85.167,143.177 85.167 C 143.354 85.167,143.500 85.092,143.500 85.000 C 143.500 84.908,143.598 84.833,143.717 84.833 C 144.040 84.833,145.167 83.747,145.167 83.436 C 145.167 83.288,145.242 83.167,145.333 83.167 C 145.425 83.167,145.500 82.984,145.500 82.760 C 145.500 82.536,145.575 82.307,145.667 82.250 C 145.774 82.183,145.833 79.082,145.833 73.490 C 145.833 67.830,145.776 64.833,145.667 64.833 C 145.575 64.833,145.500 64.660,145.500 64.449 C 145.500 63.998,144.493 62.833,144.103 62.833 C 143.954 62.833,143.833 62.758,143.833 62.667 C 143.833 62.575,143.608 62.500,143.333 62.500 C 143.058 62.500,142.833 62.425,142.833 62.333 C 142.833 62.225,140.722 62.167,136.833 62.167 C 132.944 62.167,130.833 62.225,130.833 62.333 C 130.833 62.425,130.608 62.500,130.333 62.500 C 130.058 62.500,129.833 62.575,129.833 62.667 C 129.833 62.758,129.712 62.833,129.564 62.833 C 129.174 62.833,128.167 63.998,128.167 64.449 C 128.167 64.660,128.092 64.833,128.000 64.833 C 127.901 64.833,127.833 65.441,127.833 66.323 C 127.833 67.143,127.908 67.860,128.000 67.917 C 128.092 67.973,128.167 68.167,128.167 68.348 C 128.167 68.834,129.567 70.167,130.079 70.167 C 130.311 70.167,130.500 70.242,130.500 70.333 C 130.500 70.438,131.556 70.500,133.333 70.500 L 136.167 70.500 136.167 73.667 L 136.167 76.833 135.333 76.833 C 134.875 76.833,134.500 76.908,134.500 77.000 C 134.500 77.095,134.000 77.167,133.333 77.167 C 132.667 77.167,132.167 77.238,132.167 77.333 C 132.167 77.433,131.503 77.500,130.510 77.500 C 129.585 77.500,128.807 77.426,128.750 77.333 C 128.693 77.242,128.243 77.167,127.750 77.167 C 127.257 77.167,126.807 77.092,126.750 77.000 C 126.693 76.908,126.389 76.833,126.073 76.833 C 125.758 76.833,125.500 76.758,125.500 76.667 C 125.500 76.575,125.350 76.500,125.167 76.500 C 124.983 76.500,124.833 76.425,124.833 76.333 C 124.833 76.242,124.683 76.167,124.500 76.167 C 124.317 76.167,124.167 76.092,124.167 76.000 C 124.167 75.908,124.017 75.833,123.833 75.833 C 123.650 75.833,123.500 75.771,123.500 75.695 C 123.500 75.619,123.295 75.450,123.044 75.320 C 122.451 75.013,121.167 73.739,121.167 73.458 C 121.167 73.338,121.017 73.132,120.833 73.000 C 120.650 72.868,120.500 72.626,120.500 72.463 C 120.500 72.300,120.425 72.167,120.333 72.167 C 120.242 72.167,120.167 72.017,120.167 71.833 C 120.167 71.650,120.092 71.500,120.000 71.500 C 119.908 71.500,119.833 71.317,119.833 71.093 C 119.833 70.869,119.758 70.640,119.667 70.583 C 119.575 70.527,119.500 70.260,119.500 69.990 C 119.500 69.721,119.425 69.500,119.333 69.500 C 119.242 69.500,119.167 69.092,119.167 68.593 C 119.167 68.094,119.092 67.640,119.000 67.583 C 118.903 67.523,118.833 66.582,118.833 65.323 C 118.833 63.997,118.897 63.167,119.000 63.167 C 119.093 63.167,119.167 62.722,119.167 62.167 C 119.167 61.611,119.241 61.167,119.333 61.167 C 119.425 61.167,119.500 60.946,119.500 60.677 C 119.500 60.407,119.575 60.140,119.667 60.083 C 119.758 60.027,119.833 59.797,119.833 59.573 C 119.833 59.350,119.908 59.167,120.000 59.167 C 120.092 59.167,120.167 59.017,120.167 58.833 C 120.167 58.650,120.242 58.500,120.333 58.500 C 120.425 58.500,120.500 58.350,120.500 58.167 C 120.500 57.983,120.562 57.833,120.639 57.833 C 120.715 57.833,120.883 57.628,121.014 57.378 C 121.298 56.830,122.920 55.167,123.170 55.167 C 123.268 55.167,123.508 55.017,123.705 54.833 C 123.902 54.650,124.161 54.500,124.281 54.500 C 124.402 54.500,124.500 54.425,124.500 54.333 C 124.500 54.242,124.725 54.167,125.000 54.167 C 125.275 54.167,125.500 54.092,125.500 54.000 C 125.500 53.908,125.725 53.833,126.000 53.833 C 126.275 53.833,126.500 53.758,126.500 53.667 C 126.500 53.575,126.796 53.500,127.157 53.500 C 127.518 53.500,127.860 53.425,127.917 53.333 C 127.978 53.234,129.082 53.167,130.667 53.167 C 132.252 53.167,133.355 53.234,133.417 53.333 C 133.473 53.425,133.890 53.500,134.343 53.500 C 134.796 53.500,135.167 53.575,135.167 53.667 C 135.167 53.758,135.393 53.833,135.669 53.833 C 135.945 53.833,136.339 53.920,136.544 54.026 C 137.346 54.441,137.507 54.500,137.831 54.500 C 138.016 54.500,138.167 54.575,138.167 54.667 C 138.167 54.758,138.312 54.833,138.490 54.833 C 138.668 54.833,138.860 54.908,138.917 55.000 C 138.973 55.092,139.278 55.167,139.593 55.167 C 139.909 55.167,140.167 55.242,140.167 55.333 C 140.167 55.425,140.500 55.500,140.907 55.500 C 141.314 55.500,141.693 55.425,141.750 55.333 C 141.807 55.242,142.074 55.167,142.343 55.167 C 142.613 55.167,142.833 55.092,142.833 55.000 C 142.833 54.908,142.948 54.833,143.088 54.833 C 143.418 54.833,144.833 53.418,144.833 53.088 C 144.833 52.948,144.908 52.833,145.000 52.833 C 145.092 52.833,145.167 52.688,145.167 52.510 C 145.167 52.332,145.242 52.140,145.333 52.083 C 145.429 52.024,145.500 51.165,145.500 50.073 C 145.500 48.913,145.435 48.167,145.333 48.167 C 145.242 48.167,145.167 48.017,145.167 47.833 C 145.167 47.650,145.110 47.500,145.041 47.500 C 144.971 47.500,144.815 47.275,144.693 47.000 C 144.572 46.725,144.380 46.500,144.267 46.500 C 144.155 46.500,143.902 46.350,143.705 46.167 C 143.508 45.983,143.232 45.833,143.090 45.833 C 142.949 45.833,142.833 45.758,142.833 45.667 C 142.833 45.575,142.683 45.500,142.500 45.500 C 142.317 45.500,142.167 45.425,142.167 45.333 C 142.167 45.242,142.017 45.167,141.833 45.167 C 141.650 45.167,141.500 45.092,141.500 45.000 C 141.500 44.908,141.275 44.833,141.000 44.833 C 140.725 44.833,140.500 44.758,140.500 44.667 C 140.500 44.575,140.317 44.500,140.093 44.500 C 139.869 44.500,139.640 44.425,139.583 44.333 C 139.527 44.242,139.260 44.167,138.990 44.167 C 138.721 44.167,138.500 44.092,138.500 44.000 C 138.500 43.908,138.200 43.833,137.833 43.833 C 137.467 43.833,137.167 43.758,137.167 43.667 C 137.167 43.574,136.722 43.500,136.167 43.500 C 135.611 43.500,135.167 43.426,135.167 43.333 C 135.167 43.226,133.476 43.167,130.427 43.167 C 127.446 43.167,125.648 43.229,125.583 43.333 M153.083 43.333 C 153.027 43.425,152.834 43.500,152.655 43.500 C 152.364 43.500,151.722 43.778,151.500 44.000 C 151.454 44.046,151.272 44.163,151.094 44.261 C 150.917 44.359,150.692 44.583,150.594 44.759 C 150.497 44.935,150.285 45.201,150.125 45.351 C 149.965 45.500,149.833 45.778,149.833 45.968 C 149.833 46.158,149.758 46.360,149.667 46.417 C 149.574 46.474,149.500 47.252,149.500 48.177 C 149.500 49.170,149.567 49.833,149.667 49.833 C 149.758 49.833,149.833 50.042,149.833 50.297 C 149.833 50.569,149.971 50.859,150.167 51.000 C 150.350 51.132,150.500 51.357,150.500 51.500 C 150.500 51.643,150.650 51.868,150.833 52.000 C 151.017 52.132,151.167 52.357,151.167 52.500 C 151.167 52.643,151.317 52.868,151.500 53.000 C 151.683 53.132,151.834 53.317,151.834 53.412 C 151.834 53.506,152.059 53.846,152.333 54.167 C 152.608 54.487,152.833 54.827,152.833 54.922 C 152.833 55.016,152.983 55.201,153.167 55.333 C 153.350 55.465,153.500 55.690,153.500 55.833 C 153.500 55.976,153.650 56.201,153.833 56.333 C 154.017 56.465,154.167 56.690,154.167 56.833 C 154.167 56.976,154.317 57.201,154.500 57.333 C 154.683 57.465,154.834 57.651,154.834 57.745 C 154.834 57.839,155.059 58.179,155.333 58.500 C 155.608 58.821,155.833 59.161,155.833 59.255 C 155.833 59.349,155.983 59.535,156.167 59.667 C 156.350 59.799,156.500 60.024,156.500 60.167 C 156.500 60.310,156.650 60.535,156.833 60.667 C 157.017 60.799,157.167 61.024,157.167 61.167 C 157.167 61.310,157.317 61.535,157.500 61.667 C 157.683 61.799,157.834 61.984,157.834 62.078 C 157.834 62.173,158.059 62.512,158.333 62.833 C 158.608 63.154,158.833 63.494,158.833 63.588 C 158.833 63.683,158.983 63.868,159.167 64.000 C 159.350 64.132,159.500 64.357,159.500 64.500 C 159.500 64.643,159.650 64.868,159.833 65.000 C 160.017 65.132,160.167 65.357,160.167 65.500 C 160.167 65.643,160.317 65.868,160.500 66.000 C 160.683 66.132,160.834 66.317,160.834 66.412 C 160.834 66.506,161.059 66.846,161.333 67.167 L 161.833 67.750 161.833 75.458 C 161.833 80.486,161.891 83.167,162.000 83.167 C 162.092 83.167,162.167 83.392,162.167 83.667 C 162.167 83.942,162.242 84.167,162.333 84.167 C 162.425 84.167,162.500 84.317,162.500 84.500 C 162.500 84.683,162.575 84.833,162.667 84.833 C 162.758 84.833,162.833 84.949,162.833 85.091 C 162.833 85.355,163.546 86.164,163.784 86.170 C 163.857 86.172,164.104 86.321,164.333 86.500 C 164.563 86.679,164.919 86.828,165.125 86.830 C 165.331 86.832,165.500 86.908,165.500 87.000 C 165.500 87.103,166.333 87.167,167.667 87.167 C 169.000 87.167,169.833 87.103,169.833 87.000 C 169.833 86.908,170.058 86.833,170.333 86.833 C 170.608 86.833,170.833 86.758,170.833 86.667 C 170.833 86.575,170.948 86.500,171.089 86.500 C 171.735 86.500,173.167 84.544,173.167 83.662 C 173.167 83.389,173.242 83.167,173.333 83.167 C 173.442 83.167,173.500 80.486,173.500 75.458 L 173.501 67.750 174.000 67.167 C 174.275 66.846,174.499 66.506,174.500 66.412 C 174.500 66.317,174.650 66.132,174.833 66.000 C 175.017 65.868,175.167 65.643,175.167 65.500 C 175.167 65.357,175.317 65.132,175.500 65.000 C 175.683 64.868,175.833 64.643,175.833 64.500 C 175.833 64.357,175.983 64.132,176.167 64.000 C 176.350 63.868,176.500 63.643,176.500 63.500 C 176.500 63.357,176.650 63.132,176.833 63.000 C 177.017 62.868,177.167 62.683,177.167 62.588 C 177.167 62.494,177.392 62.154,177.667 61.833 C 177.941 61.512,178.166 61.173,178.166 61.078 C 178.166 60.984,178.317 60.799,178.500 60.667 C 178.683 60.535,178.833 60.310,178.833 60.167 C 178.833 60.024,178.983 59.799,179.167 59.667 C 179.350 59.535,179.500 59.310,179.500 59.167 C 179.500 59.024,179.650 58.799,179.833 58.667 C 180.017 58.535,180.167 58.349,180.167 58.255 C 180.167 58.161,180.392 57.821,180.667 57.500 C 180.941 57.179,181.166 56.839,181.166 56.745 C 181.166 56.651,181.317 56.465,181.500 56.333 C 181.683 56.201,181.833 55.976,181.833 55.833 C 181.833 55.690,181.983 55.465,182.167 55.333 C 182.350 55.201,182.500 54.976,182.500 54.833 C 182.500 54.690,182.650 54.465,182.833 54.333 C 183.017 54.201,183.167 53.996,183.167 53.878 C 183.167 53.760,183.392 53.428,183.667 53.140 C 183.942 52.853,184.167 52.550,184.167 52.468 C 184.167 52.386,184.317 52.158,184.500 51.962 C 184.683 51.765,184.833 51.505,184.833 51.385 C 184.833 51.265,184.908 51.167,185.000 51.167 C 185.092 51.167,185.167 51.017,185.167 50.833 C 185.167 50.650,185.242 50.500,185.333 50.500 C 185.425 50.500,185.500 50.350,185.500 50.167 C 185.500 49.983,185.575 49.833,185.667 49.833 C 185.758 49.833,185.833 49.613,185.833 49.343 C 185.833 49.074,185.908 48.807,186.000 48.750 C 186.092 48.693,186.167 48.281,186.167 47.833 C 186.167 47.386,186.092 46.973,186.000 46.917 C 185.908 46.860,185.833 46.570,185.833 46.272 C 185.833 45.973,185.696 45.582,185.528 45.402 C 185.361 45.222,185.089 44.870,184.926 44.621 C 184.762 44.371,184.524 44.167,184.397 44.167 C 184.271 44.167,184.167 44.110,184.167 44.041 C 184.167 43.971,183.923 43.816,183.625 43.696 C 183.327 43.576,182.953 43.408,182.794 43.322 C 182.404 43.113,179.214 43.122,179.083 43.333 C 179.027 43.425,178.850 43.500,178.690 43.500 C 178.325 43.500,177.503 43.875,177.501 44.042 C 177.501 44.110,177.381 44.167,177.236 44.167 C 176.939 44.167,175.167 45.939,175.167 46.236 C 175.167 46.341,175.017 46.535,174.833 46.667 C 174.650 46.799,174.500 47.024,174.500 47.167 C 174.500 47.310,174.350 47.535,174.167 47.667 C 173.983 47.799,173.833 48.024,173.833 48.167 C 173.833 48.310,173.683 48.535,173.500 48.667 C 173.317 48.799,173.167 49.024,173.167 49.167 C 173.167 49.310,173.017 49.535,172.833 49.667 C 172.650 49.799,172.500 50.024,172.500 50.167 C 172.500 50.310,172.350 50.535,172.167 50.667 C 171.983 50.799,171.833 50.984,171.833 51.078 C 171.833 51.173,171.608 51.512,171.333 51.833 C 171.059 52.154,170.834 52.510,170.834 52.625 C 170.834 52.740,170.771 52.833,170.695 52.833 C 170.619 52.833,170.450 53.040,170.321 53.292 C 170.192 53.544,169.954 53.871,169.793 54.020 C 169.632 54.168,169.500 54.395,169.500 54.524 C 169.500 54.654,169.350 54.868,169.167 55.000 C 168.983 55.132,168.833 55.357,168.833 55.500 C 168.833 55.643,168.683 55.868,168.500 56.000 C 168.317 56.132,168.167 56.374,168.167 56.537 C 168.167 56.722,168.042 56.833,167.833 56.833 C 167.625 56.833,167.500 56.722,167.500 56.537 C 167.500 56.374,167.350 56.132,167.167 56.000 C 166.983 55.868,166.833 55.678,166.833 55.578 C 166.833 55.478,166.702 55.251,166.542 55.073 C 166.381 54.895,166.144 54.544,166.014 54.292 C 165.883 54.040,165.715 53.833,165.639 53.833 C 165.562 53.833,165.500 53.740,165.500 53.625 C 165.499 53.510,165.275 53.154,165.000 52.833 C 164.725 52.512,164.501 52.156,164.500 52.042 C 164.500 51.927,164.438 51.833,164.361 51.833 C 164.285 51.833,164.117 51.627,163.988 51.375 C 163.858 51.123,163.621 50.795,163.459 50.647 C 163.298 50.499,163.167 50.272,163.167 50.142 C 163.167 50.013,163.017 49.799,162.833 49.667 C 162.650 49.535,162.500 49.310,162.500 49.167 C 162.500 49.024,162.350 48.799,162.167 48.667 C 161.983 48.535,161.833 48.310,161.833 48.167 C 161.833 48.024,161.683 47.799,161.500 47.667 C 161.317 47.535,161.167 47.310,161.167 47.167 C 161.167 47.024,161.017 46.799,160.833 46.667 C 160.650 46.535,160.500 46.335,160.500 46.224 C 160.500 45.939,158.696 44.167,158.406 44.167 C 158.274 44.167,158.167 44.092,158.167 44.000 C 158.167 43.908,158.017 43.833,157.833 43.833 C 157.650 43.833,157.500 43.758,157.500 43.667 C 157.500 43.575,157.275 43.500,157.000 43.500 C 156.725 43.500,156.500 43.425,156.500 43.333 C 156.500 43.233,155.837 43.167,154.843 43.167 C 153.918 43.167,153.141 43.240,153.083 43.333 M197.417 43.333 C 197.360 43.425,197.112 43.502,196.865 43.504 C 196.618 43.506,196.229 43.654,196.000 43.833 C 195.771 44.013,195.524 44.161,195.451 44.163 C 195.212 44.170,194.500 44.979,194.500 45.242 C 194.500 45.384,194.425 45.500,194.333 45.500 C 194.242 45.500,194.167 45.650,194.167 45.833 C 194.167 46.017,194.092 46.167,194.000 46.167 C 193.908 46.167,193.833 46.500,193.833 46.907 C 193.833 47.314,193.758 47.693,193.667 47.750 C 193.557 47.818,193.500 53.776,193.500 65.083 C 193.500 76.390,193.557 82.349,193.667 82.417 C 193.758 82.473,193.833 82.886,193.833 83.333 C 193.833 83.781,193.908 84.193,194.000 84.250 C 194.092 84.307,194.167 84.487,194.167 84.650 C 194.167 85.028,195.546 86.500,195.900 86.500 C 196.047 86.500,196.167 86.575,196.167 86.667 C 196.167 86.758,196.350 86.833,196.573 86.833 C 196.797 86.833,197.027 86.908,197.083 87.000 C 197.142 87.095,197.974 87.167,199.010 87.167 C 200.114 87.167,200.833 87.101,200.833 87.000 C 200.833 86.908,201.058 86.833,201.333 86.833 C 201.608 86.833,201.833 86.758,201.833 86.667 C 201.833 86.575,201.948 86.500,202.089 86.500 C 202.421 86.500,203.500 85.421,203.500 85.089 C 203.500 84.948,203.575 84.833,203.667 84.833 C 203.758 84.833,203.833 84.608,203.833 84.333 C 203.833 84.058,203.908 83.833,204.000 83.833 C 204.109 83.833,204.167 80.611,204.167 74.500 C 204.167 68.389,204.224 65.167,204.333 65.167 C 204.425 65.167,204.500 65.265,204.500 65.385 C 204.500 65.505,204.650 65.765,204.833 65.962 C 205.017 66.158,205.167 66.435,205.167 66.576 C 205.167 66.718,205.242 66.833,205.333 66.833 C 205.425 66.833,205.500 66.983,205.500 67.167 C 205.500 67.350,205.575 67.500,205.667 67.500 C 205.758 67.500,205.833 67.598,205.833 67.719 C 205.833 67.839,205.983 68.098,206.167 68.295 C 206.350 68.492,206.500 68.768,206.500 68.910 C 206.500 69.051,206.575 69.167,206.667 69.167 C 206.758 69.167,206.833 69.282,206.833 69.424 C 206.833 69.565,206.983 69.842,207.167 70.038 C 207.350 70.235,207.500 70.495,207.500 70.615 C 207.500 70.735,207.575 70.833,207.667 70.833 C 207.758 70.833,207.833 70.983,207.833 71.167 C 207.833 71.350,207.908 71.500,208.000 71.500 C 208.092 71.500,208.167 71.633,208.167 71.797 C 208.167 71.960,208.317 72.201,208.500 72.333 C 208.683 72.465,208.833 72.707,208.833 72.870 C 208.833 73.033,208.908 73.167,209.000 73.167 C 209.092 73.167,209.167 73.317,209.167 73.500 C 209.167 73.683,209.242 73.833,209.333 73.833 C 209.425 73.833,209.500 73.932,209.500 74.052 C 209.500 74.172,209.650 74.431,209.833 74.628 C 210.017 74.825,210.167 75.102,210.167 75.243 C 210.167 75.384,210.242 75.500,210.333 75.500 C 210.425 75.500,210.500 75.650,210.500 75.833 C 210.500 76.017,210.575 76.167,210.667 76.167 C 210.758 76.167,210.833 76.265,210.833 76.385 C 210.833 76.505,210.983 76.765,211.167 76.962 C 211.350 77.158,211.500 77.435,211.500 77.576 C 211.500 77.718,211.575 77.833,211.667 77.833 C 211.758 77.833,211.833 77.945,211.833 78.080 C 211.833 78.586,213.746 80.500,214.252 80.500 C 214.388 80.500,214.500 80.575,214.500 80.667 C 214.500 80.769,215.278 80.833,216.500 80.833 C 217.722 80.833,218.500 80.769,218.500 80.667 C 218.500 80.575,218.614 80.500,218.754 80.500 C 219.062 80.500,220.833 78.760,220.833 78.457 C 220.833 78.338,220.983 78.132,221.167 78.000 C 221.350 77.868,221.500 77.626,221.500 77.463 C 221.500 77.300,221.575 77.167,221.667 77.167 C 221.758 77.167,221.833 77.017,221.833 76.833 C 221.833 76.650,221.908 76.500,222.000 76.500 C 222.092 76.500,222.167 76.402,222.167 76.281 C 222.167 76.161,222.317 75.902,222.500 75.705 C 222.683 75.508,222.833 75.232,222.833 75.090 C 222.833 74.949,222.908 74.833,223.000 74.833 C 223.092 74.833,223.167 74.718,223.167 74.576 C 223.167 74.435,223.317 74.158,223.500 73.962 C 223.683 73.765,223.833 73.505,223.833 73.385 C 223.833 73.265,223.908 73.167,224.000 73.167 C 224.092 73.167,224.167 73.017,224.167 72.833 C 224.167 72.650,224.242 72.500,224.333 72.500 C 224.425 72.500,224.500 72.384,224.500 72.243 C 224.500 72.102,224.650 71.825,224.833 71.628 C 225.017 71.431,225.167 71.172,225.167 71.052 C 225.167 70.932,225.242 70.833,225.333 70.833 C 225.425 70.833,225.500 70.683,225.500 70.500 C 225.500 70.317,225.575 70.167,225.667 70.167 C 225.758 70.167,225.833 70.051,225.833 69.910 C 225.833 69.768,225.983 69.492,226.167 69.295 C 226.350 69.098,226.500 68.839,226.500 68.719 C 226.500 68.598,226.575 68.500,226.667 68.500 C 226.758 68.500,226.833 68.350,226.833 68.167 C 226.833 67.983,226.908 67.833,227.000 67.833 C 227.092 67.833,227.167 67.735,227.167 67.615 C 227.167 67.495,227.317 67.235,227.500 67.038 C 227.683 66.842,227.833 66.565,227.833 66.424 C 227.833 66.282,227.908 66.167,228.000 66.167 C 228.092 66.167,228.167 66.017,228.167 65.833 C 228.167 65.650,228.233 65.500,228.314 65.500 C 228.395 65.500,228.525 65.331,228.603 65.125 C 228.685 64.909,228.765 68.735,228.791 74.160 C 228.819 80.095,228.897 83.630,229.001 83.735 C 229.092 83.826,229.167 84.058,229.167 84.252 C 229.167 84.445,229.317 84.765,229.500 84.962 C 229.683 85.158,229.833 85.403,229.833 85.505 C 229.833 85.744,230.133 86.023,230.708 86.320 C 230.960 86.450,231.167 86.619,231.167 86.695 C 231.167 86.771,231.392 86.833,231.667 86.833 C 231.942 86.833,232.167 86.908,232.167 87.000 C 232.167 87.209,235.721 87.226,236.127 87.019 C 236.286 86.938,236.641 86.770,236.915 86.644 C 237.548 86.355,238.833 85.089,238.833 84.754 C 238.833 84.614,238.908 84.500,239.000 84.500 C 239.092 84.500,239.167 84.200,239.167 83.833 C 239.167 83.467,239.242 83.167,239.333 83.167 C 239.443 83.167,239.500 77.087,239.500 65.260 C 239.500 53.502,239.443 47.318,239.333 47.250 C 239.242 47.193,239.167 46.851,239.167 46.490 C 239.167 46.129,239.092 45.833,239.000 45.833 C 238.908 45.833,238.833 45.719,238.833 45.579 C 238.833 45.248,237.418 43.833,237.088 43.833 C 236.948 43.833,236.833 43.758,236.833 43.667 C 236.833 43.575,236.608 43.500,236.333 43.500 C 236.058 43.500,235.833 43.425,235.833 43.333 C 235.833 43.232,235.111 43.167,234.000 43.167 C 232.889 43.167,232.167 43.232,232.167 43.333 C 232.167 43.425,231.942 43.500,231.667 43.500 C 231.392 43.500,231.167 43.575,231.167 43.667 C 231.167 43.758,231.023 43.833,230.847 43.833 C 230.672 43.833,230.503 43.890,230.472 43.958 C 230.442 44.027,230.135 44.293,229.792 44.550 C 229.448 44.807,229.167 45.109,229.167 45.222 C 229.167 45.334,229.017 45.535,228.833 45.667 C 228.650 45.799,228.500 46.040,228.500 46.203 C 228.500 46.367,228.425 46.500,228.333 46.500 C 228.242 46.500,228.167 46.598,228.167 46.719 C 228.167 46.839,228.017 47.098,227.833 47.295 C 227.650 47.492,227.500 47.768,227.500 47.910 C 227.500 48.051,227.425 48.167,227.333 48.167 C 227.242 48.167,227.167 48.317,227.167 48.500 C 227.167 48.683,227.092 48.833,227.000 48.833 C 226.908 48.833,226.833 48.983,226.833 49.167 C 226.833 49.350,226.758 49.500,226.667 49.500 C 226.575 49.500,226.500 49.598,226.500 49.719 C 226.500 49.839,226.350 50.098,226.167 50.295 C 225.983 50.492,225.833 50.768,225.833 50.910 C 225.833 51.051,225.758 51.167,225.667 51.167 C 225.575 51.167,225.500 51.317,225.500 51.500 C 225.500 51.683,225.425 51.833,225.333 51.833 C 225.242 51.833,225.167 51.983,225.167 52.167 C 225.167 52.350,225.092 52.500,225.000 52.500 C 224.908 52.500,224.833 52.598,224.833 52.719 C 224.833 52.839,224.683 53.098,224.500 53.295 C 224.317 53.492,224.167 53.768,224.167 53.910 C 224.167 54.051,224.092 54.167,224.000 54.167 C 223.908 54.167,223.833 54.317,223.833 54.500 C 223.833 54.683,223.758 54.833,223.667 54.833 C 223.575 54.833,223.500 54.983,223.500 55.167 C 223.500 55.350,223.425 55.500,223.333 55.500 C 223.242 55.500,223.167 55.598,223.167 55.719 C 223.167 55.839,223.017 56.098,222.833 56.295 C 222.650 56.492,222.500 56.768,222.500 56.910 C 222.500 57.051,222.425 57.167,222.333 57.167 C 222.242 57.167,222.167 57.317,222.167 57.500 C 222.167 57.683,222.092 57.833,222.000 57.833 C 221.908 57.833,221.833 57.983,221.833 58.167 C 221.833 58.350,221.758 58.500,221.667 58.500 C 221.575 58.500,221.500 58.598,221.500 58.719 C 221.500 58.839,221.350 59.098,221.167 59.295 C 220.983 59.492,220.833 59.768,220.833 59.910 C 220.833 60.051,220.758 60.167,220.667 60.167 C 220.575 60.167,220.500 60.317,220.500 60.500 C 220.500 60.683,220.425 60.833,220.333 60.833 C 220.242 60.833,220.167 60.983,220.167 61.167 C 220.167 61.350,220.092 61.500,220.000 61.500 C 219.908 61.500,219.833 61.598,219.833 61.719 C 219.833 61.839,219.683 62.098,219.500 62.295 C 219.317 62.492,219.167 62.768,219.167 62.910 C 219.167 63.051,219.092 63.167,219.000 63.167 C 218.908 63.167,218.833 63.317,218.833 63.500 C 218.833 63.683,218.758 63.833,218.667 63.833 C 218.575 63.833,218.500 63.983,218.500 64.167 C 218.500 64.350,218.425 64.500,218.333 64.500 C 218.242 64.500,218.167 64.598,218.167 64.719 C 218.167 64.839,218.017 65.098,217.833 65.295 C 217.650 65.492,217.500 65.768,217.500 65.910 C 217.500 66.051,217.425 66.167,217.333 66.167 C 217.242 66.167,217.167 66.317,217.167 66.500 C 217.167 66.683,217.092 66.833,217.000 66.833 C 216.908 66.833,216.833 66.983,216.833 67.167 C 216.833 67.350,216.758 67.500,216.667 67.500 C 216.575 67.500,216.500 67.350,216.500 67.167 C 216.500 66.983,216.425 66.833,216.333 66.833 C 216.242 66.833,216.167 66.683,216.167 66.500 C 216.167 66.317,216.092 66.167,216.000 66.167 C 215.908 66.167,215.833 66.068,215.833 65.948 C 215.833 65.828,215.683 65.569,215.500 65.372 C 215.317 65.175,215.167 64.898,215.167 64.757 C 215.167 64.616,215.092 64.500,215.000 64.500 C 214.908 64.500,214.833 64.350,214.833 64.167 C 214.833 63.983,214.758 63.833,214.667 63.833 C 214.575 63.833,214.500 63.683,214.500 63.500 C 214.500 63.317,214.425 63.167,214.333 63.167 C 214.242 63.167,214.167 63.068,214.167 62.948 C 214.167 62.828,214.017 62.569,213.833 62.372 C 213.650 62.175,213.500 61.898,213.500 61.757 C 213.500 61.616,213.425 61.500,213.333 61.500 C 213.242 61.500,213.167 61.350,213.167 61.167 C 213.167 60.983,213.092 60.833,213.000 60.833 C 212.908 60.833,212.833 60.683,212.833 60.500 C 212.833 60.317,212.758 60.167,212.667 60.167 C 212.575 60.167,212.500 60.068,212.500 59.948 C 212.500 59.828,212.350 59.569,212.167 59.372 C 211.983 59.175,211.833 58.898,211.833 58.757 C 211.833 58.616,211.758 58.500,211.667 58.500 C 211.575 58.500,211.500 58.350,211.500 58.167 C 211.500 57.983,211.425 57.833,211.333 57.833 C 211.242 57.833,211.167 57.683,211.167 57.500 C 211.167 57.317,211.092 57.167,211.000 57.167 C 210.908 57.167,210.833 57.068,210.833 56.948 C 210.833 56.828,210.683 56.569,210.500 56.372 C 210.317 56.175,210.167 55.898,210.167 55.757 C 210.167 55.616,210.092 55.500,210.000 55.500 C 209.908 55.500,209.833 55.350,209.833 55.167 C 209.833 54.983,209.758 54.833,209.667 54.833 C 209.575 54.833,209.500 54.683,209.500 54.500 C 209.500 54.317,209.425 54.167,209.333 54.167 C 209.242 54.167,209.167 54.068,209.167 53.948 C 209.167 53.828,209.017 53.569,208.833 53.372 C 208.650 53.175,208.500 52.898,208.500 52.757 C 208.500 52.616,208.425 52.500,208.333 52.500 C 208.242 52.500,208.167 52.350,208.167 52.167 C 208.167 51.983,208.092 51.833,208.000 51.833 C 207.908 51.833,207.833 51.683,207.833 51.500 C 207.833 51.317,207.758 51.167,207.667 51.167 C 207.575 51.167,207.500 51.068,207.500 50.948 C 207.500 50.828,207.350 50.569,207.167 50.372 C 206.983 50.175,206.833 49.898,206.833 49.757 C 206.833 49.616,206.758 49.500,206.667 49.500 C 206.575 49.500,206.500 49.350,206.500 49.167 C 206.500 48.983,206.425 48.833,206.333 48.833 C 206.242 48.833,206.167 48.683,206.167 48.500 C 206.167 48.317,206.092 48.167,206.000 48.167 C 205.908 48.167,205.833 48.068,205.833 47.948 C 205.833 47.828,205.683 47.569,205.500 47.372 C 205.317 47.175,205.167 46.898,205.167 46.757 C 205.167 46.616,205.092 46.500,205.000 46.500 C 204.908 46.500,204.833 46.389,204.833 46.253 C 204.833 45.747,202.921 43.833,202.415 43.833 C 202.278 43.833,202.167 43.758,202.167 43.667 C 202.167 43.575,201.942 43.500,201.667 43.500 C 201.392 43.500,201.167 43.425,201.167 43.333 C 201.167 43.232,200.448 43.167,199.343 43.167 C 198.307 43.167,197.475 43.239,197.417 43.333 M292.167 43.333 C 292.167 43.425,291.942 43.500,291.667 43.500 C 291.392 43.500,291.167 43.575,291.167 43.667 C 291.167 43.758,291.017 43.833,290.833 43.833 C 290.650 43.833,290.500 43.890,290.500 43.959 C 290.500 44.029,290.279 44.183,290.010 44.302 C 289.740 44.422,289.422 44.740,289.302 45.010 C 289.183 45.279,289.029 45.500,288.959 45.500 C 288.890 45.500,288.833 45.650,288.833 45.833 C 288.833 46.017,288.758 46.167,288.667 46.167 C 288.575 46.167,288.500 46.467,288.500 46.833 C 288.500 47.200,288.425 47.500,288.333 47.500 C 288.224 47.500,288.167 51.524,288.167 59.240 C 288.167 66.887,288.225 71.016,288.333 71.083 C 288.425 71.140,288.500 71.702,288.500 72.333 C 288.500 72.964,288.575 73.527,288.667 73.583 C 288.758 73.640,288.833 74.019,288.833 74.427 C 288.833 74.834,288.908 75.167,289.000 75.167 C 289.092 75.167,289.167 75.393,289.167 75.669 C 289.167 75.945,289.242 76.320,289.333 76.502 C 289.425 76.684,289.575 76.982,289.667 77.164 C 289.758 77.346,289.833 77.646,289.833 77.831 C 289.833 78.016,289.908 78.167,290.000 78.167 C 290.092 78.167,290.167 78.317,290.167 78.500 C 290.167 78.683,290.242 78.833,290.333 78.833 C 290.425 78.833,290.500 78.983,290.500 79.167 C 290.500 79.350,290.575 79.500,290.667 79.500 C 290.758 79.500,290.834 79.594,290.834 79.708 C 290.834 79.823,291.059 80.179,291.333 80.500 C 291.608 80.821,291.833 81.145,291.833 81.220 C 291.833 81.408,294.331 83.833,294.524 83.833 C 294.610 83.833,294.842 83.983,295.038 84.167 C 295.235 84.350,295.495 84.500,295.615 84.500 C 295.735 84.500,295.833 84.575,295.833 84.667 C 295.833 84.758,295.983 84.833,296.167 84.833 C 296.350 84.833,296.500 84.908,296.500 85.000 C 296.500 85.092,296.650 85.167,296.833 85.167 C 297.017 85.167,297.167 85.242,297.167 85.333 C 297.167 85.425,297.317 85.500,297.500 85.500 C 297.683 85.500,297.833 85.575,297.833 85.667 C 297.833 85.758,298.058 85.833,298.333 85.833 C 298.608 85.833,298.833 85.908,298.833 86.000 C 298.833 86.092,299.058 86.167,299.333 86.167 C 299.608 86.167,299.833 86.242,299.833 86.333 C 299.833 86.425,300.054 86.500,300.323 86.500 C 300.593 86.500,300.860 86.575,300.917 86.667 C 300.973 86.758,301.428 86.833,301.927 86.833 C 302.425 86.833,302.833 86.908,302.833 87.000 C 302.833 87.102,303.640 87.167,304.919 87.167 C 306.290 87.167,307.118 87.238,307.336 87.373 C 307.599 87.538,307.734 87.538,307.998 87.373 C 308.213 87.239,309.024 87.167,310.321 87.167 C 311.470 87.167,312.357 87.096,312.417 87.000 C 312.473 86.908,312.890 86.833,313.343 86.833 C 313.796 86.833,314.167 86.758,314.167 86.667 C 314.167 86.575,314.467 86.500,314.833 86.500 C 315.200 86.500,315.500 86.425,315.500 86.333 C 315.500 86.242,315.725 86.167,316.000 86.167 C 316.275 86.167,316.500 86.092,316.500 86.000 C 316.500 85.908,316.650 85.833,316.833 85.833 C 317.017 85.833,317.167 85.758,317.167 85.667 C 317.167 85.575,317.310 85.500,317.484 85.500 C 317.862 85.500,319.167 84.830,319.167 84.636 C 319.167 84.561,319.300 84.500,319.463 84.500 C 319.626 84.500,319.868 84.350,320.000 84.167 C 320.132 83.983,320.337 83.833,320.456 83.833 C 320.738 83.833,323.167 81.404,323.167 81.123 C 323.167 81.004,323.317 80.799,323.500 80.667 C 323.683 80.535,323.833 80.293,323.833 80.130 C 323.833 79.967,323.897 79.833,323.974 79.833 C 324.051 79.833,324.284 79.477,324.492 79.042 C 324.700 78.606,324.937 78.120,325.018 77.961 C 325.100 77.801,325.167 77.558,325.167 77.419 C 325.167 77.280,325.242 77.167,325.333 77.167 C 325.425 77.167,325.500 76.942,325.500 76.667 C 325.500 76.392,325.575 76.167,325.667 76.167 C 325.758 76.167,325.833 75.867,325.833 75.500 C 325.833 75.133,325.908 74.833,326.000 74.833 C 326.092 74.833,326.167 74.458,326.167 74.000 C 326.167 73.542,326.242 73.167,326.333 73.167 C 326.436 73.167,326.500 72.281,326.500 70.843 C 326.500 69.474,326.568 68.477,326.667 68.417 C 326.775 68.350,326.833 64.918,326.833 58.667 C 326.833 52.415,326.775 48.983,326.667 48.917 C 326.575 48.860,326.500 48.293,326.500 47.657 C 326.500 46.997,326.428 46.500,326.333 46.500 C 326.242 46.500,326.167 46.319,326.167 46.098 C 326.167 45.630,324.531 43.833,324.105 43.833 C 323.956 43.833,323.833 43.758,323.833 43.667 C 323.833 43.575,323.608 43.500,323.333 43.500 C 323.058 43.500,322.833 43.425,322.833 43.333 C 322.833 43.232,322.087 43.167,320.927 43.167 C 319.835 43.167,318.976 43.238,318.917 43.333 C 318.860 43.425,318.649 43.502,318.448 43.504 C 318.248 43.506,317.896 43.654,317.667 43.833 C 317.438 44.013,317.190 44.161,317.117 44.163 C 316.665 44.176,315.500 46.050,315.500 46.766 C 315.500 46.986,315.425 47.167,315.333 47.167 C 315.224 47.167,315.167 51.163,315.167 58.823 C 315.167 66.415,315.109 70.516,315.000 70.583 C 314.908 70.640,314.833 71.019,314.833 71.427 C 314.833 71.834,314.758 72.167,314.667 72.167 C 314.575 72.167,314.500 72.392,314.500 72.667 C 314.500 72.942,314.425 73.167,314.333 73.167 C 314.242 73.167,314.167 73.317,314.167 73.500 C 314.167 73.683,314.092 73.833,314.000 73.833 C 313.908 73.833,313.833 73.947,313.833 74.086 C 313.833 74.416,311.749 76.500,311.420 76.500 C 311.281 76.500,311.167 76.575,311.167 76.667 C 311.167 76.758,310.942 76.833,310.667 76.833 C 310.392 76.833,310.167 76.908,310.167 77.000 C 310.167 77.092,309.867 77.167,309.500 77.167 C 309.133 77.167,308.833 77.242,308.833 77.333 C 308.833 77.430,308.309 77.500,307.593 77.500 C 306.911 77.500,306.307 77.425,306.250 77.333 C 306.193 77.242,305.851 77.167,305.490 77.167 C 305.129 77.167,304.833 77.092,304.833 77.000 C 304.833 76.908,304.736 76.833,304.617 76.833 C 304.310 76.833,303.503 76.441,303.501 76.292 C 303.501 76.223,303.386 76.167,303.246 76.167 C 302.935 76.167,301.673 74.918,301.347 74.290 C 301.217 74.039,301.048 73.833,300.972 73.833 C 300.896 73.833,300.833 73.650,300.833 73.427 C 300.833 73.203,300.758 72.973,300.667 72.917 C 300.575 72.860,300.500 72.635,300.500 72.417 C 300.500 72.198,300.425 71.973,300.333 71.917 C 300.242 71.860,300.167 71.443,300.167 70.990 C 300.167 70.537,300.092 70.167,300.000 70.167 C 299.890 70.167,299.833 66.167,299.833 58.500 C 299.833 50.833,299.776 46.833,299.667 46.833 C 299.575 46.833,299.500 46.608,299.500 46.333 C 299.500 46.058,299.425 45.833,299.333 45.833 C 299.242 45.833,299.167 45.719,299.167 45.579 C 299.167 45.248,297.752 43.833,297.421 43.833 C 297.281 43.833,297.167 43.758,297.167 43.667 C 297.167 43.575,296.946 43.500,296.677 43.500 C 296.407 43.500,296.140 43.425,296.083 43.333 C 296.024 43.238,295.165 43.167,294.073 43.167 C 292.913 43.167,292.167 43.232,292.167 43.333 M338.583 43.667 C 338.527 43.758,338.110 43.833,337.657 43.833 C 337.204 43.833,336.833 43.908,336.833 44.000 C 336.833 44.092,336.720 44.167,336.581 44.167 C 336.007 44.167,334.167 45.752,334.167 46.246 C 334.167 46.386,334.092 46.500,334.000 46.500 C 333.908 46.500,333.833 46.800,333.833 47.167 C 333.833 47.533,333.758 47.833,333.667 47.833 C 333.557 47.833,333.500 53.722,333.500 65.167 C 333.500 76.611,333.557 82.500,333.667 82.500 C 333.758 82.500,333.833 82.725,333.833 83.000 C 333.833 83.275,333.908 83.500,334.000 83.500 C 334.092 83.500,334.167 83.650,334.167 83.833 C 334.167 84.017,334.242 84.167,334.333 84.167 C 334.425 84.167,334.500 84.282,334.500 84.422 C 334.500 84.754,335.579 85.833,335.911 85.833 C 336.052 85.833,336.167 85.908,336.167 86.000 C 336.167 86.092,336.312 86.167,336.490 86.167 C 336.668 86.167,336.860 86.242,336.917 86.333 C 336.984 86.442,341.335 86.500,349.427 86.500 C 357.587 86.500,361.833 86.443,361.833 86.333 C 361.833 86.242,361.983 86.167,362.167 86.167 C 362.350 86.167,362.500 86.092,362.500 86.000 C 362.500 85.908,362.616 85.833,362.758 85.833 C 363.091 85.833,363.833 85.091,363.833 84.758 C 363.833 84.616,363.908 84.500,364.000 84.500 C 364.092 84.500,364.167 84.354,364.167 84.177 C 364.167 83.999,364.242 83.807,364.333 83.750 C 364.429 83.691,364.500 82.832,364.500 81.740 C 364.500 80.580,364.435 79.833,364.333 79.833 C 364.242 79.833,364.167 79.658,364.167 79.443 C 364.167 78.989,362.838 77.500,362.433 77.500 C 362.287 77.500,362.167 77.425,362.167 77.333 C 362.167 77.242,361.984 77.167,361.760 77.167 C 361.536 77.167,361.307 77.092,361.250 77.000 C 361.184 76.893,358.304 76.833,353.157 76.833 L 345.167 76.833 345.167 62.167 C 345.167 52.500,345.110 47.500,345.000 47.500 C 344.908 47.500,344.833 47.275,344.833 47.000 C 344.833 46.725,344.758 46.500,344.667 46.500 C 344.575 46.500,344.500 46.383,344.500 46.239 C 344.500 45.859,342.747 44.167,342.354 44.167 C 342.170 44.167,341.973 44.092,341.917 44.000 C 341.860 43.908,341.485 43.833,341.083 43.833 C 340.682 43.833,340.307 43.758,340.250 43.667 C 340.193 43.575,339.818 43.500,339.417 43.500 C 339.015 43.500,338.640 43.575,338.583 43.667 M373.583 43.667 C 373.527 43.758,373.110 43.833,372.657 43.833 C 372.204 43.833,371.833 43.908,371.833 44.000 C 371.833 44.092,371.720 44.167,371.581 44.167 C 371.007 44.167,369.167 45.752,369.167 46.246 C 369.167 46.386,369.092 46.500,369.000 46.500 C 368.908 46.500,368.833 46.800,368.833 47.167 C 368.833 47.533,368.758 47.833,368.667 47.833 C 368.557 47.833,368.500 53.722,368.500 65.167 C 368.500 76.611,368.557 82.500,368.667 82.500 C 368.758 82.500,368.833 82.725,368.833 83.000 C 368.833 83.275,368.908 83.500,369.000 83.500 C 369.092 83.500,369.167 83.650,369.167 83.833 C 369.167 84.017,369.242 84.167,369.333 84.167 C 369.425 84.167,369.500 84.282,369.500 84.422 C 369.500 84.754,370.579 85.833,370.911 85.833 C 371.052 85.833,371.167 85.908,371.167 86.000 C 371.167 86.092,371.312 86.167,371.490 86.167 C 371.668 86.167,371.860 86.242,371.917 86.333 C 371.984 86.442,376.335 86.500,384.427 86.500 C 392.587 86.500,396.833 86.443,396.833 86.333 C 396.833 86.242,396.983 86.167,397.167 86.167 C 397.350 86.167,397.500 86.092,397.500 86.000 C 397.500 85.908,397.616 85.833,397.758 85.833 C 398.091 85.833,398.833 85.091,398.833 84.758 C 398.833 84.616,398.908 84.500,399.000 84.500 C 399.092 84.500,399.167 84.354,399.167 84.177 C 399.167 83.999,399.242 83.807,399.333 83.750 C 399.429 83.691,399.500 82.832,399.500 81.740 C 399.500 80.580,399.435 79.833,399.333 79.833 C 399.242 79.833,399.167 79.658,399.167 79.443 C 399.167 78.989,397.838 77.500,397.433 77.500 C 397.287 77.500,397.167 77.425,397.167 77.333 C 397.167 77.242,396.984 77.167,396.760 77.167 C 396.536 77.167,396.307 77.092,396.250 77.000 C 396.184 76.893,393.304 76.833,388.157 76.833 L 380.167 76.833 380.167 62.167 C 380.167 52.500,380.110 47.500,380.000 47.500 C 379.908 47.500,379.833 47.275,379.833 47.000 C 379.833 46.725,379.758 46.500,379.667 46.500 C 379.575 46.500,379.500 46.383,379.500 46.239 C 379.500 45.859,377.747 44.167,377.354 44.167 C 377.170 44.167,376.973 44.092,376.917 44.000 C 376.860 43.908,376.485 43.833,376.083 43.833 C 375.682 43.833,375.307 43.758,375.250 43.667 C 375.193 43.575,374.818 43.500,374.417 43.500 C 374.015 43.500,373.640 43.575,373.583 43.667 M250.167 44.000 C 250.167 44.092,249.942 44.167,249.667 44.167 C 249.392 44.167,249.167 44.229,249.167 44.305 C 249.167 44.381,248.960 44.550,248.708 44.680 C 248.085 45.002,247.500 45.597,247.500 45.909 C 247.500 46.051,247.425 46.167,247.333 46.167 C 247.242 46.167,247.167 46.317,247.167 46.500 C 247.167 46.683,247.092 46.833,247.000 46.833 C 246.908 46.833,246.833 47.054,246.833 47.323 C 246.833 47.593,246.758 47.860,246.667 47.917 C 246.557 47.984,246.500 53.946,246.500 65.260 C 246.500 76.642,246.557 82.500,246.667 82.500 C 246.758 82.500,246.833 82.725,246.833 83.000 C 246.833 83.275,246.908 83.500,247.000 83.500 C 247.092 83.500,247.167 83.650,247.167 83.833 C 247.167 84.017,247.242 84.167,247.333 84.167 C 247.425 84.167,247.500 84.282,247.500 84.422 C 247.500 84.754,248.579 85.833,248.911 85.833 C 249.052 85.833,249.167 85.908,249.167 86.000 C 249.167 86.092,249.350 86.167,249.573 86.167 C 249.797 86.167,250.027 86.242,250.083 86.333 C 250.150 86.442,254.030 86.500,261.177 86.500 C 268.392 86.500,272.167 86.443,272.167 86.333 C 272.167 86.242,272.500 86.167,272.907 86.167 C 273.314 86.167,273.693 86.092,273.750 86.000 C 273.807 85.908,274.074 85.833,274.343 85.833 C 274.613 85.833,274.833 85.758,274.833 85.667 C 274.833 85.575,275.058 85.500,275.333 85.500 C 275.608 85.500,275.833 85.425,275.833 85.333 C 275.833 85.242,275.983 85.167,276.167 85.167 C 276.350 85.167,276.500 85.092,276.500 85.000 C 276.500 84.908,276.650 84.833,276.833 84.833 C 277.017 84.833,277.167 84.758,277.167 84.667 C 277.167 84.575,277.265 84.500,277.385 84.500 C 277.505 84.500,277.765 84.350,277.962 84.167 C 278.158 83.983,278.389 83.833,278.474 83.833 C 278.715 83.833,280.723 81.803,280.986 81.292 C 281.117 81.040,281.285 80.833,281.361 80.833 C 281.438 80.833,281.500 80.683,281.500 80.500 C 281.500 80.317,281.575 80.167,281.667 80.167 C 281.758 80.167,281.833 80.017,281.833 79.833 C 281.833 79.650,281.908 79.500,282.000 79.500 C 282.092 79.500,282.167 79.350,282.167 79.167 C 282.167 78.983,282.242 78.833,282.333 78.833 C 282.425 78.833,282.500 78.533,282.500 78.167 C 282.500 77.800,282.575 77.500,282.667 77.500 C 282.763 77.500,282.833 76.976,282.833 76.260 C 282.833 75.578,282.908 74.973,283.000 74.917 C 283.092 74.860,283.167 74.560,283.167 74.250 C 283.167 73.940,283.092 73.640,283.000 73.583 C 282.908 73.527,282.833 72.960,282.833 72.323 C 282.833 71.663,282.762 71.167,282.667 71.167 C 282.575 71.167,282.500 70.909,282.500 70.593 C 282.500 70.278,282.425 69.973,282.333 69.917 C 282.242 69.860,282.167 69.668,282.167 69.490 C 282.167 69.312,282.092 69.167,282.000 69.167 C 281.908 69.167,281.833 69.033,281.833 68.870 C 281.833 68.707,281.683 68.465,281.500 68.333 C 281.317 68.201,281.167 67.991,281.167 67.867 C 281.167 67.574,279.032 65.500,278.731 65.500 C 278.604 65.500,278.500 65.425,278.500 65.333 C 278.500 65.242,278.350 65.167,278.167 65.167 C 277.983 65.167,277.833 65.092,277.833 65.000 C 277.833 64.908,277.683 64.833,277.500 64.833 C 277.317 64.833,277.167 64.758,277.167 64.667 C 277.167 64.575,277.017 64.500,276.833 64.500 C 276.650 64.500,276.500 64.425,276.500 64.333 C 276.500 64.242,276.598 64.167,276.719 64.167 C 276.839 64.167,277.098 64.017,277.295 63.833 C 277.492 63.650,277.721 63.500,277.804 63.500 C 278.043 63.500,279.725 61.798,279.986 61.292 C 280.117 61.040,280.285 60.833,280.361 60.833 C 280.438 60.833,280.500 60.683,280.500 60.500 C 280.500 60.317,280.575 60.167,280.667 60.167 C 280.758 60.167,280.833 60.017,280.833 59.833 C 280.833 59.650,280.908 59.500,281.000 59.500 C 281.092 59.500,281.167 59.350,281.167 59.167 C 281.167 58.983,281.242 58.833,281.333 58.833 C 281.425 58.833,281.500 58.533,281.500 58.167 C 281.500 57.800,281.575 57.500,281.667 57.500 C 281.770 57.500,281.833 56.559,281.833 55.010 C 281.833 53.530,281.766 52.478,281.667 52.417 C 281.575 52.360,281.500 52.056,281.500 51.740 C 281.500 51.425,281.425 51.167,281.333 51.167 C 281.242 51.167,281.167 51.024,281.167 50.849 C 281.167 50.471,280.497 49.167,280.302 49.167 C 280.228 49.167,280.167 49.053,280.167 48.914 C 280.167 48.606,278.093 46.500,277.790 46.500 C 277.671 46.500,277.465 46.350,277.333 46.167 C 277.201 45.983,276.960 45.833,276.797 45.833 C 276.633 45.833,276.500 45.758,276.500 45.667 C 276.500 45.575,276.350 45.500,276.167 45.500 C 275.983 45.500,275.833 45.425,275.833 45.333 C 275.833 45.242,275.683 45.167,275.500 45.167 C 275.317 45.167,275.167 45.092,275.167 45.000 C 275.167 44.908,274.942 44.833,274.667 44.833 C 274.392 44.833,274.167 44.758,274.167 44.667 C 274.167 44.575,273.946 44.500,273.677 44.500 C 273.407 44.500,273.140 44.425,273.083 44.333 C 273.027 44.242,272.647 44.167,272.240 44.167 C 271.833 44.167,271.500 44.092,271.500 44.000 C 271.500 43.891,267.833 43.833,260.833 43.833 C 253.833 43.833,250.167 43.891,250.167 44.000 M33.765 53.542 C 33.255 54.115,32.492 55.197,32.071 55.947 C 31.269 57.377,30.886 57.667,29.801 57.667 C 29.081 57.667,26.828 58.161,26.298 58.435 C 25.415 58.891,25.909 60.029,27.918 62.168 C 29.119 63.446,29.139 63.526,28.669 65.027 C 28.170 66.618,27.779 69.501,27.988 70.051 C 28.315 70.913,29.594 70.527,31.583 68.964 C 33.305 67.612,33.200 67.610,35.464 69.047 C 39.103 71.356,40.030 71.644,40.139 70.500 C 40.208 69.776,39.758 67.115,39.321 65.667 C 38.692 63.578,38.795 63.342,41.000 61.800 C 42.189 60.968,43.667 59.481,43.667 59.116 C 43.667 58.475,42.070 57.944,39.490 57.729 C 37.794 57.588,37.527 57.366,37.008 55.667 C 35.966 52.259,35.298 51.821,33.765 53.542 M267.500 52.667 C 267.500 52.758,267.725 52.833,268.000 52.833 C 268.275 52.833,268.500 52.908,268.500 53.000 C 268.500 53.092,268.615 53.167,268.756 53.167 C 269.268 53.167,270.500 54.688,270.500 55.321 C 270.500 55.500,270.575 55.693,270.667 55.750 C 270.758 55.807,270.833 56.149,270.833 56.510 C 270.833 56.871,270.758 57.167,270.667 57.167 C 270.575 57.167,270.500 57.392,270.500 57.667 C 270.500 57.942,270.425 58.167,270.333 58.167 C 270.242 58.167,270.167 58.282,270.167 58.422 C 270.167 58.749,269.090 59.833,268.765 59.833 C 268.630 59.833,268.473 59.908,268.417 60.000 C 268.360 60.092,268.056 60.167,267.740 60.167 C 267.425 60.167,267.167 60.242,267.167 60.333 C 267.167 60.440,265.500 60.500,262.500 60.500 L 257.833 60.500 257.833 56.500 L 257.833 52.500 262.667 52.500 C 265.778 52.500,267.500 52.559,267.500 52.667 M267.750 69.333 C 267.807 69.425,268.149 69.500,268.510 69.500 C 268.871 69.500,269.167 69.575,269.167 69.667 C 269.167 69.758,269.280 69.833,269.419 69.833 C 270.155 69.833,271.500 71.178,271.500 71.914 C 271.500 72.053,271.575 72.167,271.667 72.167 C 271.765 72.167,271.833 72.747,271.833 73.573 C 271.833 74.347,271.758 75.027,271.667 75.083 C 271.575 75.140,271.500 75.298,271.500 75.434 C 271.500 75.770,270.104 77.167,269.768 77.167 C 269.621 77.167,269.500 77.242,269.500 77.333 C 269.500 77.425,269.317 77.500,269.093 77.500 C 268.869 77.500,268.640 77.575,268.583 77.667 C 268.518 77.772,266.526 77.833,263.157 77.833 L 257.833 77.833 257.833 73.500 L 257.833 69.167 262.740 69.167 C 265.832 69.167,267.685 69.228,267.750 69.333 M51.833 107.171 C 47.752 108.304,47.295 108.576,47.712 109.620 C 48.117 110.637,48.174 110.638,51.437 109.673 C 54.934 108.640,54.947 108.631,54.737 107.548 C 54.541 106.533,54.261 106.496,51.833 107.171 M24.339 107.156 C 23.752 108.253,24.175 108.897,25.659 109.165 C 26.250 109.273,27.099 109.499,27.546 109.669 C 30.410 110.757,31.467 110.658,31.621 109.289 C 31.724 108.372,31.987 108.512,28.466 107.598 C 25.160 106.741,24.594 106.680,24.339 107.156 " stroke="none" fill="#fbfbfa" fill-rule="evenodd"></path><path id="path4" d="M47.500 28.494 C 47.500 28.690,48.222 28.872,50.500 29.251 C 52.553 29.592,54.638 29.761,54.455 29.571 C 53.926 29.022,47.500 28.026,47.500 28.494 M23.583 29.001 C 21.368 29.508,19.884 30.333,21.188 30.333 C 21.945 30.333,25.366 29.182,25.290 28.952 C 25.195 28.670,25.010 28.675,23.583 29.001 M24.417 30.610 C 23.111 30.899,22.288 30.991,21.556 30.932 C 18.978 30.723,20.287 32.337,23.099 32.835 C 25.150 33.198,27.000 32.206,27.000 30.744 C 27.000 30.043,26.986 30.042,24.417 30.610 M48.167 30.444 C 48.167 31.563,49.744 32.810,51.357 32.965 C 53.144 33.136,55.917 32.042,55.917 31.165 L 55.917 30.750 53.645 30.637 C 52.395 30.574,50.796 30.443,50.091 30.345 C 48.370 30.106,48.167 30.116,48.167 30.444 M32.417 31.265 C 32.233 31.308,31.446 31.461,30.667 31.605 C 27.893 32.116,27.554 32.425,27.101 34.846 C 26.480 38.165,27.575 40.508,30.430 41.964 C 33.313 43.435,38.933 43.057,40.633 41.277 C 42.768 39.043,41.395 33.805,38.257 32.210 C 36.831 31.486,33.651 30.971,32.417 31.265 M36.924 33.076 C 37.396 33.548,37.429 33.831,37.088 34.490 C 36.634 35.369,35.100 35.477,34.663 34.660 C 33.960 33.347,35.863 32.014,36.924 33.076 M30.160 33.163 C 30.897 33.557,30.891 34.925,30.151 35.384 C 29.128 36.018,27.883 33.951,28.870 33.259 C 29.296 32.961,29.723 32.929,30.160 33.163 " stroke="none" fill="#dc996e" fill-rule="evenodd"></path><path id="path5" d="M46.531 14.713 C 46.359 14.920,46.515 15.156,47.474 16.140 C 49.350 18.065,49.924 19.818,48.985 20.757 C 48.537 21.206,46.594 22.000,45.946 22.000 C 44.740 22.000,44.553 22.974,45.364 25.026 C 46.458 27.795,48.062 28.137,51.815 26.402 C 57.133 23.946,55.671 17.265,49.333 15.061 C 47.765 14.516,46.795 14.395,46.531 14.713 M26.917 15.147 C 20.206 17.574,18.847 23.955,24.435 26.801 C 26.594 27.900,27.927 27.661,28.584 26.055 C 28.840 25.429,29.226 24.514,29.442 24.022 C 30.101 22.514,29.941 22.205,28.416 22.048 C 25.451 21.742,25.154 19.276,27.750 16.524 C 29.287 14.895,28.986 14.398,26.917 15.147 M49.195 15.509 C 56.671 18.028,56.292 25.778,48.637 26.918 C 46.917 27.174,45.524 25.640,45.444 23.401 L 45.417 22.615 46.612 22.318 C 50.317 21.396,50.896 19.429,48.359 16.381 C 47.190 14.975,47.293 14.869,49.195 15.509 M27.073 16.543 C 24.649 19.227,25.085 21.960,28.020 22.477 C 29.356 22.713,29.431 22.801,29.035 23.688 C 28.856 24.089,28.544 24.867,28.342 25.417 C 27.696 27.175,26.926 27.386,24.721 26.411 C 19.512 24.107,20.775 17.823,26.880 15.664 C 28.002 15.267,28.046 15.465,27.073 16.543 M31.293 26.375 C 30.857 26.712,30.847 27.490,31.274 27.917 C 31.596 28.239,32.304 28.130,32.625 27.709 C 33.294 26.833,32.166 25.703,31.293 26.375 M38.792 26.680 C 38.354 26.935,38.404 27.914,38.870 28.241 C 39.360 28.583,39.599 28.568,40.000 28.167 C 40.826 27.341,39.808 26.088,38.792 26.680 M32.250 27.167 C 32.250 27.472,32.150 27.598,31.874 27.637 C 31.465 27.695,31.232 27.337,31.398 26.905 C 31.567 26.465,32.250 26.675,32.250 27.167 M39.803 27.459 C 39.874 27.954,39.365 28.164,39.071 27.761 C 38.782 27.367,38.960 26.971,39.396 27.033 C 39.616 27.064,39.770 27.225,39.803 27.459 M34.307 52.292 C 33.299 53.129,32.086 54.727,31.150 56.448 C 30.904 56.902,30.776 56.954,29.400 57.151 C 24.465 57.860,24.114 59.005,27.684 62.750 L 28.478 63.583 28.327 64.377 C 28.244 64.814,28.089 65.334,27.983 65.532 C 27.773 65.925,27.556 67.243,27.394 69.112 C 27.172 71.689,28.701 71.803,31.833 69.442 C 33.374 68.279,33.251 68.275,35.285 69.568 C 38.525 71.630,39.915 72.121,40.502 71.414 C 40.886 70.952,40.317 66.443,39.731 65.300 C 39.487 64.825,39.430 64.044,39.605 63.588 C 39.662 63.437,40.281 62.930,40.980 62.459 C 45.493 59.421,45.260 57.888,40.190 57.266 C 38.020 57.000,38.021 57.001,37.504 55.417 C 36.443 52.161,35.534 51.272,34.307 52.292 M35.705 52.792 C 36.114 53.258,36.596 54.320,37.008 55.667 C 37.527 57.366,37.794 57.588,39.490 57.729 C 42.070 57.944,43.667 58.475,43.667 59.116 C 43.667 59.481,42.189 60.968,41.000 61.800 C 38.795 63.342,38.692 63.578,39.321 65.667 C 39.758 67.115,40.208 69.776,40.139 70.500 C 40.030 71.644,39.103 71.356,35.464 69.047 C 33.200 67.610,33.305 67.612,31.583 68.964 C 29.594 70.527,28.315 70.913,27.988 70.051 C 27.779 69.501,28.170 66.618,28.669 65.027 C 29.139 63.526,29.119 63.446,27.918 62.168 C 25.909 60.029,25.415 58.891,26.298 58.435 C 26.828 58.161,29.081 57.667,29.801 57.667 C 30.886 57.667,31.269 57.377,32.071 55.947 C 33.555 53.304,35.029 52.024,35.705 52.792 M52.083 106.614 C 46.979 108.011,46.570 108.319,47.411 110.125 C 47.875 111.121,48.194 111.214,49.521 110.738 C 49.922 110.594,51.251 110.187,52.474 109.833 C 55.231 109.035,55.387 108.913,55.237 107.675 C 55.030 105.964,54.773 105.878,52.083 106.614 M23.998 106.875 C 23.116 108.321,23.933 109.660,25.700 109.666 C 25.855 109.666,26.605 109.864,27.366 110.105 C 30.251 111.020,31.403 111.160,31.685 110.633 C 32.860 108.438,32.584 108.141,28.382 107.082 C 24.744 106.164,24.441 106.150,23.998 106.875 M54.737 107.548 C 54.947 108.631,54.934 108.640,51.437 109.673 C 48.174 110.638,48.117 110.637,47.712 109.620 C 47.295 108.576,47.752 108.304,51.833 107.171 C 54.261 106.496,54.541 106.533,54.737 107.548 M28.466 107.598 C 31.987 108.512,31.724 108.372,31.621 109.289 C 31.467 110.658,30.410 110.757,27.546 109.669 C 27.099 109.499,26.250 109.273,25.659 109.165 C 24.353 108.929,24.167 108.790,24.167 108.052 C 24.167 106.590,24.460 106.559,28.466 107.598 " stroke="none" fill="#a6a086" fill-rule="evenodd"></path></g></svg>